F0ntUni-Vanilla.ufo
<glyph name="exclam" format="1">
  <advance width="330"/>
  <unicode hex="0021"/>
  <outline>
    <contour>
      <point x="136" y="828" type="curve" smooth="yes"/>
      <point x="176" y="835" type="line" smooth="yes"/>
      <point x="179" y="836"/>
      <point x="183" y="836"/>
      <point x="187" y="836" type="curve" smooth="yes"/>
      <point x="202" y="836"/>
      <point x="220" y="830"/>
      <point x="220" y="812" type="curve" smooth="yes"/>
      <point x="220" y="811" type="line" smooth="yes"/>
      <point x="218" y="725"/>
      <point x="222" y="574"/>
      <point x="205" y="303" type="curve" smooth="yes"/>
      <point x="204" y="285"/>
      <point x="176" y="268"/>
      <point x="153" y="268" type="curve" smooth="yes"/>
      <point x="138" y="268"/>
      <point x="126" y="275"/>
      <point x="125" y="295" type="curve" smooth="yes"/>
      <point x="117" y="433"/>
      <point x="111" y="709"/>
      <point x="101" y="794" type="curve"/>
      <point x="101" y="796" type="line" smooth="yes"/>
      <point x="101" y="811"/>
      <point x="118" y="825"/>
    </contour>
    <contour>
      <point x="231" y="112" type="curve" smooth="yes"/>
      <point x="233" y="110"/>
      <point x="249" y="95"/>
      <point x="249" y="71" type="curve" smooth="yes"/>
      <point x="249" y="67"/>
      <point x="249" y="62"/>
      <point x="248" y="58" type="curve" smooth="yes"/>
      <point x="243" y="32"/>
      <point x="210" y="-5"/>
      <point x="155" y="-5" type="curve" smooth="yes"/>
      <point x="105" y="-5"/>
      <point x="81" y="26"/>
      <point x="81" y="56" type="curve" smooth="yes"/>
      <point x="81" y="79"/>
      <point x="103" y="132"/>
      <point x="175" y="132" type="curve" smooth="yes"/>
      <point x="181" y="132"/>
      <point x="187" y="131"/>
      <point x="191" y="130" type="curve" smooth="yes"/>
      <point x="207" y="126" type="line" smooth="yes"/>
      <point x="217" y="123"/>
      <point x="226" y="118"/>
    </contour>
    <contour>
      <point x="137.684" y="818.143" type="line" smooth="yes"/>
      <point x="122.356" y="815.588"/>
      <point x="111" y="803.525"/>
      <point x="111" y="796" type="curve" smooth="yes"/>
      <point x="111" y="794.585" type="line"/>
      <point x="120.984" y="707.916"/>
      <point x="127.012" y="433.082"/>
      <point x="134.983" y="295.579" type="curve" smooth="yes"/>
      <point x="135.716" y="280.924"/>
      <point x="141.773" y="278"/>
      <point x="153" y="278" type="curve" smooth="yes"/>
      <point x="173.662" y="278"/>
      <point x="194.511" y="294.484"/>
      <point x="195.015" y="303.555" type="curve" smooth="yes"/>
      <point x="212.004" y="574.379"/>
      <point x="207.994" y="724.877"/>
      <point x="210" y="811.116" type="curve"/>
      <point x="210" y="812" type="line" smooth="yes"/>
      <point x="210" y="820.862"/>
      <point x="201.108" y="826"/>
      <point x="187" y="826" type="curve" smooth="yes"/>
      <point x="182.973" y="826"/>
      <point x="179.757" y="825.711"/>
      <point x="179.162" y="825.513" type="curve" smooth="yes"/>
      <point x="178.457" y="825.278" type="line"/>
    </contour>
    <contour>
      <point x="223.929" y="104.929" type="curve" smooth="yes"/>
      <point x="223.608" y="105.25" type="line"/>
      <point x="223.318" y="105.598" type="line" smooth="yes"/>
      <point x="220.247" y="109.283"/>
      <point x="212.884" y="113.794"/>
      <point x="204.127" y="116.422" type="curve"/>
      <point x="205.091" y="116.157"/>
      <point x="205.545" y="116.056"/>
      <point x="204.575" y="116.299" type="curve" smooth="yes"/>
      <point x="188.575" y="120.299" type="line" smooth="yes"/>
      <point x="185.307" y="121.115"/>
      <point x="179.897" y="122"/>
      <point x="175" y="122" type="curve" smooth="yes"/>
      <point x="109.108" y="122"/>
      <point x="91" y="74.2239"/>
      <point x="91" y="56" type="curve" smooth="yes"/>
      <point x="91" y="31.8616"/>
      <point x="109.665" y="5"/>
      <point x="155" y="5" type="curve" smooth="yes"/>
      <point x="205.474" y="5"/>
      <point x="234.202" y="39.2039"/>
      <point x="238.18" y="59.8885" type="curve" smooth="yes"/>
      <point x="238.232" y="60.1585" type="line"/>
      <point x="238.299" y="60.4254" type="line" smooth="yes"/>
      <point x="238.849" y="62.6254"/>
      <point x="239" y="67.0344"/>
      <point x="239" y="71" type="curve" smooth="yes"/>
      <point x="239" y="90.4761"/>
      <point x="225.859" y="102.998"/>
    </contour>
  </outline>
</glyph>
<glyph name="quotedbl" format="1">
  <advance width="510"/>
  <unicode hex="0022"/>
  <outline>
    <contour>
      <point x="347" y="838" type="curve" smooth="yes"/>
      <point x="366" y="839" type="line"/>
      <point x="368" y="839" type="line" smooth="yes"/>
      <point x="389" y="839"/>
      <point x="403" y="827"/>
      <point x="403" y="814" type="curve" smooth="yes"/>
      <point x="402" y="726"/>
      <point x="397" y="620"/>
      <point x="391" y="586" type="curve" smooth="yes"/>
      <point x="389" y="571"/>
      <point x="362" y="553"/>
      <point x="340" y="553" type="curve" smooth="yes"/>
      <point x="326" y="553"/>
      <point x="315" y="560"/>
      <point x="313" y="579" type="curve" smooth="yes"/>
      <point x="309" y="621"/>
      <point x="309" y="718"/>
      <point x="304" y="804" type="curve"/>
      <point x="304" y="806" type="line" smooth="yes"/>
      <point x="304" y="818"/>
      <point x="315" y="836"/>
    </contour>
    <contour>
      <point x="150" y="836" type="curve" smooth="yes"/>
      <point x="169" y="837" type="line"/>
      <point x="171" y="837" type="line" smooth="yes"/>
      <point x="192" y="837"/>
      <point x="206" y="825"/>
      <point x="206" y="812" type="curve" smooth="yes"/>
      <point x="205" y="724"/>
      <point x="204" y="616"/>
      <point x="198" y="581" type="curve" smooth="yes"/>
      <point x="196" y="566"/>
      <point x="169" y="548"/>
      <point x="147" y="548" type="curve" smooth="yes"/>
      <point x="133" y="548"/>
      <point x="122" y="555"/>
      <point x="120" y="574" type="curve" smooth="yes"/>
      <point x="116" y="615"/>
      <point x="112" y="715"/>
      <point x="107" y="802" type="curve"/>
      <point x="107" y="804" type="line" smooth="yes"/>
      <point x="107" y="816"/>
      <point x="118" y="834"/>
    </contour>
    <contour>
      <point x="347.575" y="828.016" type="line" smooth="yes"/>
      <point x="319.376" y="826.254"/>
      <point x="314" y="811.679"/>
      <point x="314" y="806" type="curve" smooth="yes"/>
      <point x="314" y="804.293" type="line"/>
      <point x="318.929" y="718.663"/>
      <point x="319.074" y="620.699"/>
      <point x="322.955" y="579.948" type="curve" smooth="yes"/>
      <point x="324.438" y="565.856"/>
      <point x="330.217" y="563"/>
      <point x="340" y="563" type="curve" smooth="yes"/>
      <point x="358.878" y="563"/>
      <point x="380.152" y="580.306"/>
      <point x="381.116" y="587.53" type="curve"/>
      <point x="386.896" y="620.289"/>
      <point x="392.005" y="726.529"/>
      <point x="393" y="814.057" type="curve"/>
      <point x="393" y="819.1"/>
      <point x="385.963" y="829"/>
      <point x="368" y="829" type="curve" smooth="yes"/>
      <point x="366.263" y="829" type="line"/>
    </contour>
    <contour>
      <point x="150.575" y="826.016" type="line" smooth="yes"/>
      <point x="122.376" y="824.254"/>
      <point x="117" y="809.679"/>
      <point x="117" y="804" type="curve" smooth="yes"/>
      <point x="117" y="802.288" type="line"/>
      <point x="121.95" y="715.891"/>
      <point x="126.036" y="615.123"/>
      <point x="129.953" y="574.971" type="curve" smooth="yes"/>
      <point x="131.44" y="560.838"/>
      <point x="137.217" y="558"/>
      <point x="147" y="558" type="curve" smooth="yes"/>
      <point x="165.877" y="558"/>
      <point x="187.155" y="575.327"/>
      <point x="188.112" y="582.506" type="curve"/>
      <point x="193.825" y="615.828"/>
      <point x="195.003" y="724.312"/>
      <point x="196" y="812.057" type="curve"/>
      <point x="196" y="817.1"/>
      <point x="188.963" y="827"/>
      <point x="171" y="827" type="curve" smooth="yes"/>
      <point x="169.263" y="827" type="line"/>
    </contour>
  </outline>
</glyph>
<glyph name="quotesingle" format="1">
  <advance width="330"/>
  <unicode hex="0027"/>
  <outline>
    <contour>
      <point x="158" y="841" type="curve" smooth="yes"/>
      <point x="179" y="842" type="line"/>
      <point x="181" y="842" type="line" smooth="yes"/>
      <point x="205" y="842"/>
      <point x="219" y="828"/>
      <point x="219" y="814" type="curve" smooth="yes"/>
      <point x="218" y="726"/>
      <point x="215" y="616"/>
      <point x="209" y="581" type="curve" smooth="yes"/>
      <point x="206" y="564"/>
      <point x="175" y="544"/>
      <point x="151" y="544" type="curve" smooth="yes"/>
      <point x="136" y="544"/>
      <point x="123" y="551"/>
      <point x="121" y="573" type="curve" smooth="yes"/>
      <point x="117" y="614"/>
      <point x="115" y="716"/>
      <point x="110" y="803" type="curve"/>
      <point x="110" y="805" type="line" smooth="yes"/>
      <point x="110" y="818"/>
      <point x="121" y="839"/>
    </contour>
    <contour>
      <point x="158.508" y="831.013" type="line" smooth="yes"/>
      <point x="125.762" y="829.243"/>
      <point x="120" y="812.142"/>
      <point x="120" y="805" type="curve" smooth="yes"/>
      <point x="120" y="803.289" type="line"/>
      <point x="124.939" y="716.766"/>
      <point x="127.058" y="613.891"/>
      <point x="130.953" y="573.971" type="curve" smooth="yes"/>
      <point x="132.497" y="556.986"/>
      <point x="139.839" y="554"/>
      <point x="151" y="554" type="curve" smooth="yes"/>
      <point x="171.998" y="554"/>
      <point x="197.522" y="573.498"/>
      <point x="199.152" y="582.738" type="curve" smooth="yes"/>
      <point x="204.811" y="615.749"/>
      <point x="208.006" y="726.561"/>
      <point x="209" y="814.057" type="curve"/>
      <point x="209" y="820.681"/>
      <point x="201.458" y="832"/>
      <point x="181" y="832" type="curve" smooth="yes"/>
      <point x="179" y="832" type="line"/>
      <point x="180" y="832.024"/>
      <point x="180.475" y="832.059"/>
      <point x="179.476" y="832.011" type="curve" smooth="yes"/>
    </contour>
  </outline>
</glyph>
<glyph name="parenleft" format="1">
  <advance width="360"/>
  <unicode hex="0028"/>
  <outline>
    <contour>
      <point x="262" y="-105" type="curve" smooth="yes"/>
      <point x="253" y="-110"/>
      <point x="244" y="-112"/>
      <point x="235" y="-112" type="curve" smooth="yes"/>
      <point x="224" y="-112"/>
      <point x="214" y="-108"/>
      <point x="207" y="-100" type="curve" smooth="yes"/>
      <point x="149" y="-35"/>
      <point x="55" y="149"/>
      <point x="55" y="415" type="curve" smooth="yes"/>
      <point x="55" y="617"/>
      <point x="116" y="769"/>
      <point x="209" y="874" type="curve" smooth="yes"/>
      <point x="219" y="885"/>
      <point x="234" y="892"/>
      <point x="249" y="892" type="curve" smooth="yes"/>
      <point x="255" y="892"/>
      <point x="260" y="891"/>
      <point x="266" y="889" type="curve" smooth="yes"/>
      <point x="277" y="885"/>
      <point x="281" y="877"/>
      <point x="281" y="869" type="curve" smooth="yes"/>
      <point x="281" y="862"/>
      <point x="278" y="854"/>
      <point x="271" y="846" type="curve" smooth="yes"/>
      <point x="194" y="759"/>
      <point x="145" y="619"/>
      <point x="145" y="425" type="curve" smooth="yes"/>
      <point x="145" y="169"/>
      <point x="227" y="-9"/>
      <point x="273" y="-60" type="curve" smooth="yes"/>
      <point x="278" y="-66"/>
      <point x="280" y="-72"/>
      <point x="280" y="-79" type="curve" smooth="yes"/>
      <point x="280" y="-89"/>
      <point x="275" y="-98"/>
    </contour>
    <contour>
      <point x="257.201" y="-96.2265" type="curve" smooth="yes"/>
      <point x="267.857" y="-90.4889"/>
      <point x="270" y="-85.068"/>
      <point x="270" y="-79" type="curve" smooth="yes"/>
      <point x="270" y="-74.1101"/>
      <point x="268.847" y="-70.6365"/>
      <point x="265.443" y="-66.5523" type="curve"/>
      <point x="217.057" y="-12.907"/>
      <point x="135" y="167.008"/>
      <point x="135" y="425" type="curve" smooth="yes"/>
      <point x="135" y="620.587"/>
      <point x="184.346" y="763.181"/>
      <point x="263.512" y="852.628" type="curve" smooth="yes"/>
      <point x="269.215" y="859.146"/>
      <point x="271" y="864.93"/>
      <point x="271" y="869" type="curve" smooth="yes"/>
      <point x="271" y="873.318"/>
      <point x="269.633" y="877.038"/>
      <point x="262.71" y="879.556" type="curve"/>
      <point x="257.609" y="881.256"/>
      <point x="253.775" y="882"/>
      <point x="249" y="882" type="curve" smooth="yes"/>
      <point x="237.073" y="882"/>
      <point x="224.495" y="876.179"/>
      <point x="216.443" y="867.321" type="curve"/>
      <point x="125.318" y="764.438"/>
      <point x="65" y="614.955"/>
      <point x="65" y="415" type="curve" smooth="yes"/>
      <point x="65" y="151.341"/>
      <point x="158.581" y="-30.717"/>
      <point x="214.461" y="-93.3421" type="curve" smooth="yes"/>
      <point x="219.482" y="-99.0795"/>
      <point x="226.395" y="-102"/>
      <point x="235" y="-102" type="curve" smooth="yes"/>
      <point x="242.53" y="-102"/>
      <point x="249.593" y="-100.453"/>
    </contour>
  </outline>
</glyph>
<glyph name="parenright" format="1">
  <advance width="360"/>
  <unicode hex="0029"/>
  <outline>
    <contour>
      <point x="98" y="885" type="curve" smooth="yes"/>
      <point x="107" y="890"/>
      <point x="116" y="892"/>
      <point x="125" y="892" type="curve" smooth="yes"/>
      <point x="136" y="892"/>
      <point x="146" y="888"/>
      <point x="153" y="880" type="curve" smooth="yes"/>
      <point x="211" y="815"/>
      <point x="305" y="631"/>
      <point x="305" y="365" type="curve" smooth="yes"/>
      <point x="305" y="163"/>
      <point x="244" y="11"/>
      <point x="151" y="-94" type="curve" smooth="yes"/>
      <point x="141" y="-105"/>
      <point x="126" y="-112"/>
      <point x="111" y="-112" type="curve" smooth="yes"/>
      <point x="105" y="-112"/>
      <point x="100" y="-111"/>
      <point x="94" y="-109" type="curve" smooth="yes"/>
      <point x="83" y="-105"/>
      <point x="79" y="-97"/>
      <point x="79" y="-89" type="curve" smooth="yes"/>
      <point x="79" y="-82"/>
      <point x="82" y="-74"/>
      <point x="89" y="-66" type="curve" smooth="yes"/>
      <point x="166" y="21"/>
      <point x="215" y="161"/>
      <point x="215" y="355" type="curve" smooth="yes"/>
      <point x="215" y="611"/>
      <point x="133" y="789"/>
      <point x="87" y="840" type="curve" smooth="yes"/>
      <point x="82" y="846"/>
      <point x="80" y="852"/>
      <point x="80" y="859" type="curve" smooth="yes"/>
      <point x="80" y="869"/>
      <point x="85" y="878"/>
    </contour>
    <contour>
      <point x="102.799" y="876.226" type="curve" smooth="yes"/>
      <point x="92.1434" y="870.489"/>
      <point x="90" y="865.068"/>
      <point x="90" y="859" type="curve" smooth="yes"/>
      <point x="90" y="854.11"/>
      <point x="91.1534" y="850.636"/>
      <point x="94.5569" y="846.552" type="curve"/>
      <point x="142.943" y="792.907"/>
      <point x="225" y="612.992"/>
      <point x="225" y="355" type="curve" smooth="yes"/>
      <point x="225" y="159.413"/>
      <point x="175.654" y="16.8189"/>
      <point x="96.4883" y="-72.6276" type="curve" smooth="yes"/>
      <point x="90.785" y="-79.1457"/>
      <point x="89" y="-84.9299"/>
      <point x="89" y="-89" type="curve" smooth="yes"/>
      <point x="89" y="-93.3176"/>
      <point x="90.3667" y="-97.0382"/>
      <point x="97.2905" y="-99.5559" type="curve"/>
      <point x="102.391" y="-101.256"/>
      <point x="106.225" y="-102"/>
      <point x="111" y="-102" type="curve" smooth="yes"/>
      <point x="122.927" y="-102"/>
      <point x="135.505" y="-96.1787"/>
      <point x="143.557" y="-87.3212" type="curve"/>
      <point x="234.682" y="15.5618"/>
      <point x="295" y="165.045"/>
      <point x="295" y="365" type="curve" smooth="yes"/>
      <point x="295" y="628.659"/>
      <point x="201.419" y="810.717"/>
      <point x="145.539" y="873.342" type="curve" smooth="yes"/>
      <point x="140.518" y="879.079"/>
      <point x="133.605" y="882"/>
      <point x="125" y="882" type="curve" smooth="yes"/>
      <point x="117.47" y="882"/>
      <point x="110.407" y="880.453"/>
    </contour>
  </outline>
</glyph>
<glyph name="asterisk" format="1">
  <advance width="600"/>
  <unicode hex="002A"/>
  <outline>
    <contour>
      <point x="293" y="848" type="curve" smooth="yes"/>
      <point x="296" y="848"/>
      <point x="299" y="849"/>
      <point x="301" y="849" type="curve" smooth="yes"/>
      <point x="319" y="849"/>
      <point x="333" y="839"/>
      <point x="334" y="826" type="curve" smooth="yes"/>
      <point x="335" y="809"/>
      <point x="336" y="792"/>
      <point x="336" y="775" type="curve" smooth="yes"/>
      <point x="336" y="739"/>
      <point x="334" y="702"/>
      <point x="333" y="664" type="curve"/>
      <point x="372" y="690"/>
      <point x="410" y="718"/>
      <point x="446" y="743" type="curve" smooth="yes"/>
      <point x="455" y="749"/>
      <point x="466" y="752"/>
      <point x="477" y="752" type="curve" smooth="yes"/>
      <point x="487" y="752"/>
      <point x="495" y="750"/>
      <point x="502" y="745" type="curve" smooth="yes"/>
      <point x="508" y="741"/>
      <point x="511" y="735"/>
      <point x="511" y="729" type="curve" smooth="yes"/>
      <point x="511" y="721"/>
      <point x="506" y="712"/>
      <point x="496" y="705" type="curve" smooth="yes"/>
      <point x="454" y="676"/>
      <point x="406" y="650"/>
      <point x="358" y="623" type="curve"/>
      <point x="408" y="597"/>
      <point x="458" y="573"/>
      <point x="503" y="547" type="curve" smooth="yes"/>
      <point x="511" y="542"/>
      <point x="516" y="535"/>
      <point x="516" y="527" type="curve" smooth="yes"/>
      <point x="516" y="520"/>
      <point x="512" y="513"/>
      <point x="505" y="507" type="curve" smooth="yes"/>
      <point x="496" y="499"/>
      <point x="484" y="495"/>
      <point x="472" y="495" type="curve" smooth="yes"/>
      <point x="464" y="495"/>
      <point x="456" y="497"/>
      <point x="449" y="501" type="curve" smooth="yes"/>
      <point x="411" y="523"/>
      <point x="374" y="547"/>
      <point x="335" y="571" type="curve"/>
      <point x="339" y="520"/>
      <point x="345" y="471"/>
      <point x="345" y="424" type="curve" smooth="yes"/>
      <point x="345" y="409"/>
      <point x="327" y="394"/>
      <point x="305" y="392" type="curve" smooth="yes"/>
      <point x="300" y="392" type="line" smooth="yes"/>
      <point x="280" y="392"/>
      <point x="265" y="402"/>
      <point x="265" y="416" type="curve" smooth="yes"/>
      <point x="265" y="466"/>
      <point x="270" y="518"/>
      <point x="272" y="572" type="curve"/>
      <point x="230" y="545"/>
      <point x="191" y="518"/>
      <point x="151" y="495" type="curve" smooth="yes"/>
      <point x="142" y="490"/>
      <point x="133" y="488"/>
      <point x="123" y="488" type="curve" smooth="yes"/>
      <point x="112" y="488"/>
      <point x="102" y="491"/>
      <point x="96" y="497" type="curve" smooth="yes"/>
      <point x="92" y="501"/>
      <point x="89" y="507"/>
      <point x="89" y="512" type="curve" smooth="yes"/>
      <point x="89" y="521"/>
      <point x="96" y="531"/>
      <point x="107" y="537" type="curve" smooth="yes"/>
      <point x="153" y="564"/>
      <point x="206" y="589"/>
      <point x="257" y="617" type="curve"/>
      <point x="204" y="645"/>
      <point x="148" y="667"/>
      <point x="99" y="691" type="curve" smooth="yes"/>
      <point x="89" y="696"/>
      <point x="84" y="703"/>
      <point x="84" y="712" type="curve" smooth="yes"/>
      <point x="84" y="718"/>
      <point x="87" y="725"/>
      <point x="93" y="731" type="curve" smooth="yes"/>
      <point x="102" y="740"/>
      <point x="116" y="745"/>
      <point x="130" y="745" type="curve" smooth="yes"/>
      <point x="137" y="745"/>
      <point x="143" y="744"/>
      <point x="149" y="741" type="curve" smooth="yes"/>
      <point x="190" y="722"/>
      <point x="229" y="698"/>
      <point x="270" y="673" type="curve"/>
      <point x="266" y="722"/>
      <point x="260" y="769"/>
      <point x="256" y="814" type="curve"/>
      <point x="256" y="815" type="line" smooth="yes"/>
      <point x="256" y="830"/>
      <point x="272" y="845"/>
    </contour>
    <contour>
      <point x="293.616" y="837.979" type="curve" smooth="yes"/>
      <point x="277.067" y="835.275"/>
      <point x="266" y="823.112"/>
      <point x="266" y="815" type="curve" smooth="yes"/>
      <point x="266" y="814.443" type="line"/>
      <point x="269.91" y="770.741"/>
      <point x="275.967" y="722.81"/>
      <point x="279.967" y="673.814" type="curve" smooth="yes"/>
      <point x="281.565" y="654.236" type="line"/>
      <point x="264.794" y="664.462" type="line" smooth="yes"/>
      <point x="223.683" y="689.529"/>
      <point x="185.251" y="713.179"/>
      <point x="144.661" y="731.989" type="curve"/>
      <point x="140.038" y="734.301"/>
      <point x="136.136" y="735"/>
      <point x="130" y="735" type="curve" smooth="yes"/>
      <point x="118.25" y="735"/>
      <point x="106.753" y="730.611"/>
      <point x="100.071" y="723.929" type="curve" smooth="yes"/>
      <point x="95.5858" y="719.444"/>
      <point x="94" y="714.717"/>
      <point x="94" y="712" type="curve" smooth="yes"/>
      <point x="94" y="707.401"/>
      <point x="95.6758" y="703.842"/>
      <point x="103.472" y="699.944" type="curve" smooth="yes"/>
      <point x="151.779" y="676.284"/>
      <point x="208.072" y="654.158"/>
      <point x="261.671" y="625.842" type="curve" smooth="yes"/>
      <point x="278.087" y="617.169" type="line"/>
      <point x="261.813" y="608.234" type="line" smooth="yes"/>
      <point x="210.369" y="579.991"/>
      <point x="157.687" y="555.156"/>
      <point x="111.926" y="528.296" type="curve"/>
      <point x="102.861" y="523.351"/>
      <point x="99" y="515.957"/>
      <point x="99" y="512" type="curve" smooth="yes"/>
      <point x="99" y="510.702"/>
      <point x="100.632" y="506.51"/>
      <point x="103.071" y="504.071" type="curve" smooth="yes"/>
      <point x="106.344" y="500.798"/>
      <point x="113.606" y="498"/>
      <point x="123" y="498" type="curve" smooth="yes"/>
      <point x="131.614" y="498"/>
      <point x="138.752" y="499.635"/>
      <point x="146.079" y="503.706" type="curve"/>
      <point x="185.434" y="526.335"/>
      <point x="224.448" y="553.319"/>
      <point x="266.592" y="580.412" type="curve" smooth="yes"/>
      <point x="282.702" y="590.768" type="line"/>
      <point x="281.993" y="571.63" type="line" smooth="yes"/>
      <point x="279.979" y="517.251"/>
      <point x="275" y="465.335"/>
      <point x="275" y="416" type="curve" smooth="yes"/>
      <point x="275" y="410.492"/>
      <point x="282.132" y="402"/>
      <point x="300" y="402" type="curve" smooth="yes"/>
      <point x="304.543" y="402" type="line"/>
      <point x="322.938" y="404.032"/>
      <point x="335" y="416.645"/>
      <point x="335" y="424" type="curve" smooth="yes"/>
      <point x="335" y="470.152"/>
      <point x="329.053" y="518.937"/>
      <point x="325.031" y="570.218" type="curve" smooth="yes"/>
      <point x="323.493" y="589.823" type="line"/>
      <point x="340.241" y="579.517" type="line" smooth="yes"/>
      <point x="379.373" y="555.436"/>
      <point x="416.305" y="531.484"/>
      <point x="454.01" y="509.654" type="curve" smooth="yes"/>
      <point x="459.302" y="506.63"/>
      <point x="465.681" y="505"/>
      <point x="472" y="505" type="curve" smooth="yes"/>
      <point x="481.859" y="505"/>
      <point x="491.364" y="508.258"/>
      <point x="498.424" y="514.534" type="curve"/>
      <point x="504.199" y="519.484"/>
      <point x="506" y="523.935"/>
      <point x="506" y="527" type="curve" smooth="yes"/>
      <point x="506" y="530.454"/>
      <point x="503.76" y="534.733"/>
      <point x="497.847" y="538.428" type="curve"/>
      <point x="453.663" y="563.956"/>
      <point x="403.467" y="588.086"/>
      <point x="353.386" y="614.128" type="curve" smooth="yes"/>
      <point x="336.989" y="622.655" type="line"/>
      <point x="353.097" y="631.716" type="line" smooth="yes"/>
      <point x="401.187" y="658.766"/>
      <point x="448.944" y="684.661"/>
      <point x="490.318" y="713.229" type="curve" smooth="yes"/>
      <point x="498.325" y="718.834"/>
      <point x="501" y="725.232"/>
      <point x="501" y="729" type="curve" smooth="yes"/>
      <point x="501" y="731.629"/>
      <point x="499.946" y="734.351"/>
      <point x="496.319" y="736.769" type="curve"/>
      <point x="491.083" y="740.509"/>
      <point x="485.754" y="742"/>
      <point x="477" y="742" type="curve" smooth="yes"/>
      <point x="467.826" y="742"/>
      <point x="458.614" y="739.391"/>
      <point x="451.626" y="734.732" type="curve"/>
      <point x="415.966" y="709.969"/>
      <point x="377.755" y="681.818"/>
      <point x="338.547" y="655.679" type="curve" smooth="yes"/>
      <point x="322.496" y="644.979" type="line"/>
      <point x="323.003" y="664.263" type="line" smooth="yes"/>
      <point x="324.008" y="702.443"/>
      <point x="326" y="739.37"/>
      <point x="326" y="775" type="curve" smooth="yes"/>
      <point x="326" y="791.547"/>
      <point x="325.01" y="808.533"/>
      <point x="324.023" y="825.323" type="curve"/>
      <point x="323.611" y="830.674"/>
      <point x="317.05" y="838.645"/>
      <point x="301.151" y="839.006" type="curve"/>
      <point x="300.241" y="838.866"/>
      <point x="299.689" y="838.424"/>
    </contour>
  </outline>
</glyph>
<glyph name="plus" format="1">
  <advance width="600"/>
  <unicode hex="002B"/>
  <outline>
    <contour>
      <point x="81" y="349" type="curve" smooth="yes"/>
      <point x="86" y="367"/>
      <point x="107" y="380"/>
      <point x="130" y="380" type="curve" smooth="yes"/>
      <point x="135" y="380" type="line" smooth="yes"/>
      <point x="170" y="377"/>
      <point x="211" y="374"/>
      <point x="257" y="373" type="curve"/>
      <point x="256" y="417"/>
      <point x="253" y="457"/>
      <point x="250" y="494" type="curve" smooth="yes"/>
      <point x="250" y="497" type="line" smooth="yes"/>
      <point x="250" y="515"/>
      <point x="269" y="532"/>
      <point x="292" y="535" type="curve" smooth="yes"/>
      <point x="299" y="535" type="line" smooth="yes"/>
      <point x="320" y="535"/>
      <point x="338" y="523"/>
      <point x="340" y="506" type="curve" smooth="yes"/>
      <point x="344" y="465"/>
      <point x="346" y="420"/>
      <point x="347" y="372" type="curve"/>
      <point x="388" y="372"/>
      <point x="432" y="373"/>
      <point x="478" y="375" type="curve" smooth="yes"/>
      <point x="480" y="375" type="line" smooth="yes"/>
      <point x="502" y="375"/>
      <point x="520" y="361"/>
      <point x="520" y="343" type="curve" smooth="yes"/>
      <point x="520" y="342" type="line" smooth="yes"/>
      <point x="519" y="323"/>
      <point x="496" y="306"/>
      <point x="472" y="305" type="curve" smooth="yes"/>
      <point x="429" y="303"/>
      <point x="388" y="302"/>
      <point x="349" y="302" type="curve"/>
      <point x="350" y="264"/>
      <point x="350" y="225"/>
      <point x="350" y="184" type="curve" smooth="yes"/>
      <point x="350" y="165"/>
      <point x="329" y="147"/>
      <point x="305" y="145" type="curve" smooth="yes"/>
      <point x="300" y="145" type="line" smooth="yes"/>
      <point x="278" y="145"/>
      <point x="260" y="158"/>
      <point x="260" y="176" type="curve" smooth="yes"/>
      <point x="260" y="220"/>
      <point x="260" y="263"/>
      <point x="259" y="303" type="curve"/>
      <point x="205" y="304"/>
      <point x="157" y="306"/>
      <point x="115" y="310" type="curve" smooth="yes"/>
      <point x="94" y="312"/>
      <point x="80" y="326"/>
      <point x="80" y="342" type="curve" smooth="yes"/>
      <point x="80" y="344"/>
      <point x="80" y="347"/>
    </contour>
    <contour>
      <point x="90.6352" y="346.324" type="curve" smooth="yes"/>
      <point x="90.3765" y="345.392" type="line"/>
      <point x="89.9293" y="344.498"/>
      <point x="90.5681" y="345.776"/>
      <point x="90.1209" y="344.881" type="curve"/>
      <point x="90.1202" y="344.876"/>
      <point x="90" y="343.321"/>
      <point x="90" y="342" type="curve" smooth="yes"/>
      <point x="90" y="332.395"/>
      <point x="98.6784" y="321.6"/>
      <point x="115.948" y="319.955" type="curve" smooth="yes"/>
      <point x="157.547" y="315.993"/>
      <point x="205.323" y="313.996"/>
      <point x="259.185" y="312.998" type="curve" smooth="yes"/>
      <point x="268.758" y="312.821" type="line"/>
      <point x="268.997" y="303.25" type="line" smooth="yes"/>
      <point x="270.001" y="263.072"/>
      <point x="270" y="220.001"/>
      <point x="270" y="176" type="curve" smooth="yes"/>
      <point x="270" y="165.716"/>
      <point x="281.105" y="155"/>
      <point x="300" y="155" type="curve" smooth="yes"/>
      <point x="304.583" y="155" type="line"/>
      <point x="324.553" y="157.039"/>
      <point x="340" y="172.07"/>
      <point x="340" y="184" type="curve" smooth="yes"/>
      <point x="340" y="225"/>
      <point x="339.999" y="263.917"/>
      <point x="339.003" y="301.737" type="curve" smooth="yes"/>
      <point x="338.733" y="312" type="line"/>
      <point x="349" y="312" type="line" smooth="yes"/>
      <point x="387.829" y="312"/>
      <point x="428.676" y="312.996"/>
      <point x="471.535" y="314.989" type="curve" smooth="yes"/>
      <point x="492.176" y="315.849"/>
      <point x="509.007" y="330.513"/>
      <point x="510" y="342.275" type="curve"/>
      <point x="510" y="343" type="line" smooth="yes"/>
      <point x="510" y="353.558"/>
      <point x="498.478" y="365"/>
      <point x="480" y="365" type="curve" smooth="yes"/>
      <point x="478.217" y="365" type="line"/>
      <point x="432.59" y="363.016"/>
      <point x="388.019" y="362"/>
      <point x="347" y="362" type="curve" smooth="yes"/>
      <point x="337.206" y="362" type="line"/>
      <point x="337.002" y="371.792" type="line" smooth="yes"/>
      <point x="336.007" y="419.578"/>
      <point x="333.997" y="464.542"/>
      <point x="330.057" y="504.93" type="curve"/>
      <point x="328.897" y="514.788"/>
      <point x="316.915" y="525"/>
      <point x="299" y="525" type="curve" smooth="yes"/>
      <point x="292.678" y="525" type="line"/>
      <point x="273.908" y="522.203"/>
      <point x="260" y="508.136"/>
      <point x="260" y="497" type="curve" smooth="yes"/>
      <point x="260" y="494.405" type="line"/>
      <point x="262.923" y="458.299"/>
      <point x="265.996" y="417.277"/>
      <point x="266.997" y="373.227" type="curve" smooth="yes"/>
      <point x="267.235" y="362.775" type="line"/>
      <point x="256.783" y="363.002" type="line" smooth="yes"/>
      <point x="210.567" y="364.007"/>
      <point x="170.504" y="366.929"/>
      <point x="134.572" y="370" type="curve"/>
      <point x="130" y="370" type="line" smooth="yes"/>
      <point x="110.168" y="370"/>
      <point x="94.0241" y="358.524"/>
    </contour>
  </outline>
</glyph>
<glyph name="slash" format="1">
  <advance width="480"/>
  <unicode hex="002F"/>
  <outline>
    <contour>
      <point x="409" y="828" type="line" smooth="yes"/>
      <point x="427" y="827"/>
      <point x="439" y="817"/>
      <point x="439" y="804" type="curve" smooth="yes"/>
      <point x="439" y="802"/>
      <point x="439" y="799"/>
      <point x="438" y="797" type="curve" smooth="yes"/>
      <point x="347" y="520"/>
      <point x="244" y="259"/>
      <point x="117" y="-6" type="curve" smooth="yes"/>
      <point x="111" y="-19"/>
      <point x="92" y="-29"/>
      <point x="74" y="-29" type="curve" smooth="yes"/>
      <point x="72" y="-29"/>
      <point x="69" y="-28"/>
      <point x="67" y="-28" type="curve" smooth="yes"/>
      <point x="51" y="-26"/>
      <point x="41" y="-15"/>
      <point x="41" y="-3" type="curve" smooth="yes"/>
      <point x="41" y="0"/>
      <point x="42" y="3"/>
      <point x="43" y="6" type="curve" smooth="yes"/>
      <point x="168" y="269"/>
      <point x="271" y="528"/>
      <point x="362" y="803" type="curve" smooth="yes"/>
      <point x="367" y="818"/>
      <point x="386" y="828"/>
      <point x="406" y="828" type="curve" smooth="yes"/>
    </contour>
    <contour>
      <point x="408.772" y="818" type="curve"/>
      <point x="406" y="818" type="line" smooth="yes"/>
      <point x="388.572" y="818"/>
      <point x="374.502" y="808.883"/>
      <point x="371.487" y="799.838" type="curve" smooth="yes"/>
      <point x="280.407" y="524.596"/>
      <point x="177.676" y="266.161"/>
      <point x="52.2929" y="2.25678" type="curve"/>
      <point x="51.7018" y="0.461152"/>
      <point x="51" y="-2.52309"/>
      <point x="51" y="-3" type="curve" smooth="yes"/>
      <point x="51" y="-8.8702"/>
      <point x="56.3029" y="-16.2629"/>
      <point x="66.9451" y="-17.8905" type="curve"/>
      <point x="70.8594" y="-18.3175"/>
      <point x="72.1264" y="-18.6657"/>
      <point x="74.1307" y="-19.0054" type="curve"/>
      <point x="88.9614" y="-18.7028"/>
      <point x="104.116" y="-10.052"/>
      <point x="107.951" y="-1.7436" type="curve"/>
      <point x="234.827" y="262.999"/>
      <point x="337.602" y="523.433"/>
      <point x="428.5" y="800.121" type="curve" smooth="yes"/>
      <point x="428.728" y="800.817" type="line"/>
      <point x="429.175" y="801.711"/>
      <point x="428.432" y="800.224"/>
      <point x="428.879" y="801.119" type="curve"/>
      <point x="428.88" y="801.124"/>
      <point x="429" y="802.679"/>
      <point x="429" y="804" type="curve" smooth="yes"/>
      <point x="429" y="809.643"/>
      <point x="424.306" y="816.799"/>
    </contour>
  </outline>
</glyph>
<glyph name="zero" format="1">
  <advance width="720"/>
  <unicode hex="0030"/>
  <outline>
    <contour>
      <point x="567" y="685" type="curve"/>
      <point x="629" y="620"/>
      <point x="654" y="516"/>
      <point x="654" y="416" type="curve" smooth="yes"/>
      <point x="654" y="162"/>
      <point x="556" y="-4"/>
      <point x="386" y="-22" type="curve" smooth="yes"/>
      <point x="376" y="-23"/>
      <point x="366" y="-24"/>
      <point x="357" y="-24" type="curve" smooth="yes"/>
      <point x="185" y="-24"/>
      <point x="66" y="145"/>
      <point x="66" y="384" type="curve" smooth="yes"/>
      <point x="66" y="599"/>
      <point x="136" y="737"/>
      <point x="257" y="795" type="curve" smooth="yes"/>
      <point x="294" y="813"/>
      <point x="332" y="821"/>
      <point x="368" y="821" type="curve" smooth="yes"/>
      <point x="449" y="821"/>
      <point x="522" y="781"/>
      <point x="568" y="723" type="curve" smooth="yes"/>
      <point x="572" y="718"/>
      <point x="574" y="711"/>
      <point x="574" y="705" type="curve" smooth="yes"/>
      <point x="574" y="698"/>
      <point x="572" y="691"/>
    </contour>
    <contour>
      <point x="464" y="686" type="curve"/>
      <point x="428" y="727"/>
      <point x="389" y="742"/>
      <point x="355" y="742" type="curve" smooth="yes"/>
      <point x="336" y="742"/>
      <point x="319" y="738"/>
      <point x="304" y="730" type="curve" smooth="yes"/>
      <point x="248" y="701"/>
      <point x="174" y="600"/>
      <point x="174" y="396" type="curve" smooth="yes"/>
      <point x="174" y="153"/>
      <point x="308" y="56"/>
      <point x="379" y="56" type="curve" smooth="yes"/>
      <point x="386" y="56" type="line"/>
      <point x="438" y="62"/>
      <point x="546" y="143"/>
      <point x="546" y="404" type="curve" smooth="yes"/>
      <point x="546" y="501"/>
      <point x="514" y="601"/>
      <point x="466" y="642" type="curve" smooth="yes"/>
      <point x="459" y="648"/>
      <point x="456" y="656"/>
      <point x="456" y="664" type="curve" smooth="yes"/>
      <point x="456" y="671"/>
      <point x="458" y="679"/>
    </contour>
    <contour>
      <point x="559.764" y="678.098" type="curve" smooth="yes"/>
      <point x="553.609" y="684.551" type="line"/>
      <point x="559.318" y="691.402" type="line" smooth="yes"/>
      <point x="562.648" y="695.398"/>
      <point x="564" y="699.9"/>
      <point x="564" y="705" type="curve" smooth="yes"/>
      <point x="564" y="708.933"/>
      <point x="562.418" y="713.969"/>
      <point x="560.191" y="716.753" type="curve" smooth="yes"/>
      <point x="515.897" y="772.602"/>
      <point x="445.677" y="811"/>
      <point x="368" y="811" type="curve" smooth="yes"/>
      <point x="333.48" y="811"/>
      <point x="296.995" y="803.336"/>
      <point x="261.375" y="786.008" type="curve" smooth="yes"/>
      <point x="145.101" y="730.273"/>
      <point x="76" y="597.154"/>
      <point x="76" y="384" type="curve" smooth="yes"/>
      <point x="76" y="147.438"/>
      <point x="193.044" y="-14"/>
      <point x="357" y="-14" type="curve" smooth="yes"/>
      <point x="365.271" y="-14"/>
      <point x="375.012" y="-13.049"/>
      <point x="385.005" y="-12.0496" type="curve" smooth="yes"/>
      <point x="547.244" y="5.12858"/>
      <point x="644" y="163.699"/>
      <point x="644" y="416" type="curve" smooth="yes"/>
      <point x="644" y="514.589"/>
      <point x="619.047" y="615.946"/>
    </contour>
    <contour>
      <point x="471.514" y="692.598" type="curve" smooth="yes"/>
      <point x="477.238" y="686.079" type="line"/>
      <point x="471.593" y="679.492" type="line" smooth="yes"/>
      <point x="467.394" y="674.594"/>
      <point x="466" y="669.131"/>
      <point x="466" y="664" type="curve" smooth="yes"/>
      <point x="466" y="658.511"/>
      <point x="467.887" y="653.553"/>
      <point x="472.508" y="649.593" type="curve" smooth="yes"/>
      <point x="524.299" y="605.354"/>
      <point x="556" y="502.682"/>
      <point x="556" y="404" type="curve" smooth="yes"/>
      <point x="556" y="140.982"/>
      <point x="446.988" y="52.9707"/>
      <point x="387.146" y="46.0659" type="curve" smooth="yes"/>
      <point x="386.575" y="46" type="line"/>
      <point x="379" y="46" type="line" smooth="yes"/>
      <point x="300.059" y="46"/>
      <point x="164" y="149.827"/>
      <point x="164" y="396" type="curve" smooth="yes"/>
      <point x="164" y="602.089"/>
      <point x="238.601" y="707.394"/>
      <point x="299.348" y="738.852" type="curve"/>
      <point x="315.808" y="747.631"/>
      <point x="334.621" y="752"/>
      <point x="355" y="752" type="curve" smooth="yes"/>
      <point x="392.07" y="752"/>
      <point x="433.908" y="735.427"/>
    </contour>
  </outline>
</glyph>
<glyph name="one" format="1">
  <advance width="720"/>
  <unicode hex="0031"/>
  <outline>
    <contour>
      <point x="130" y="610" type="curve" smooth="yes"/>
      <point x="127" y="614"/>
      <point x="126" y="619"/>
      <point x="126" y="624" type="curve" smooth="yes"/>
      <point x="126" y="639"/>
      <point x="139" y="656"/>
      <point x="159" y="664" type="curve" smooth="yes"/>
      <point x="239" y="696"/>
      <point x="321" y="733"/>
      <point x="384" y="791" type="curve"/>
      <point x="384" y="791"/>
      <point x="420" y="812"/>
      <point x="448" y="812" type="curve" smooth="yes"/>
      <point x="465" y="812"/>
      <point x="479" y="804"/>
      <point x="479" y="778" type="curve" smooth="yes"/>
      <point x="479" y="775" type="line"/>
      <point x="474" y="635"/>
      <point x="472" y="534"/>
      <point x="472" y="440" type="curve" smooth="yes"/>
      <point x="472" y="331"/>
      <point x="475" y="232"/>
      <point x="479" y="97" type="curve" smooth="yes"/>
      <point x="480" y="74"/>
      <point x="547" y="84"/>
      <point x="649" y="68" type="curve" smooth="yes"/>
      <point x="656" y="67"/>
      <point x="687" y="41"/>
      <point x="687" y="19" type="curve" smooth="yes"/>
      <point x="687" y="4"/>
      <point x="672" y="-9"/>
      <point x="623" y="-9" type="curve" smooth="yes"/>
      <point x="621" y="-9" type="line"/>
      <point x="549" y="-9" type="line" smooth="yes"/>
      <point x="421" y="-9"/>
      <point x="322" y="-13"/>
      <point x="175" y="-19" type="curve"/>
      <point x="172" y="-19" type="line" smooth="yes"/>
      <point x="145" y="-19"/>
      <point x="126" y="-5"/>
      <point x="126" y="14" type="curve" smooth="yes"/>
      <point x="126" y="18" type="line" smooth="yes"/>
      <point x="129" y="39"/>
      <point x="155" y="58"/>
      <point x="185" y="59" type="curve" smooth="yes"/>
      <point x="255" y="62"/>
      <point x="314" y="65"/>
      <point x="373" y="67" type="curve"/>
      <point x="372" y="71"/>
      <point x="371" y="77"/>
      <point x="371" y="83" type="curve" smooth="yes"/>
      <point x="367" y="219"/>
      <point x="364" y="318"/>
      <point x="364" y="429" type="curve" smooth="yes"/>
      <point x="364" y="502"/>
      <point x="365" y="579"/>
      <point x="368" y="676" type="curve"/>
      <point x="312" y="642"/>
      <point x="253" y="617"/>
      <point x="201" y="596" type="curve" smooth="yes"/>
      <point x="192" y="592"/>
      <point x="183" y="591"/>
      <point x="174" y="591" type="curve" smooth="yes"/>
      <point x="155" y="591"/>
      <point x="137" y="598"/>
    </contour>
    <contour>
      <point x="138" y="616" type="curve" smooth="yes"/>
      <point x="138.347" y="615.538" type="line"/>
      <point x="138.638" y="615.039" type="line" smooth="yes"/>
      <point x="142.824" y="607.862"/>
      <point x="156.845" y="601"/>
      <point x="174" y="601" type="curve" smooth="yes"/>
      <point x="182.371" y="601"/>
      <point x="189.491" y="601.828"/>
      <point x="197.096" y="605.208" type="curve"/>
      <point x="249.333" y="626.304"/>
      <point x="307.519" y="650.978"/>
      <point x="362.81" y="684.548" type="curve" smooth="yes"/>
      <point x="378.565" y="694.113" type="line"/>
      <point x="377.995" y="675.691" type="line" smooth="yes"/>
      <point x="374.998" y="578.784"/>
      <point x="374" y="501.908"/>
      <point x="374" y="429" type="curve" smooth="yes"/>
      <point x="374" y="318.092"/>
      <point x="376.99" y="219.504"/>
      <point x="381" y="83.147" type="curve"/>
      <point x="381" y="77.9194"/>
      <point x="381.864" y="72.7761"/>
      <point x="382.701" y="69.4254" type="curve" smooth="yes"/>
      <point x="385.702" y="57.4248" type="line"/>
      <point x="373.339" y="57.0057" type="line" smooth="yes"/>
      <point x="314.455" y="55.0097"/>
      <point x="255.475" y="52.0112"/>
      <point x="185.428" y="49.0092" type="curve" smooth="yes"/>
      <point x="159.063" y="48.1303"/>
      <point x="138.833" y="31.7709"/>
      <point x="136" y="17.2321" type="curve"/>
      <point x="136" y="14" type="line" smooth="yes"/>
      <point x="136" y="3.05613"/>
      <point x="147.608" y="-9"/>
      <point x="172" y="-9" type="curve" smooth="yes"/>
      <point x="174.796" y="-9" type="line"/>
      <point x="321.305" y="-3.02004"/>
      <point x="420.913" y="1"/>
      <point x="549" y="1" type="curve" smooth="yes"/>
      <point x="623" y="1" type="line" smooth="yes"/>
      <point x="672.223" y="1"/>
      <point x="677" y="13.6711"/>
      <point x="677" y="19" type="curve" smooth="yes"/>
      <point x="677" y="32.0812"/>
      <point x="654.697" y="54.4857"/>
      <point x="646.96" y="58.1984" type="curve"/>
      <point x="555.188" y="72.3944"/>
      <point x="470.651" y="58.8201"/>
      <point x="469.006" y="96.6347" type="curve"/>
      <point x="465.002" y="231.783"/>
      <point x="462" y="330.762"/>
      <point x="462" y="440" type="curve" smooth="yes"/>
      <point x="462" y="534.027"/>
      <point x="464.012" y="635.522"/>
      <point x="469" y="775.179" type="curve"/>
      <point x="469" y="778" type="line" smooth="yes"/>
      <point x="469" y="798.749"/>
      <point x="460.82" y="802"/>
      <point x="448" y="802" type="curve" smooth="yes"/>
      <point x="426.727" y="802"/>
      <point x="395.852" y="786.175"/>
      <point x="389.929" y="782.867" type="curve"/>
      <point x="325.442" y="724.095"/>
      <point x="242.683" y="686.703"/>
      <point x="162.714" y="654.715" type="curve" smooth="yes"/>
      <point x="145.417" y="647.797"/>
      <point x="136" y="633.434"/>
      <point x="136" y="624" type="curve" smooth="yes"/>
      <point x="136" y="620.234"/>
      <point x="136.807" y="617.59"/>
    </contour>
  </outline>
</glyph>
<glyph name="two" format="1">
  <advance width="720"/>
  <unicode hex="0032"/>
  <outline>
    <contour>
      <point x="111" y="622" type="curve" smooth="yes"/>
      <point x="92" y="626"/>
      <point x="81" y="639"/>
      <point x="81" y="654" type="curve" smooth="yes"/>
      <point x="81" y="660"/>
      <point x="82" y="666"/>
      <point x="86" y="672" type="curve" smooth="yes"/>
      <point x="137" y="754"/>
      <point x="235" y="806"/>
      <point x="335" y="817" type="curve" smooth="yes"/>
      <point x="348" y="818"/>
      <point x="360" y="819"/>
      <point x="373" y="819" type="curve" smooth="yes"/>
      <point x="502" y="819"/>
      <point x="609" y="745"/>
      <point x="609" y="606" type="curve" smooth="yes"/>
      <point x="609" y="355"/>
      <point x="193" y="261"/>
      <point x="180" y="81" type="curve"/>
      <point x="206" y="74"/>
      <point x="262" y="71"/>
      <point x="328" y="71" type="curve" smooth="yes"/>
      <point x="418" y="71"/>
      <point x="526" y="76"/>
      <point x="595" y="84" type="curve"/>
      <point x="603" y="84" type="line" smooth="yes"/>
      <point x="629" y="84"/>
      <point x="649" y="70"/>
      <point x="649" y="51" type="curve" smooth="yes"/>
      <point x="649" y="30"/>
      <point x="625" y="9"/>
      <point x="595" y="6" type="curve" smooth="yes"/>
      <point x="524" y="-1"/>
      <point x="408" y="-13"/>
      <point x="303" y="-13" type="curve" smooth="yes"/>
      <point x="207" y="-13"/>
      <point x="120" y="-3"/>
      <point x="86" y="28" type="curve" smooth="yes"/>
      <point x="78" y="36"/>
      <point x="71" y="46"/>
      <point x="71" y="59" type="curve" smooth="yes"/>
      <point x="71" y="320"/>
      <point x="501" y="406"/>
      <point x="501" y="594" type="curve" smooth="yes"/>
      <point x="501" y="703"/>
      <point x="426" y="740"/>
      <point x="356" y="740" type="curve" smooth="yes"/>
      <point x="349" y="740"/>
      <point x="342" y="740"/>
      <point x="335" y="739" type="curve" smooth="yes"/>
      <point x="279" y="733"/>
      <point x="219" y="703"/>
      <point x="184" y="648" type="curve" smooth="yes"/>
      <point x="173" y="632"/>
      <point x="149" y="620"/>
      <point x="126" y="620" type="curve" smooth="yes"/>
      <point x="121" y="620"/>
      <point x="116" y="621"/>
    </contour>
    <contour>
      <point x="113.011" y="631.796" type="curve" smooth="yes"/>
      <point x="118.022" y="630.794"/>
      <point x="122.332" y="630"/>
      <point x="126" y="630" type="curve" smooth="yes"/>
      <point x="145.855" y="630"/>
      <point x="167.146" y="641.137"/>
      <point x="175.659" y="653.519" type="curve"/>
      <point x="212.383" y="711.229"/>
      <point x="275.548" y="742.687"/>
      <point x="333.76" y="748.924" type="curve"/>
      <point x="341.286" y="749.999"/>
      <point x="349.117" y="750"/>
      <point x="356" y="750" type="curve" smooth="yes"/>
      <point x="429.563" y="750"/>
      <point x="511" y="709.409"/>
      <point x="511" y="594" type="curve" smooth="yes"/>
      <point x="511" y="392.925"/>
      <point x="81" y="309.994"/>
      <point x="81" y="59" type="curve" smooth="yes"/>
      <point x="81" y="49.9387"/>
      <point x="85.1522" y="43.1551"/>
      <point x="92.8871" y="35.2525" type="curve"/>
      <point x="122.547" y="8.73025"/>
      <point x="206.834" y="-3"/>
      <point x="303" y="-3" type="curve" smooth="yes"/>
      <point x="407.28" y="-3"/>
      <point x="523.013" y="8.95117"/>
      <point x="594.019" y="15.9518" type="curve" smooth="yes"/>
      <point x="620.979" y="18.6478"/>
      <point x="639" y="37.5639"/>
      <point x="639" y="51" type="curve" smooth="yes"/>
      <point x="639" y="61.7524"/>
      <point x="626.456" y="74"/>
      <point x="603" y="74" type="curve" smooth="yes"/>
      <point x="595.576" y="74" type="line"/>
      <point x="527.222" y="66.1304"/>
      <point x="418.035" y="61"/>
      <point x="328" y="61" type="curve" smooth="yes"/>
      <point x="261.581" y="61"/>
      <point x="205.649" y="63.7385"/>
      <point x="177.4" y="71.3438" type="curve" smooth="yes"/>
      <point x="169.432" y="73.4893" type="line"/>
      <point x="170.026" y="81.7203" type="line" smooth="yes"/>
      <point x="183.985" y="275"/>
      <point x="599" y="364.026"/>
      <point x="599" y="606" type="curve" smooth="yes"/>
      <point x="599" y="738.41"/>
      <point x="498.262" y="809"/>
      <point x="373" y="809" type="curve" smooth="yes"/>
      <point x="360.629" y="809"/>
      <point x="348.6" y="808.017"/>
      <point x="335.93" y="807.042" type="curve"/>
      <point x="238.697" y="796.346"/>
      <point x="143.53" y="745.565"/>
      <point x="94.4081" y="666.584" type="curve"/>
      <point x="91.5807" y="662.343"/>
      <point x="91" y="658.959"/>
      <point x="91" y="654" type="curve" smooth="yes"/>
      <point x="91" y="644.468"/>
      <point x="97.656" y="635.028"/>
    </contour>
  </outline>
</glyph>
<glyph name="four" format="1">
  <advance width="720"/>
  <unicode hex="0034"/>
  <outline>
    <contour>
      <point x="330" y="829" type="curve" smooth="yes"/>
      <point x="338" y="829" type="line" smooth="yes"/>
      <point x="364" y="829"/>
      <point x="384" y="815"/>
      <point x="384" y="796" type="curve" smooth="yes"/>
      <point x="383" y="545"/>
      <point x="208" y="340"/>
      <point x="152" y="262" type="curve"/>
      <point x="190" y="256"/>
      <point x="244" y="253"/>
      <point x="307" y="253" type="curve" smooth="yes"/>
      <point x="353" y="253"/>
      <point x="404" y="254"/>
      <point x="456" y="257" type="curve"/>
      <point x="456" y="310"/>
      <point x="455" y="366"/>
      <point x="455" y="420" type="curve" smooth="yes"/>
      <point x="455" y="474"/>
      <point x="456" y="527"/>
      <point x="456" y="575" type="curve" smooth="yes"/>
      <point x="456" y="596"/>
      <point x="480" y="616"/>
      <point x="510" y="619" type="curve" smooth="yes"/>
      <point x="517" y="619" type="line" smooth="yes"/>
      <point x="544" y="619"/>
      <point x="564" y="604"/>
      <point x="564" y="585" type="curve" smooth="yes"/>
      <point x="564" y="537"/>
      <point x="563" y="483"/>
      <point x="563" y="428" type="curve" smooth="yes"/>
      <point x="563" y="373"/>
      <point x="564" y="317"/>
      <point x="564" y="263" type="curve"/>
      <point x="589" y="265"/>
      <point x="613" y="267"/>
      <point x="637" y="269" type="curve" smooth="yes"/>
      <point x="642" y="269" type="line" smooth="yes"/>
      <point x="669" y="269"/>
      <point x="689" y="254"/>
      <point x="689" y="235" type="curve" smooth="yes"/>
      <point x="689" y="234" type="line" smooth="yes"/>
      <point x="688" y="213"/>
      <point x="663" y="193"/>
      <point x="633" y="191" type="curve" smooth="yes"/>
      <point x="612" y="189"/>
      <point x="589" y="188"/>
      <point x="564" y="186" type="curve"/>
      <point x="565" y="115"/>
      <point x="567" y="54"/>
      <point x="569" y="17" type="curve" smooth="yes"/>
      <point x="569" y="16" type="line" smooth="yes"/>
      <point x="569" y="-5"/>
      <point x="546" y="-25"/>
      <point x="517" y="-29" type="curve" smooth="yes"/>
      <point x="514" y="-29"/>
      <point x="510" y="-30"/>
      <point x="507" y="-30" type="curve" smooth="yes"/>
      <point x="481" y="-30"/>
      <point x="462" y="-16"/>
      <point x="461" y="3" type="curve" smooth="yes"/>
      <point x="459" y="42"/>
      <point x="457" y="105"/>
      <point x="456" y="179" type="curve"/>
      <point x="400" y="176"/>
      <point x="341" y="174"/>
      <point x="286" y="174" type="curve" smooth="yes"/>
      <point x="147" y="174"/>
      <point x="31" y="187"/>
      <point x="31" y="234" type="curve" smooth="yes"/>
      <point x="31" y="314"/>
      <point x="275" y="501"/>
      <point x="276" y="784" type="curve" smooth="yes"/>
      <point x="276" y="805"/>
      <point x="300" y="826"/>
    </contour>
    <contour>
      <point x="330.504" y="819" type="line"/>
      <point x="304.439" y="816.013"/>
      <point x="286" y="797.706"/>
      <point x="286" y="784" type="curve" smooth="yes"/>
      <point x="284.986" y="497.028"/>
      <point x="41" y="302.092"/>
      <point x="41" y="234" type="curve" smooth="yes"/>
      <point x="41" y="201.782"/>
      <point x="141.225" y="184"/>
      <point x="286" y="184" type="curve" smooth="yes"/>
      <point x="340.759" y="184"/>
      <point x="399.604" y="185.993"/>
      <point x="455.465" y="188.986" type="curve" smooth="yes"/>
      <point x="465.858" y="189.542" type="line"/>
      <point x="465.999" y="179.135" type="line" smooth="yes"/>
      <point x="466.998" y="105.245"/>
      <point x="468.997" y="42.3167"/>
      <point x="470.987" y="3.51215" type="curve" smooth="yes"/>
      <point x="471.596" y="-8.05193"/>
      <point x="483.942" y="-20"/>
      <point x="507" y="-20" type="curve" smooth="yes"/>
      <point x="508.388" y="-20"/>
      <point x="510.398" y="-19.3332"/>
      <point x="516.299" y="-18.9992" type="curve"/>
      <point x="541.295" y="-15.1975"/>
      <point x="559" y="2.20035"/>
      <point x="559" y="16" type="curve" smooth="yes"/>
      <point x="559" y="16.7295" type="line"/>
      <point x="557.037" y="53.3193"/>
      <point x="555" y="114.921"/>
      <point x="554.001" y="185.859" type="curve" smooth="yes"/>
      <point x="553.869" y="195.221" type="line"/>
      <point x="563.203" y="195.968" type="line" smooth="yes"/>
      <point x="588.527" y="197.994"/>
      <point x="611.228" y="198.972"/>
      <point x="632.193" y="200.968" type="curve"/>
      <point x="659.117" y="202.763"/>
      <point x="677.967" y="220.362"/>
      <point x="679" y="234.238" type="curve"/>
      <point x="679" y="235" type="line" smooth="yes"/>
      <point x="679" y="245.919"/>
      <point x="666.227" y="259"/>
      <point x="642" y="259" type="curve" smooth="yes"/>
      <point x="637.416" y="259" type="line"/>
      <point x="614.204" y="257.066"/>
      <point x="589.667" y="255.021"/>
      <point x="564.797" y="253.032" type="curve" smooth="yes"/>
      <point x="554" y="252.168" type="line"/>
      <point x="554" y="263" type="line" smooth="yes"/>
      <point x="554" y="316.878"/>
      <point x="553" y="372.88"/>
      <point x="553" y="428" type="curve" smooth="yes"/>
      <point x="553" y="483.118"/>
      <point x="554" y="537.136"/>
      <point x="554" y="585" type="curve" smooth="yes"/>
      <point x="554" y="595.919"/>
      <point x="541.227" y="609"/>
      <point x="517" y="609" type="curve" smooth="yes"/>
      <point x="510.502" y="609" type="line"/>
      <point x="484.151" y="605.997"/>
      <point x="466" y="588.509"/>
      <point x="466" y="575" type="curve" smooth="yes"/>
      <point x="466" y="526.864"/>
      <point x="465" y="473.879"/>
      <point x="465" y="420" type="curve" smooth="yes"/>
      <point x="465" y="366.121"/>
      <point x="466" y="310.123"/>
      <point x="466" y="257" type="curve" smooth="yes"/>
      <point x="466" y="247.56" type="line"/>
      <point x="456.576" y="247.017" type="line" smooth="yes"/>
      <point x="404.329" y="244.002"/>
      <point x="353.145" y="243"/>
      <point x="307" y="243" type="curve" smooth="yes"/>
      <point x="243.665" y="243"/>
      <point x="189.334" y="245.981"/>
      <point x="150.44" y="252.122" type="curve" smooth="yes"/>
      <point x="134.415" y="254.653" type="line"/>
      <point x="143.877" y="267.832" type="line" smooth="yes"/>
      <point x="200.447" y="346.626"/>
      <point x="373.018" y="549.434"/>
      <point x="374" y="796.04" type="curve" smooth="yes"/>
      <point x="374" y="806.728"/>
      <point x="361.456" y="819"/>
      <point x="338" y="819" type="curve" smooth="yes"/>
    </contour>
  </outline>
</glyph>
<glyph name="five" format="1">
  <advance width="720"/>
  <unicode hex="0035"/>
  <outline>
    <contour>
      <point x="109" y="154" type="curve" smooth="yes"/>
      <point x="118" y="158"/>
      <point x="128" y="160"/>
      <point x="137" y="160" type="curve" smooth="yes"/>
      <point x="155" y="160"/>
      <point x="172" y="153"/>
      <point x="180" y="141" type="curve" smooth="yes"/>
      <point x="214" y="87"/>
      <point x="297" y="53"/>
      <point x="369" y="53" type="curve" smooth="yes"/>
      <point x="377" y="53"/>
      <point x="384" y="53"/>
      <point x="391" y="54" type="curve" smooth="yes"/>
      <point x="460" y="61"/>
      <point x="541" y="101"/>
      <point x="541" y="244" type="curve" smooth="yes"/>
      <point x="541" y="305"/>
      <point x="524" y="345"/>
      <point x="500" y="370" type="curve" smooth="yes"/>
      <point x="474" y="397"/>
      <point x="436" y="409"/>
      <point x="389" y="409" type="curve" smooth="yes"/>
      <point x="330" y="409"/>
      <point x="259" y="389"/>
      <point x="189" y="350" type="curve"/>
      <point x="189" y="350"/>
      <point x="160" y="334"/>
      <point x="136" y="334" type="curve" smooth="yes"/>
      <point x="119" y="334"/>
      <point x="106" y="342"/>
      <point x="106" y="368" type="curve" smooth="yes"/>
      <point x="106" y="377" type="line"/>
      <point x="114" y="461"/>
      <point x="128" y="593"/>
      <point x="128" y="696" type="curve" smooth="yes"/>
      <point x="128" y="718"/>
      <point x="127" y="738"/>
      <point x="126" y="757" type="curve" smooth="yes"/>
      <point x="126" y="757"/>
      <point x="125" y="760"/>
      <point x="125" y="764" type="curve" smooth="yes"/>
      <point x="125" y="778"/>
      <point x="132" y="805"/>
      <point x="178" y="805" type="curve" smooth="yes"/>
      <point x="184" y="805"/>
      <point x="190" y="805"/>
      <point x="197" y="804" type="curve" smooth="yes"/>
      <point x="239" y="799"/>
      <point x="301" y="794"/>
      <point x="383" y="794" type="curve" smooth="yes"/>
      <point x="470" y="794"/>
      <point x="526" y="798"/>
      <point x="567" y="804" type="curve" smooth="yes"/>
      <point x="570" y="804"/>
      <point x="574" y="805"/>
      <point x="577" y="805" type="curve" smooth="yes"/>
      <point x="602" y="805"/>
      <point x="622" y="792"/>
      <point x="624" y="773" type="curve" smooth="yes"/>
      <point x="624" y="770" type="line" smooth="yes"/>
      <point x="624" y="750"/>
      <point x="602" y="730"/>
      <point x="573" y="726" type="curve" smooth="yes"/>
      <point x="520" y="718"/>
      <point x="458" y="716"/>
      <point x="367" y="716" type="curve" smooth="yes"/>
      <point x="317" y="716"/>
      <point x="274" y="717"/>
      <point x="236" y="719" type="curve"/>
      <point x="236" y="704" type="line" smooth="yes"/>
      <point x="236" y="623"/>
      <point x="229" y="529"/>
      <point x="221" y="451" type="curve"/>
      <point x="281" y="474"/>
      <point x="346" y="487"/>
      <point x="407" y="487" type="curve" smooth="yes"/>
      <point x="497" y="487"/>
      <point x="578" y="458"/>
      <point x="620" y="383" type="curve" smooth="yes"/>
      <point x="639" y="349"/>
      <point x="649" y="306"/>
      <point x="649" y="256" type="curve" smooth="yes"/>
      <point x="649" y="90"/>
      <point x="536" y="-9"/>
      <point x="391" y="-24" type="curve" smooth="yes"/>
      <point x="377" y="-25"/>
      <point x="364" y="-26"/>
      <point x="351" y="-26" type="curve" smooth="yes"/>
      <point x="237" y="-26"/>
      <point x="129" y="22"/>
      <point x="80" y="99" type="curve" smooth="yes"/>
      <point x="77" y="103"/>
      <point x="76" y="108"/>
      <point x="76" y="113" type="curve" smooth="yes"/>
      <point x="76" y="128"/>
      <point x="89" y="146"/>
    </contour>
    <contour>
      <point x="112.889" y="144.785" type="curve" smooth="yes"/>
      <point x="95.8144" y="137.955"/>
      <point x="86" y="122.619"/>
      <point x="86" y="113" type="curve" smooth="yes"/>
      <point x="86" y="109.234"/>
      <point x="86.8074" y="106.59"/>
      <point x="88" y="105" type="curve" smooth="yes"/>
      <point x="88.2304" y="104.693" type="line"/>
      <point x="88.4366" y="104.369" type="line" smooth="yes"/>
      <point x="134.934" y="31.3011"/>
      <point x="239.46" y="-16"/>
      <point x="351" y="-16" type="curve" smooth="yes"/>
      <point x="363.378" y="-16"/>
      <point x="376.459" y="-15.0132"/>
      <point x="390.129" y="-14.0367" type="curve"/>
      <point x="530.666" y="0.501581"/>
      <point x="639" y="95.4623"/>
      <point x="639" y="256" type="curve" smooth="yes"/>
      <point x="639" y="304.691"/>
      <point x="629.242" y="345.963"/>
      <point x="611.271" y="378.122" type="curve" smooth="yes"/>
      <point x="571.694" y="448.794"/>
      <point x="495.124" y="477"/>
      <point x="407" y="477" type="curve" smooth="yes"/>
      <point x="347.409" y="477"/>
      <point x="283.511" y="464.253"/>
      <point x="224.579" y="441.663" type="curve" smooth="yes"/>
      <point x="209.393" y="435.841" type="line"/>
      <point x="211.052" y="452.02" type="line" smooth="yes"/>
      <point x="219.029" y="529.791"/>
      <point x="226" y="623.56"/>
      <point x="226" y="704" type="curve" smooth="yes"/>
      <point x="226" y="729.54" type="line"/>
      <point x="236.526" y="728.986" type="line" smooth="yes"/>
      <point x="274.305" y="726.998"/>
      <point x="317.133" y="726"/>
      <point x="367" y="726" type="curve" smooth="yes"/>
      <point x="457.913" y="726"/>
      <point x="519.343" y="728.014"/>
      <point x="571.57" y="735.898" type="curve"/>
      <point x="597.851" y="739.522"/>
      <point x="614" y="757.362"/>
      <point x="614" y="770" type="curve" smooth="yes"/>
      <point x="614" y="772.422" type="line"/>
      <point x="612.548" y="783.307"/>
      <point x="599.54" y="795"/>
      <point x="577" y="795" type="curve" smooth="yes"/>
      <point x="575.63" y="795"/>
      <point x="573.566" y="794.331"/>
      <point x="567.731" y="794.001" type="curve"/>
      <point x="527.681" y="788.184"/>
      <point x="469.858" y="784"/>
      <point x="383" y="784" type="curve" smooth="yes"/>
      <point x="300.518" y="784"/>
      <point x="238.343" y="789.008"/>
      <point x="195.702" y="794.084" type="curve"/>
      <point x="189.237" y="795.007"/>
      <point x="184.088" y="795"/>
      <point x="178" y="795" type="curve" smooth="yes"/>
      <point x="137.748" y="795"/>
      <point x="135" y="774.147"/>
      <point x="135" y="764" type="curve" smooth="yes"/>
      <point x="135" y="761.489"/>
      <point x="135.578" y="759.873"/>
      <point x="135.578" y="759.873" type="curve" smooth="yes"/>
      <point x="135.923" y="758.724" type="line"/>
      <point x="135.986" y="757.526" type="line" smooth="yes"/>
      <point x="136.987" y="738.508"/>
      <point x="138" y="718.304"/>
      <point x="138" y="696" type="curve" smooth="yes"/>
      <point x="138" y="592.285"/>
      <point x="124.078" y="461.248"/>
      <point x="116" y="376.525" type="curve"/>
      <point x="116" y="368" type="line" smooth="yes"/>
      <point x="116" y="346.848"/>
      <point x="123.47" y="344"/>
      <point x="136" y="344" type="curve" smooth="yes"/>
      <point x="156.442" y="344"/>
      <point x="184.197" y="358.771"/>
      <point x="184.197" y="358.771" type="curve" smooth="yes"/>
      <point x="255.276" y="398.372"/>
      <point x="327.826" y="419"/>
      <point x="389" y="419" type="curve" smooth="yes"/>
      <point x="437.579" y="419"/>
      <point x="478.701" y="406.535"/>
      <point x="507.203" y="376.936" type="curve" smooth="yes"/>
      <point x="533.385" y="349.664"/>
      <point x="551" y="306.827"/>
      <point x="551" y="244" type="curve" smooth="yes"/>
      <point x="551" y="95.7343"/>
      <point x="464.482" y="51.4033"/>
      <point x="392.212" y="44.0717" type="curve"/>
      <point x="384.736" y="43.0037"/>
      <point x="376.851" y="43"/>
      <point x="369" y="43" type="curve" smooth="yes"/>
      <point x="294.5" y="43"/>
      <point x="208.147" y="77.528"/>
      <point x="171.607" y="135.562" type="curve"/>
      <point x="166.342" y="143.46"/>
      <point x="152.734" y="150"/>
      <point x="137" y="150" type="curve" smooth="yes"/>
      <point x="129.361" y="150"/>
      <point x="120.895" y="148.343"/>
    </contour>
  </outline>
</glyph>
<glyph name="nine" format="1">
  <advance width="720"/>
  <unicode hex="0039"/>
  <outline>
    <contour>
      <point x="675" y="538" type="curve" smooth="yes"/>
      <point x="684" y="533"/>
      <point x="688" y="526"/>
      <point x="688" y="518" type="curve" smooth="yes"/>
      <point x="688" y="507"/>
      <point x="680" y="496"/>
      <point x="668" y="486" type="curve" smooth="yes"/>
      <point x="658" y="478"/>
      <point x="648" y="470"/>
      <point x="638" y="463" type="curve" smooth="yes"/>
      <point x="634" y="460"/>
      <point x="629" y="457"/>
      <point x="625" y="454" type="curve" smooth="yes"/>
      <point x="624" y="447"/>
      <point x="622" y="439"/>
      <point x="621" y="432" type="curve" smooth="yes"/>
      <point x="593" y="286"/>
      <point x="504" y="123"/>
      <point x="339" y="-13" type="curve" smooth="yes"/>
      <point x="326" y="-23"/>
      <point x="308" y="-29"/>
      <point x="291" y="-29" type="curve" smooth="yes"/>
      <point x="280" y="-29"/>
      <point x="270" y="-27"/>
      <point x="262" y="-22" type="curve" smooth="yes"/>
      <point x="251" y="-15"/>
      <point x="246" y="-5"/>
      <point x="246" y="5" type="curve" smooth="yes"/>
      <point x="246" y="15"/>
      <point x="251" y="25"/>
      <point x="261" y="33" type="curve" smooth="yes"/>
      <point x="387" y="137"/>
      <point x="466" y="261"/>
      <point x="501" y="377" type="curve"/>
      <point x="429" y="342"/>
      <point x="359" y="324"/>
      <point x="297" y="324" type="curve" smooth="yes"/>
      <point x="125" y="324"/>
      <point x="52" y="446"/>
      <point x="52" y="560" type="curve" smooth="yes"/>
      <point x="52" y="578"/>
      <point x="54" y="595"/>
      <point x="57" y="612" type="curve" smooth="yes"/>
      <point x="78" y="715"/>
      <point x="173" y="829"/>
      <point x="353" y="829" type="curve" smooth="yes"/>
      <point x="537" y="829"/>
      <point x="623" y="697"/>
      <point x="630" y="549" type="curve"/>
      <point x="634" y="549" type="line" smooth="yes"/>
      <point x="648" y="549"/>
      <point x="665" y="544"/>
    </contour>
    <contour>
      <point x="521" y="482" type="curve"/>
      <point x="521" y="494" type="line" smooth="yes"/>
      <point x="521" y="501"/>
      <point x="522" y="508"/>
      <point x="522" y="515" type="curve" smooth="yes"/>
      <point x="522" y="663"/>
      <point x="442" y="751"/>
      <point x="337" y="751" type="curve" smooth="yes"/>
      <point x="239" y="751"/>
      <point x="181" y="697"/>
      <point x="164" y="613" type="curve" smooth="yes"/>
      <point x="161" y="599"/>
      <point x="160" y="585"/>
      <point x="160" y="572" type="curve" smooth="yes"/>
      <point x="160" y="480"/>
      <point x="224" y="403"/>
      <point x="313" y="403" type="curve" smooth="yes"/>
      <point x="356" y="403"/>
      <point x="417" y="418"/>
      <point x="499" y="468" type="curve" smooth="yes"/>
      <point x="506" y="472"/>
      <point x="514" y="477"/>
    </contour>
    <contour>
      <point x="669.998" y="529.339" type="curve" smooth="yes"/>
      <point x="661.898" y="534.199"/>
      <point x="645.789" y="539"/>
      <point x="634" y="539" type="curve" smooth="yes"/>
      <point x="620.462" y="539" type="line"/>
      <point x="620.011" y="548.528" type="line" smooth="yes"/>
      <point x="613.179" y="692.97"/>
      <point x="530.72" y="819"/>
      <point x="353" y="819" type="curve" smooth="yes"/>
      <point x="177.824" y="819"/>
      <point x="86.9009" y="708.6"/>
      <point x="66.8248" y="610.132" type="curve"/>
      <point x="63.9423" y="593.798"/>
      <point x="62" y="577.176"/>
      <point x="62" y="560" type="curve" smooth="yes"/>
      <point x="62" y="450.277"/>
      <point x="131.075" y="334"/>
      <point x="297" y="334" type="curve" smooth="yes"/>
      <point x="357.075" y="334"/>
      <point x="425.689" y="351.509"/>
      <point x="496.628" y="385.994" type="curve" smooth="yes"/>
      <point x="517.172" y="395.98" type="line"/>
      <point x="510.574" y="374.111" type="line" smooth="yes"/>
      <point x="474.94" y="256.01"/>
      <point x="394.851" y="130.514"/>
      <point x="267.307" y="25.2391" type="curve"/>
      <point x="259.088" y="18.6643"/>
      <point x="256" y="11.5403"/>
      <point x="256" y="5" type="curve" smooth="yes"/>
      <point x="256" y="-1.50192"/>
      <point x="258.961" y="-8.21315"/>
      <point x="267.369" y="-13.5634" type="curve" smooth="yes"/>
      <point x="273.033" y="-17.1037"/>
      <point x="281.18" y="-19"/>
      <point x="291" y="-19" type="curve" smooth="yes"/>
      <point x="305.672" y="-19"/>
      <point x="321.977" y="-13.4784"/>
      <point x="332.77" y="-5.17636" type="curve"/>
      <point x="495.759" y="129.167"/>
      <point x="583.725" y="290.73"/>
      <point x="611.119" y="433.572" type="curve"/>
      <point x="612.249" y="440.936"/>
      <point x="614.221" y="449.258"/>
      <point x="615.101" y="455.414" type="curve" smooth="yes"/>
      <point x="615.686" y="459.515" type="line"/>
      <point x="619" y="462" type="line" smooth="yes"/>
      <point x="623.683" y="465.512"/>
      <point x="628.427" y="468.32"/>
      <point x="632.131" y="471.098" type="curve"/>
      <point x="642.025" y="478.024"/>
      <point x="651.774" y="485.825"/>
      <point x="661.675" y="493.746" type="curve"/>
      <point x="672.788" y="503.007"/>
      <point x="678" y="511.972"/>
      <point x="678" y="518" type="curve" smooth="yes"/>
      <point x="678" y="522.249"/>
      <point x="676.734" y="525.597"/>
    </contour>
    <contour>
      <point x="531" y="476.854" type="line"/>
      <point x="526.812" y="473.863" type="line" smooth="yes"/>
      <point x="519.525" y="468.657"/>
      <point x="511.067" y="463.378"/>
      <point x="504.085" y="459.388" type="curve"/>
      <point x="421.25" y="408.879"/>
      <point x="358.297" y="393"/>
      <point x="313" y="393" type="curve" smooth="yes"/>
      <point x="217.52" y="393"/>
      <point x="150" y="475.603"/>
      <point x="150" y="572" type="curve" smooth="yes"/>
      <point x="150" y="585.476"/>
      <point x="151.047" y="600.277"/>
      <point x="154.21" y="615.04" type="curve"/>
      <point x="172.027" y="703.074"/>
      <point x="234.558" y="761"/>
      <point x="337" y="761" type="curve" smooth="yes"/>
      <point x="448.865" y="761"/>
      <point x="532" y="666.519"/>
      <point x="532" y="515" type="curve" smooth="yes"/>
      <point x="532" y="507.049"/>
      <point x="531" y="500.049"/>
      <point x="531" y="494" type="curve" smooth="yes"/>
    </contour>
  </outline>
</glyph>
<glyph name="semicolon" format="1">
  <advance width="330"/>
  <unicode hex="003B"/>
  <outline>
    <contour>
      <point x="231" y="592" type="curve" smooth="yes"/>
      <point x="233" y="590"/>
      <point x="249" y="575"/>
      <point x="249" y="551" type="curve" smooth="yes"/>
      <point x="249" y="547"/>
      <point x="249" y="542"/>
      <point x="248" y="538" type="curve" smooth="yes"/>
      <point x="243" y="512"/>
      <point x="210" y="475"/>
      <point x="155" y="475" type="curve" smooth="yes"/>
      <point x="105" y="475"/>
      <point x="81" y="506"/>
      <point x="81" y="536" type="curve" smooth="yes"/>
      <point x="81" y="559"/>
      <point x="103" y="612"/>
      <point x="175" y="612" type="curve" smooth="yes"/>
      <point x="181" y="612"/>
      <point x="187" y="611"/>
      <point x="191" y="610" type="curve" smooth="yes"/>
      <point x="207" y="606" type="line" smooth="yes"/>
      <point x="217" y="603"/>
      <point x="226" y="598"/>
    </contour>
    <contour>
      <point x="73" y="58" type="curve" smooth="yes"/>
      <point x="68" y="63"/>
      <point x="65" y="69"/>
      <point x="65" y="75" type="curve" smooth="yes"/>
      <point x="65" y="85"/>
      <point x="72" y="95"/>
      <point x="85" y="103" type="curve" smooth="yes"/>
      <point x="89" y="106"/>
      <point x="93" y="109"/>
      <point x="98" y="111" type="curve" smooth="yes"/>
      <point x="117" y="121"/>
      <point x="141" y="127"/>
      <point x="163" y="127" type="curve" smooth="yes"/>
      <point x="168" y="127" type="line" smooth="yes"/>
      <point x="201" y="125"/>
      <point x="223" y="110"/>
      <point x="236" y="94" type="curve" smooth="yes"/>
      <point x="252" y="74"/>
      <point x="261" y="46"/>
      <point x="261" y="15" type="curve" smooth="yes"/>
      <point x="261" y="-50"/>
      <point x="222" y="-129"/>
      <point x="126" y="-176" type="curve" smooth="yes"/>
      <point x="118" y="-180"/>
      <point x="108" y="-182"/>
      <point x="99" y="-182" type="curve" smooth="yes"/>
      <point x="85" y="-182"/>
      <point x="73" y="-177"/>
      <point x="66" y="-169" type="curve" smooth="yes"/>
      <point x="63" y="-165"/>
      <point x="61" y="-160"/>
      <point x="61" y="-155" type="curve" smooth="yes"/>
      <point x="61" y="-143"/>
      <point x="69" y="-131"/>
      <point x="84" y="-124" type="curve" smooth="yes"/>
      <point x="144" y="-94"/>
      <point x="170" y="-36"/>
      <point x="170" y="9" type="curve" smooth="yes"/>
      <point x="170" y="28"/>
      <point x="165" y="45"/>
      <point x="157" y="55" type="curve" smooth="yes"/>
      <point x="152" y="61"/>
      <point x="148" y="62"/>
      <point x="148" y="62" type="curve"/>
      <point x="148" y="62"/>
      <point x="144" y="62"/>
      <point x="135" y="57" type="curve" smooth="yes"/>
      <point x="125" y="51"/>
      <point x="113" y="48"/>
      <point x="102" y="48" type="curve" smooth="yes"/>
      <point x="90" y="48"/>
      <point x="80" y="51"/>
    </contour>
    <contour>
      <point x="223.929" y="584.929" type="curve" smooth="yes"/>
      <point x="223.608" y="585.25" type="line"/>
      <point x="223.318" y="585.598" type="line" smooth="yes"/>
      <point x="220.247" y="589.283"/>
      <point x="212.884" y="593.794"/>
      <point x="204.127" y="596.422" type="curve"/>
      <point x="205.091" y="596.157"/>
      <point x="205.545" y="596.056"/>
      <point x="204.575" y="596.299" type="curve" smooth="yes"/>
      <point x="188.575" y="600.299" type="line" smooth="yes"/>
      <point x="185.307" y="601.115"/>
      <point x="179.897" y="602"/>
      <point x="175" y="602" type="curve" smooth="yes"/>
      <point x="109.108" y="602"/>
      <point x="91" y="554.224"/>
      <point x="91" y="536" type="curve" smooth="yes"/>
      <point x="91" y="511.862"/>
      <point x="109.665" y="485"/>
      <point x="155" y="485" type="curve" smooth="yes"/>
      <point x="205.474" y="485"/>
      <point x="234.202" y="519.204"/>
      <point x="238.18" y="539.888" type="curve" smooth="yes"/>
      <point x="238.232" y="540.159" type="line"/>
      <point x="238.299" y="540.425" type="line" smooth="yes"/>
      <point x="238.849" y="542.625"/>
      <point x="239" y="547.034"/>
      <point x="239" y="551" type="curve" smooth="yes"/>
      <point x="239" y="570.476"/>
      <point x="225.859" y="582.998"/>
    </contour>
    <contour>
      <point x="80.0711" y="65.0711" type="curve" smooth="yes"/>
      <point x="84.5736" y="60.5685"/>
      <point x="91.5468" y="58"/>
      <point x="102" y="58" type="curve" smooth="yes"/>
      <point x="111.3" y="58"/>
      <point x="121.44" y="60.5262"/>
      <point x="129.998" y="65.6607" type="curve"/>
      <point x="139.667" y="71.0323"/>
      <point x="144.969" y="71.8766"/>
      <point x="147.496" y="71.9884" type="curve"/>
      <point x="147.496" y="71.9884"/>
      <point x="-84.9004" y="61.7045"/>
      <point x="149.278" y="72.0663" type="curve"/>
      <point x="150.376" y="71.7305" type="line"/>
      <point x="152.361" y="71.1234"/>
      <point x="158.199" y="69.1816"/>
      <point x="164.746" y="61.325" type="curve"/>
      <point x="174.935" y="48.5887"/>
      <point x="180" y="29.6559"/>
      <point x="180" y="9" type="curve" smooth="yes"/>
      <point x="180" y="-39.5466"/>
      <point x="152.297" y="-101.032"/>
      <point x="88.3513" y="-133.005" type="curve"/>
      <point x="75.7792" y="-138.872"/>
      <point x="71" y="-147.663"/>
      <point x="71" y="-155" type="curve" smooth="yes"/>
      <point x="71" y="-157.273"/>
      <point x="71.773" y="-159.808"/>
      <point x="73.7739" y="-162.694" type="curve"/>
      <point x="78.1056" y="-167.372"/>
      <point x="87.2336" y="-172"/>
      <point x="99" y="-172" type="curve" smooth="yes"/>
      <point x="106.567" y="-172"/>
      <point x="115.273" y="-170.183"/>
      <point x="121.528" y="-167.056" type="curve" smooth="yes"/>
      <point x="214.52" y="-121.529"/>
      <point x="251" y="-46.0117"/>
      <point x="251" y="15" type="curve" smooth="yes"/>
      <point x="251" y="44.1123"/>
      <point x="242.493" y="69.8765"/>
      <point x="228.191" y="87.753" type="curve" smooth="yes"/>
      <point x="216.809" y="101.762"/>
      <point x="198.742" y="114.803"/>
      <point x="167.734" y="117" type="curve"/>
      <point x="163" y="117" type="line" smooth="yes"/>
      <point x="142.766" y="117"/>
      <point x="120.095" y="111.329"/>
      <point x="102.657" y="102.151" type="curve" smooth="yes"/>
      <point x="102.197" y="101.908" type="line"/>
      <point x="101.714" y="101.715" type="line" smooth="yes"/>
      <point x="98.2273" y="100.321"/>
      <point x="95.0283" y="98.0212"/>
      <point x="91" y="95" type="curve" smooth="yes"/>
      <point x="90.6324" y="94.7243" type="line"/>
      <point x="90.241" y="94.4834" type="line" smooth="yes"/>
      <point x="78.7666" y="87.4222"/>
      <point x="75" y="80.0353"/>
      <point x="75" y="75" type="curve" smooth="yes"/>
      <point x="75" y="72.4014"/>
      <point x="76.4094" y="68.7327"/>
    </contour>
  </outline>
</glyph>
<glyph name="greater" format="1">
  <advance width="600"/>
  <unicode hex="003E"/>
  <outline>
    <contour>
      <point x="79" y="600" type="curve" smooth="yes"/>
      <point x="90" y="610"/>
      <point x="106" y="615"/>
      <point x="122" y="615" type="curve" smooth="yes"/>
      <point x="132" y="615"/>
      <point x="141" y="613"/>
      <point x="149" y="609" type="curve" smooth="yes"/>
      <point x="232" y="562"/>
      <point x="405" y="451"/>
      <point x="522" y="367" type="curve" smooth="yes"/>
      <point x="528" y="363"/>
      <point x="537" y="354"/>
      <point x="537" y="343" type="curve" smooth="yes"/>
      <point x="537" y="334"/>
      <point x="531" y="324"/>
      <point x="511" y="313" type="curve" smooth="yes"/>
      <point x="404" y="254"/>
      <point x="244" y="140"/>
      <point x="157" y="77" type="curve" smooth="yes"/>
      <point x="146" y="69"/>
      <point x="132" y="64"/>
      <point x="118" y="64" type="curve" smooth="yes"/>
      <point x="107" y="64"/>
      <point x="96" y="67"/>
      <point x="88" y="73" type="curve" smooth="yes"/>
      <point x="80" y="79"/>
      <point x="76" y="86"/>
      <point x="76" y="94" type="curve" smooth="yes"/>
      <point x="76" y="104"/>
      <point x="82" y="115"/>
      <point x="93" y="123" type="curve" smooth="yes"/>
      <point x="170" y="179"/>
      <point x="299" y="273"/>
      <point x="410" y="339" type="curve"/>
      <point x="299" y="416"/>
      <point x="151" y="511"/>
      <point x="81" y="551" type="curve" smooth="yes"/>
      <point x="71" y="557"/>
      <point x="66" y="565"/>
      <point x="66" y="574" type="curve" smooth="yes"/>
      <point x="66" y="583"/>
      <point x="70" y="592"/>
    </contour>
    <contour>
      <point x="85.6854" y="592.563" type="curve" smooth="yes"/>
      <point x="78.3783" y="586.068"/>
      <point x="76" y="579.86"/>
      <point x="76" y="574" type="curve" smooth="yes"/>
      <point x="76" y="569.149"/>
      <point x="78.3312" y="564.263"/>
      <point x="86.0537" y="559.63" type="curve"/>
      <point x="156.366" y="519.451"/>
      <point x="304.475" y="424.373"/>
      <point x="415.7" y="347.217" type="curve" smooth="yes"/>
      <point x="428.478" y="338.353" type="line"/>
      <point x="415.111" y="330.405" type="line" smooth="yes"/>
      <point x="304.723" y="264.769"/>
      <point x="175.853" y="170.892"/>
      <point x="98.8817" y="114.913" type="curve" smooth="yes"/>
      <point x="89.8991" y="108.38"/>
      <point x="86" y="100.009"/>
      <point x="86" y="94" type="curve" smooth="yes"/>
      <point x="86" y="89.7049"/>
      <point x="87.7046" y="85.7216"/>
      <point x="94" y="81" type="curve" smooth="yes"/>
      <point x="99.7868" y="76.6599"/>
      <point x="108.735" y="74"/>
      <point x="118" y="74" type="curve" smooth="yes"/>
      <point x="129.638" y="74"/>
      <point x="141.739" y="78.2658"/>
      <point x="151.118" y="85.0874" type="curve" smooth="yes"/>
      <point x="238.289" y="148.211"/>
      <point x="398.228" y="262.237"/>
      <point x="506.171" y="321.757" type="curve" smooth="yes"/>
      <point x="525.072" y="332.153"/>
      <point x="527" y="339.325"/>
      <point x="527" y="343" type="curve" smooth="yes"/>
      <point x="527" y="348.551"/>
      <point x="521.351" y="355.414"/>
      <point x="516.309" y="358.776" type="curve"/>
      <point x="399.431" y="442.688"/>
      <point x="227.863" y="552.792"/>
      <point x="144.268" y="600.188" type="curve"/>
      <point x="138.245" y="603.066"/>
      <point x="130.599" y="605"/>
      <point x="122" y="605" type="curve" smooth="yes"/>
      <point x="107.95" y="605"/>
      <point x="94.4357" y="600.518"/>
    </contour>
  </outline>
</glyph>
<glyph name="at" format="1">
  <advance width="1020"/>
  <unicode hex="0040"/>
  <outline>
    <contour>
      <point x="690" y="345" type="curve"/>
      <point x="685" y="301"/>
      <point x="680" y="251"/>
      <point x="680" y="220" type="curve" smooth="yes"/>
      <point x="680" y="146"/>
      <point x="692" y="107"/>
      <point x="705" y="99" type="curve" smooth="yes"/>
      <point x="707" y="100"/>
      <point x="712" y="102"/>
      <point x="719" y="106" type="curve" smooth="yes"/>
      <point x="814" y="165"/>
      <point x="865" y="279"/>
      <point x="865" y="393" type="curve" smooth="yes"/>
      <point x="865" y="485"/>
      <point x="832" y="576"/>
      <point x="762" y="638" type="curve" smooth="yes"/>
      <point x="710" y="684"/>
      <point x="641" y="711"/>
      <point x="552" y="711" type="curve" smooth="yes"/>
      <point x="352" y="711"/>
      <point x="205" y="547"/>
      <point x="164" y="346" type="curve" smooth="yes"/>
      <point x="157" y="311"/>
      <point x="153" y="276"/>
      <point x="153" y="242" type="curve" smooth="yes"/>
      <point x="153" y="48"/>
      <point x="268" y="-121"/>
      <point x="508" y="-121" type="curve" smooth="yes"/>
      <point x="571" y="-121"/>
      <point x="650" y="-88"/>
      <point x="674" y="-74" type="curve" smooth="yes"/>
      <point x="683" y="-69"/>
      <point x="692" y="-66"/>
      <point x="702" y="-66" type="curve" smooth="yes"/>
      <point x="713" y="-66"/>
      <point x="723" y="-69"/>
      <point x="729" y="-75" type="curve" smooth="yes"/>
      <point x="733" y="-79"/>
      <point x="736" y="-85"/>
      <point x="736" y="-90" type="curve" smooth="yes"/>
      <point x="736" y="-99"/>
      <point x="729" y="-109"/>
      <point x="718" y="-116" type="curve" smooth="yes"/>
      <point x="682" y="-138"/>
      <point x="591" y="-179"/>
      <point x="496" y="-179" type="curve" smooth="yes"/>
      <point x="196" y="-179"/>
      <point x="74" y="25"/>
      <point x="74" y="235" type="curve" smooth="yes"/>
      <point x="74" y="272"/>
      <point x="78" y="310"/>
      <point x="85" y="346" type="curve" smooth="yes"/>
      <point x="127" y="553"/>
      <point x="291" y="769"/>
      <point x="564" y="769" type="curve" smooth="yes"/>
      <point x="677" y="769"/>
      <point x="765" y="733"/>
      <point x="826" y="678" type="curve" smooth="yes"/>
      <point x="905" y="607"/>
      <point x="945" y="504"/>
      <point x="945" y="398" type="curve" smooth="yes"/>
      <point x="945" y="270"/>
      <point x="886" y="139"/>
      <point x="765" y="64" type="curve" smooth="yes"/>
      <point x="746" y="52"/>
      <point x="723" y="43"/>
      <point x="698" y="41" type="curve" smooth="yes"/>
      <point x="692" y="41" type="line" smooth="yes"/>
      <point x="640" y="41"/>
      <point x="620" y="90"/>
      <point x="615" y="159" type="curve"/>
      <point x="587" y="93"/>
      <point x="543" y="38"/>
      <point x="465" y="38" type="curve" smooth="yes"/>
      <point x="336" y="38"/>
      <point x="293" y="129"/>
      <point x="293" y="222" type="curve" smooth="yes"/>
      <point x="293" y="245"/>
      <point x="295" y="268"/>
      <point x="300" y="290" type="curve" smooth="yes"/>
      <point x="324" y="405"/>
      <point x="415" y="554"/>
      <point x="585" y="554" type="curve" smooth="yes"/>
      <point x="701" y="554"/>
      <point x="712" y="456"/>
      <point x="712" y="436" type="curve" smooth="yes"/>
      <point x="712" y="419"/>
      <point x="691" y="402"/>
      <point x="667" y="399" type="curve" smooth="yes"/>
      <point x="660" y="399" type="line" smooth="yes"/>
      <point x="639" y="399"/>
      <point x="622" y="411"/>
      <point x="622" y="426" type="curve" smooth="yes"/>
      <point x="622" y="446"/>
      <point x="601" y="490"/>
      <point x="571" y="490" type="curve" smooth="yes"/>
      <point x="492" y="490"/>
      <point x="411" y="405"/>
      <point x="388" y="290" type="curve" smooth="yes"/>
      <point x="384" y="270"/>
      <point x="382" y="251"/>
      <point x="382" y="234" type="curve" smooth="yes"/>
      <point x="382" y="154"/>
      <point x="422" y="102"/>
      <point x="479" y="102" type="curve" smooth="yes"/>
      <point x="525" y="102"/>
      <point x="570" y="196"/>
      <point x="603" y="331" type="curve" smooth="yes"/>
      <point x="607" y="348"/>
      <point x="620" y="362"/>
      <point x="643" y="362" type="curve" smooth="yes"/>
      <point x="661" y="362"/>
      <point x="690" y="345"/>
    </contour>
    <contour>
      <point x="679.31" y="339.45" type="curve"/>
      <point x="670.971" y="343.779"/>
      <point x="652.075" y="352"/>
      <point x="643" y="352" type="curve" smooth="yes"/>
      <point x="624.837" y="352"/>
      <point x="615.857" y="341.982"/>
      <point x="612.734" y="328.71" type="curve" smooth="yes"/>
      <point x="580.297" y="196.01"/>
      <point x="536.374" y="92"/>
      <point x="479" y="92" type="curve" smooth="yes"/>
      <point x="414.391" y="92"/>
      <point x="372" y="151.231"/>
      <point x="372" y="234" type="curve" smooth="yes"/>
      <point x="372" y="251.781"/>
      <point x="374.081" y="271.395"/>
      <point x="378.194" y="291.961" type="curve" smooth="yes"/>
      <point x="401.711" y="409.543"/>
      <point x="484.856" y="500"/>
      <point x="571" y="500" type="curve" smooth="yes"/>
      <point x="610.41" y="500"/>
      <point x="632" y="448.753"/>
      <point x="632" y="426" type="curve" smooth="yes"/>
      <point x="632" y="419.379"/>
      <point x="641.583" y="409"/>
      <point x="660" y="409" type="curve" smooth="yes"/>
      <point x="666.355" y="409" type="line"/>
      <point x="686.894" y="411.923"/>
      <point x="702" y="426.74"/>
      <point x="702" y="436" type="curve" smooth="yes"/>
      <point x="702" y="454.468"/>
      <point x="692.683" y="544"/>
      <point x="585" y="544" type="curve" smooth="yes"/>
      <point x="421.898" y="544"/>
      <point x="333.338" y="400.796"/>
      <point x="309.771" y="287.87" type="curve"/>
      <point x="304.937" y="266.602"/>
      <point x="303" y="244.461"/>
      <point x="303" y="222" type="curve" smooth="yes"/>
      <point x="303" y="131.985"/>
      <point x="342.815" y="48"/>
      <point x="465" y="48" type="curve" smooth="yes"/>
      <point x="537.19" y="48"/>
      <point x="578.316" y="98.1364"/>
      <point x="605.794" y="162.905" type="curve" smooth="yes"/>
      <point x="621.979" y="201.055" type="line"/>
      <point x="624.974" y="159.723" type="line" smooth="yes"/>
      <point x="629.989" y="90.5186"/>
      <point x="649.088" y="51"/>
      <point x="692" y="51" type="curve" smooth="yes"/>
      <point x="697.608" y="51" type="line"/>
      <point x="720.041" y="52.9729"/>
      <point x="741.805" y="61.1781"/>
      <point x="759.66" y="72.4549" type="curve" smooth="yes"/>
      <point x="877.466" y="145.475"/>
      <point x="935" y="272.947"/>
      <point x="935" y="398" type="curve" smooth="yes"/>
      <point x="935" y="501.537"/>
      <point x="895.939" y="601.698"/>
      <point x="819.316" y="670.562" type="curve" smooth="yes"/>
      <point x="760.276" y="723.794"/>
      <point x="674.862" y="759"/>
      <point x="564" y="759" type="curve" smooth="yes"/>
      <point x="297.126" y="759"/>
      <point x="136.175" y="547.928"/>
      <point x="94.8003" y="344.012" type="curve" smooth="yes"/>
      <point x="87.9478" y="308.77"/>
      <point x="84" y="271.242"/>
      <point x="84" y="235" type="curve" smooth="yes"/>
      <point x="84" y="29.0825"/>
      <point x="202.045" y="-169"/>
      <point x="496" y="-169" type="curve" smooth="yes"/>
      <point x="588.166" y="-169"/>
      <point x="678.19" y="-128.609"/>
      <point x="712.708" y="-107.515" type="curve"/>
      <point x="721.906" y="-101.661"/>
      <point x="726" y="-93.8928"/>
      <point x="726" y="-90" type="curve" smooth="yes"/>
      <point x="726" y="-88.7021"/>
      <point x="724.368" y="-84.5101"/>
      <point x="721.929" y="-82.0711" type="curve" smooth="yes"/>
      <point x="718.656" y="-78.7978"/>
      <point x="711.394" y="-76"/>
      <point x="702" y="-76" type="curve" smooth="yes"/>
      <point x="694.117" y="-76"/>
      <point x="686.782" y="-78.3385"/>
      <point x="678.948" y="-82.6906" type="curve"/>
      <point x="653.605" y="-97.4739"/>
      <point x="574.114" y="-131"/>
      <point x="508" y="-131" type="curve" smooth="yes"/>
      <point x="261.913" y="-131"/>
      <point x="143" y="43.8521"/>
      <point x="143" y="242" type="curve" smooth="yes"/>
      <point x="143" y="276.784"/>
      <point x="147.087" y="312.423"/>
      <point x="154.194" y="347.961" type="curve" smooth="yes"/>
      <point x="195.841" y="552.13"/>
      <point x="345.849" y="721"/>
      <point x="552" y="721" type="curve" smooth="yes"/>
      <point x="643.063" y="721"/>
      <point x="714.707" y="693.187"/>
      <point x="768.626" y="645.49" type="curve" smooth="yes"/>
      <point x="841.173" y="581.233"/>
      <point x="875" y="487.306"/>
      <point x="875" y="393" type="curve" smooth="yes"/>
      <point x="875" y="276.208"/>
      <point x="823.028" y="158.835"/>
      <point x="724.12" y="97.4084" type="curve"/>
      <point x="716.348" y="92.9669"/>
      <point x="710.766" y="90.7029"/>
      <point x="709.472" y="90.0557" type="curve" smooth="yes"/>
      <point x="704.497" y="87.568" type="line"/>
      <point x="699.759" y="90.4834" type="line" smooth="yes"/>
      <point x="679.659" y="102.853"/>
      <point x="670" y="146.471"/>
      <point x="670" y="220" type="curve" smooth="yes"/>
      <point x="670" y="250.753"/>
      <point x="674.379" y="295.335"/>
    </contour>
  </outline>
</glyph>
<glyph name="A" format="1">
  <advance width="810"/>
  <unicode hex="0041"/>
  <outline>
    <contour>
      <point x="232" y="196" type="curve"/>
      <point x="199" y="124"/>
      <point x="167" y="60"/>
      <point x="137" y="11" type="curve" smooth="yes"/>
      <point x="128" y="-5"/>
      <point x="104" y="-16"/>
      <point x="81" y="-16" type="curve" smooth="yes"/>
      <point x="77" y="-16"/>
      <point x="73" y="-16"/>
      <point x="69" y="-15" type="curve" smooth="yes"/>
      <point x="50" y="-11"/>
      <point x="39" y="0"/>
      <point x="39" y="14" type="curve" smooth="yes"/>
      <point x="39" y="19"/>
      <point x="40" y="24"/>
      <point x="43" y="29" type="curve" smooth="yes"/>
      <point x="67" y="69"/>
      <point x="95" y="124"/>
      <point x="124" y="185" type="curve"/>
      <point x="111" y="183"/>
      <point x="98" y="182"/>
      <point x="88" y="180" type="curve" smooth="yes"/>
      <point x="84" y="179"/>
      <point x="80" y="179"/>
      <point x="76" y="179" type="curve" smooth="yes"/>
      <point x="53" y="179"/>
      <point x="35" y="191"/>
      <point x="33" y="207" type="curve" smooth="yes"/>
      <point x="33" y="209" type="line" smooth="yes"/>
      <point x="33" y="227"/>
      <point x="55" y="245"/>
      <point x="82" y="250" type="curve" smooth="yes"/>
      <point x="103" y="253"/>
      <point x="129" y="257"/>
      <point x="158" y="260" type="curve"/>
      <point x="239" y="444"/>
      <point x="321" y="662"/>
      <point x="360" y="774" type="curve" smooth="yes"/>
      <point x="362" y="779"/>
      <point x="364" y="784"/>
      <point x="365" y="788" type="curve" smooth="yes"/>
      <point x="373" y="812"/>
      <point x="390" y="820"/>
      <point x="408" y="820" type="curve" smooth="yes"/>
      <point x="435" y="820"/>
      <point x="464" y="802"/>
      <point x="464" y="802" type="curve"/>
      <point x="609" y="532"/>
      <point x="730" y="186"/>
      <point x="767" y="64" type="curve" smooth="yes"/>
      <point x="768" y="60"/>
      <point x="770" y="57"/>
      <point x="771" y="53" type="curve" smooth="yes"/>
      <point x="772" y="49"/>
      <point x="773" y="45"/>
      <point x="773" y="41" type="curve" smooth="yes"/>
      <point x="773" y="15"/>
      <point x="744" y="3"/>
      <point x="717" y="3" type="curve" smooth="yes"/>
      <point x="697" y="3"/>
      <point x="677" y="10"/>
      <point x="670" y="24" type="curve" smooth="yes"/>
      <point x="624" y="119"/>
      <point x="631" y="209"/>
      <point x="481" y="209" type="curve" smooth="yes"/>
      <point x="428" y="209"/>
      <point x="324" y="204"/>
    </contour>
    <contour>
      <point x="265" y="269" type="curve"/>
      <point x="353" y="276"/>
      <point x="444" y="281"/>
      <point x="499" y="281" type="curve" smooth="yes"/>
      <point x="531" y="281"/>
      <point x="561" y="277"/>
      <point x="585" y="272" type="curve"/>
      <point x="541" y="389"/>
      <point x="483" y="529"/>
      <point x="421" y="659" type="curve"/>
      <point x="379" y="547"/>
      <point x="323" y="401"/>
    </contour>
    <contour>
      <point x="222.909" y="200.167" type="curve" smooth="yes"/>
      <point x="225.335" y="205.458" type="line"/>
      <point x="231.134" y="205.962" type="line" smooth="yes"/>
      <point x="323.449" y="213.99"/>
      <point x="427.466" y="219"/>
      <point x="481" y="219" type="curve" smooth="yes"/>
      <point x="637.943" y="219"/>
      <point x="635.029" y="119.168"/>
      <point x="678.973" y="28.4153" type="curve"/>
      <point x="683.118" y="20.124"/>
      <point x="698.498" y="13"/>
      <point x="717" y="13" type="curve" smooth="yes"/>
      <point x="743.014" y="13"/>
      <point x="763" y="24.3905"/>
      <point x="763" y="41" type="curve" smooth="yes"/>
      <point x="763" y="43.3372"/>
      <point x="762.304" y="46.553"/>
      <point x="761.299" y="50.5746" type="curve" smooth="yes"/>
      <point x="760.883" y="52.2351"/>
      <point x="758.667" y="56.1534"/>
      <point x="757.43" y="61.0977" type="curve"/>
      <point x="720.644" y="182.393"/>
      <point x="600.909" y="525.027"/>
      <point x="456.519" y="794.79" type="curve"/>
      <point x="450.24" y="798.319"/>
      <point x="426.973" y="810"/>
      <point x="408" y="810" type="curve" smooth="yes"/>
      <point x="393.47" y="810"/>
      <point x="381.657" y="805.216"/>
      <point x="374.635" y="785.284" type="curve"/>
      <point x="373.497" y="781.147"/>
      <point x="371.007" y="774.62"/>
      <point x="369.444" y="770.712" type="curve"/>
      <point x="330.347" y="658.434"/>
      <point x="248.321" y="440.354"/>
      <point x="167.152" y="255.971" type="curve" smooth="yes"/>
      <point x="164.811" y="250.651" type="line"/>
      <point x="159.029" y="250.053" type="line" smooth="yes"/>
      <point x="130.498" y="247.102"/>
      <point x="104.195" y="243.069"/>
      <point x="83.6182" y="240.13" type="curve"/>
      <point x="58.6522" y="235.506"/>
      <point x="43" y="219.009"/>
      <point x="43" y="209" type="curve" smooth="yes"/>
      <point x="43" y="207.682" type="line"/>
      <point x="44.5994" y="199.352"/>
      <point x="55.8097" y="189"/>
      <point x="76" y="189" type="curve" smooth="yes"/>
      <point x="80.0276" y="189"/>
      <point x="83.1067" y="189.084"/>
      <point x="85.5746" y="189.701" type="curve" smooth="yes"/>
      <point x="85.8055" y="189.759" type="line"/>
      <point x="86.0388" y="189.806" type="line" smooth="yes"/>
      <point x="96.988" y="191.996"/>
      <point x="109.939" y="192.954"/>
      <point x="122.479" y="194.884" type="curve" smooth="yes"/>
      <point x="141.136" y="197.754" type="line"/>
      <point x="133.031" y="180.706" type="line" smooth="yes"/>
      <point x="103.955" y="119.546"/>
      <point x="75.8786" y="64.3611"/>
      <point x="51.5749" y="23.855" type="curve" smooth="yes"/>
      <point x="49.6192" y="20.5955"/>
      <point x="49" y="17.6574"/>
      <point x="49" y="14" type="curve" smooth="yes"/>
      <point x="49" y="6.24564"/>
      <point x="54.4683" y="-1.72149"/>
      <point x="71.2435" y="-5.25312" type="curve"/>
      <point x="74.1168" y="-5.97144"/>
      <point x="76.8654" y="-6"/>
      <point x="81" y="-6" type="curve" smooth="yes"/>
      <point x="101.457" y="-6"/>
      <point x="121.757" y="4.29791"/>
      <point x="128.375" y="16.0638" type="curve"/>
      <point x="158.235" y="64.8356"/>
      <point x="189.948" y="128.251"/>
    </contour>
    <contour>
      <point x="265.793" y="259.031" type="curve" smooth="yes"/>
      <point x="249.114" y="257.705" type="line"/>
      <point x="255.845" y="273.023" type="line" smooth="yes"/>
      <point x="313.71" y="404.715"/>
      <point x="369.662" y="550.58"/>
      <point x="411.637" y="662.511" type="curve" smooth="yes"/>
      <point x="419.898" y="684.541" type="line"/>
      <point x="430.026" y="663.305" type="line" smooth="yes"/>
      <point x="492.183" y="532.976"/>
      <point x="550.266" y="392.769"/>
      <point x="594.36" y="275.52" type="curve" smooth="yes"/>
      <point x="600.76" y="258.502" type="line"/>
      <point x="582.96" y="262.21" type="line" smooth="yes"/>
      <point x="559.542" y="267.089"/>
      <point x="530.167" y="271"/>
      <point x="499" y="271" type="curve" smooth="yes"/>
      <point x="444.541" y="271"/>
      <point x="353.6" y="266.016"/>
    </contour>
  </outline>
</glyph>
<glyph name="B" format="1">
  <advance width="800"/>
  <unicode hex="0042"/>
  <outline>
    <contour>
      <point x="233" y="353" type="line" smooth="yes"/>
      <point x="232" y="239"/>
      <point x="229" y="126"/>
      <point x="229" y="72" type="curve"/>
      <point x="245" y="64"/>
      <point x="279" y="59"/>
      <point x="322" y="59" type="curve" smooth="yes"/>
      <point x="403" y="59"/>
      <point x="514" y="79"/>
      <point x="577" y="139" type="curve" smooth="yes"/>
      <point x="607" y="168"/>
      <point x="631" y="208"/>
      <point x="636" y="266" type="curve" smooth="yes"/>
      <point x="636" y="271"/>
      <point x="637" y="276"/>
      <point x="637" y="281" type="curve" smooth="yes"/>
      <point x="637" y="369"/>
      <point x="569" y="395"/>
      <point x="482" y="395" type="curve" smooth="yes"/>
      <point x="471" y="395"/>
      <point x="460" y="395"/>
      <point x="449" y="394" type="curve" smooth="yes"/>
      <point x="430" y="393"/>
      <point x="410" y="390"/>
      <point x="391" y="387" type="curve" smooth="yes"/>
      <point x="352" y="373"/>
      <point x="309" y="360"/>
      <point x="266" y="352" type="curve"/>
      <point x="266" y="352"/>
      <point x="246" y="366"/>
      <point x="233" y="383" type="curve"/>
    </contour>
    <contour>
      <point x="233" y="421" type="line"/>
      <point x="239" y="424" type="line" smooth="yes"/>
      <point x="245" y="427"/>
      <point x="251" y="429"/>
      <point x="258" y="431" type="curve" smooth="yes"/>
      <point x="290" y="443"/>
      <point x="327" y="453"/>
      <point x="366" y="461" type="curve"/>
      <point x="393" y="471"/>
      <point x="418" y="481"/>
      <point x="441" y="492" type="curve" smooth="yes"/>
      <point x="503" y="520"/>
      <point x="537" y="572"/>
      <point x="537" y="622" type="curve" smooth="yes"/>
      <point x="537" y="644"/>
      <point x="530" y="666"/>
      <point x="516" y="685" type="curve" smooth="yes"/>
      <point x="494" y="716"/>
      <point x="449" y="742"/>
      <point x="374" y="742" type="curve" smooth="yes"/>
      <point x="309" y="742"/>
      <point x="221" y="722"/>
      <point x="104" y="668" type="curve" smooth="yes"/>
      <point x="93" y="663"/>
      <point x="81" y="661"/>
      <point x="70" y="661" type="curve" smooth="yes"/>
      <point x="53" y="661"/>
      <point x="39" y="666"/>
      <point x="31" y="677" type="curve" smooth="yes"/>
      <point x="27" y="682"/>
      <point x="26" y="688"/>
      <point x="26" y="694" type="curve" smooth="yes"/>
      <point x="26" y="709"/>
      <point x="37" y="723"/>
      <point x="56" y="732" type="curve" smooth="yes"/>
      <point x="187" y="792"/>
      <point x="300" y="819"/>
      <point x="392" y="819" type="curve" smooth="yes"/>
      <point x="461" y="819"/>
      <point x="519" y="804"/>
      <point x="562" y="777" type="curve" smooth="yes"/>
      <point x="618" y="742"/>
      <point x="646" y="689"/>
      <point x="646" y="634" type="curve" smooth="yes"/>
      <point x="646" y="577"/>
      <point x="616" y="517"/>
      <point x="558" y="470" type="curve"/>
      <point x="661" y="456"/>
      <point x="745" y="400"/>
      <point x="745" y="292" type="curve" smooth="yes"/>
      <point x="745" y="286"/>
      <point x="745" y="280"/>
      <point x="744" y="274" type="curve" smooth="yes"/>
      <point x="729" y="83"/>
      <point x="536" y="0"/>
      <point x="380" y="-17" type="curve" smooth="yes"/>
      <point x="353" y="-20"/>
      <point x="326" y="-22"/>
      <point x="300" y="-22" type="curve" smooth="yes"/>
      <point x="225" y="-22"/>
      <point x="157" y="-8"/>
      <point x="130" y="27" type="curve" smooth="yes"/>
      <point x="124" y="34"/>
      <point x="121" y="44"/>
      <point x="121" y="54" type="curve" smooth="yes"/>
      <point x="121" y="110"/>
      <point x="125" y="247"/>
      <point x="125" y="376" type="curve" smooth="yes"/>
      <point x="125" y="463"/>
      <point x="123" y="547"/>
      <point x="116" y="596" type="curve"/>
      <point x="116" y="600" type="line" smooth="yes"/>
      <point x="116" y="620"/>
      <point x="138" y="638"/>
      <point x="165" y="643" type="curve" smooth="yes"/>
      <point x="169" y="644"/>
      <point x="173" y="644"/>
      <point x="177" y="644" type="curve" smooth="yes"/>
      <point x="201" y="644"/>
      <point x="221" y="632"/>
      <point x="224" y="614" type="curve" smooth="yes"/>
      <point x="230" y="567"/>
      <point x="232" y="497"/>
      <point x="233" y="422" type="curve" smooth="yes"/>
    </contour>
    <contour>
      <point x="223" y="353.044" type="curve" smooth="yes"/>
      <point x="223" y="412.539" type="line"/>
      <point x="240.944" y="389.075" type="line" smooth="yes"/>
      <point x="249.547" y="377.824"/>
      <point x="262.132" y="367.451"/>
      <point x="268.428" y="362.639" type="curve"/>
      <point x="308.589" y="370.466"/>
      <point x="350.359" y="383.036"/>
      <point x="387.621" y="396.412" type="curve" smooth="yes"/>
      <point x="388.509" y="396.731" type="line"/>
      <point x="389.44" y="396.878" type="line" smooth="yes"/>
      <point x="408.371" y="399.867"/>
      <point x="429.057" y="402.964"/>
      <point x="448.284" y="403.976" type="curve"/>
      <point x="459.444" y="404.991"/>
      <point x="471.126" y="405"/>
      <point x="482" y="405" type="curve" smooth="yes"/>
      <point x="570.104" y="405"/>
      <point x="647" y="377.171"/>
      <point x="647" y="281" type="curve" smooth="yes"/>
      <point x="647" y="274.672"/>
      <point x="646" y="269.672"/>
      <point x="646" y="266" type="curve" smooth="yes"/>
      <point x="646" y="265.57" type="line"/>
      <point x="645.963" y="265.141" type="line" smooth="yes"/>
      <point x="640.75" y="204.674"/>
      <point x="615.389" y="162.201"/>
      <point x="583.95" y="131.81" type="curve" smooth="yes"/>
      <point x="517.612" y="68.6307"/>
      <point x="404.238" y="49"/>
      <point x="322" y="49" type="curve" smooth="yes"/>
      <point x="278.25" y="49"/>
      <point x="243.507" y="53.5661"/>
      <point x="224.528" y="63.0557" type="curve" smooth="yes"/>
      <point x="219" y="65.8197" type="line"/>
      <point x="219" y="72" type="line" smooth="yes"/>
      <point x="219" y="126.287"/>
      <point x="222.001" y="239.128"/>
    </contour>
    <contour>
      <point x="223" y="404.82" type="line"/>
      <point x="223" y="421.933" type="line"/>
      <point x="222.004" y="496.642"/>
      <point x="220.078" y="565.19"/>
      <point x="214.102" y="612.571" type="curve"/>
      <point x="212.027" y="623.119"/>
      <point x="198.712" y="634"/>
      <point x="177" y="634" type="curve" smooth="yes"/>
      <point x="172.972" y="634"/>
      <point x="169.893" y="633.916"/>
      <point x="167.425" y="633.299" type="curve" smooth="yes"/>
      <point x="167.125" y="633.224" type="line"/>
      <point x="166.821" y="633.167" type="line" smooth="yes"/>
      <point x="141.753" y="628.525"/>
      <point x="126" y="612.411"/>
      <point x="126" y="600" type="curve" smooth="yes"/>
      <point x="126" y="596.706" type="line"/>
      <point x="132.851" y="548.121"/>
      <point x="135" y="462.797"/>
      <point x="135" y="376" type="curve" smooth="yes"/>
      <point x="135" y="246.845"/>
      <point x="131" y="109.668"/>
      <point x="131" y="54" type="curve" smooth="yes"/>
      <point x="131" y="45.8943"/>
      <point x="133.569" y="38.2024"/>
      <point x="137.593" y="33.5079" type="curve" smooth="yes"/>
      <point x="137.76" y="33.3122" type="line"/>
      <point x="137.918" y="33.108" type="line" smooth="yes"/>
      <point x="161.119" y="3.0327"/>
      <point x="225.389" y="-12"/>
      <point x="300" y="-12" type="curve" smooth="yes"/>
      <point x="325.489" y="-12"/>
      <point x="352.138" y="-10.0342"/>
      <point x="378.896" y="-7.06116" type="curve" smooth="yes"/>
      <point x="533.676" y="9.80595"/>
      <point x="719.642" y="91.5683"/>
      <point x="734.031" y="274.783" type="curve" smooth="yes"/>
      <point x="734.065" y="275.216" type="line"/>
      <point x="734.136" y="275.644" type="line" smooth="yes"/>
      <point x="734.958" y="280.575"/>
      <point x="735" y="285.991"/>
      <point x="735" y="292" type="curve" smooth="yes"/>
      <point x="735" y="393.233"/>
      <point x="657.294" y="446.412"/>
      <point x="556.653" y="460.091" type="curve" smooth="yes"/>
      <point x="533.733" y="463.206" type="line"/>
      <point x="551.704" y="477.769" type="line" smooth="yes"/>
      <point x="607.825" y="523.247"/>
      <point x="636" y="580.575"/>
      <point x="636" y="634" type="curve" smooth="yes"/>
      <point x="636" y="685.463"/>
      <point x="610.032" y="735.187"/>
      <point x="556.7" y="768.52" type="curve" smooth="yes"/>
      <point x="515.684" y="794.274"/>
      <point x="459.596" y="809"/>
      <point x="392" y="809" type="curve" smooth="yes"/>
      <point x="301.974" y="809"/>
      <point x="190.17" y="782.453"/>
      <point x="60.2227" y="722.935" type="curve"/>
      <point x="43.3166" y="714.927"/>
      <point x="36" y="703.691"/>
      <point x="36" y="694" type="curve" smooth="yes"/>
      <point x="36" y="688.993"/>
      <point x="36.8447" y="685.702"/>
      <point x="38.8087" y="683.247" type="curve" smooth="yes"/>
      <point x="38.9522" y="683.068" type="line"/>
      <point x="39.0874" y="682.882" type="line" smooth="yes"/>
      <point x="44.4863" y="675.458"/>
      <point x="54.7296" y="671"/>
      <point x="70" y="671" type="curve" smooth="yes"/>
      <point x="79.8099" y="671"/>
      <point x="90.4414" y="672.822"/>
      <point x="99.862" y="677.104" type="curve" smooth="yes"/>
      <point x="217.599" y="731.444"/>
      <point x="306.988" y="752"/>
      <point x="374" y="752" type="curve" smooth="yes"/>
      <point x="451.244" y="752"/>
      <point x="499.896" y="724.97"/>
      <point x="524.103" y="690.86" type="curve"/>
      <point x="539.257" y="670.295"/>
      <point x="547" y="646.107"/>
      <point x="547" y="622" type="curve" smooth="yes"/>
      <point x="547" y="567.377"/>
      <point x="509.934" y="512.159"/>
      <point x="445.216" y="482.931" type="curve"/>
      <point x="422.028" y="471.842"/>
      <point x="396.556" y="461.653"/>
      <point x="369.473" y="451.623" type="curve" smooth="yes"/>
      <point x="368.757" y="451.357" type="line"/>
      <point x="368.009" y="451.204" type="line" smooth="yes"/>
      <point x="329.398" y="443.284"/>
      <point x="292.853" y="433.39"/>
      <point x="261.511" y="421.637" type="curve" smooth="yes"/>
      <point x="261.134" y="421.495" type="line"/>
      <point x="260.747" y="421.385" type="line" smooth="yes"/>
      <point x="253.971" y="419.449"/>
      <point x="248.661" y="417.65"/>
      <point x="243.472" y="415.056" type="curve" smooth="yes"/>
    </contour>
  </outline>
</glyph>
<glyph name="C" format="1">
  <advance width="750"/>
  <unicode hex="0043"/>
  <outline>
    <contour>
      <point x="684" y="178" type="curve" smooth="yes"/>
      <point x="705" y="174"/>
      <point x="717" y="160"/>
      <point x="717" y="145" type="curve" smooth="yes"/>
      <point x="717" y="140"/>
      <point x="715" y="134"/>
      <point x="712" y="128" type="curve" smooth="yes"/>
      <point x="664" y="50"/>
      <point x="565" y="-6"/>
      <point x="457" y="-18" type="curve" smooth="yes"/>
      <point x="442" y="-20"/>
      <point x="428" y="-20"/>
      <point x="413" y="-20" type="curve" smooth="yes"/>
      <point x="229" y="-20"/>
      <point x="68" y="109"/>
      <point x="68" y="387" type="curve" smooth="yes"/>
      <point x="68" y="651"/>
      <point x="225" y="799"/>
      <point x="407" y="819" type="curve" smooth="yes"/>
      <point x="420" y="820"/>
      <point x="432" y="821"/>
      <point x="445" y="821" type="curve" smooth="yes"/>
      <point x="576" y="821"/>
      <point x="683" y="747"/>
      <point x="683" y="632" type="curve" smooth="yes"/>
      <point x="683" y="610"/>
      <point x="657" y="589"/>
      <point x="626" y="586" type="curve" smooth="yes"/>
      <point x="618" y="586" type="line" smooth="yes"/>
      <point x="591" y="586"/>
      <point x="569" y="600"/>
      <point x="569" y="620" type="curve" smooth="yes"/>
      <point x="569" y="699"/>
      <point x="501" y="739"/>
      <point x="429" y="739" type="curve" smooth="yes"/>
      <point x="422" y="739"/>
      <point x="414" y="739"/>
      <point x="407" y="738" type="curve" smooth="yes"/>
      <point x="320" y="729"/>
      <point x="182" y="648"/>
      <point x="182" y="399" type="curve" smooth="yes"/>
      <point x="182" y="137"/>
      <point x="325" y="62"/>
      <point x="432" y="62" type="curve" smooth="yes"/>
      <point x="440" y="62"/>
      <point x="449" y="62"/>
      <point x="457" y="63" type="curve" smooth="yes"/>
      <point x="520" y="70"/>
      <point x="578" y="101"/>
      <point x="608" y="150" type="curve" smooth="yes"/>
      <point x="619" y="168"/>
      <point x="645" y="179"/>
      <point x="670" y="179" type="curve" smooth="yes"/>
      <point x="675" y="179"/>
      <point x="679" y="179"/>
    </contour>
    <contour>
      <point x="682.084" y="168.185" type="curve" smooth="yes"/>
      <point x="678.121" y="168.978"/>
      <point x="675.064" y="169"/>
      <point x="670" y="169" type="curve" smooth="yes"/>
      <point x="647.365" y="169"/>
      <point x="624.952" y="158.562"/>
      <point x="616.533" y="144.785" type="curve" smooth="yes"/>
      <point x="584.499" y="92.4642"/>
      <point x="523.416" y="60.318"/>
      <point x="458.172" y="53.0687" type="curve"/>
      <point x="449.438" y="51.9769"/>
      <point x="439.972" y="52"/>
      <point x="432" y="52" type="curve" smooth="yes"/>
      <point x="319.518" y="52"/>
      <point x="172" y="132.439"/>
      <point x="172" y="399" type="curve" smooth="yes"/>
      <point x="172" y="652.367"/>
      <point x="313.915" y="738.424"/>
      <point x="405.778" y="747.927" type="curve"/>
      <point x="413.36" y="749.01"/>
      <point x="422.103" y="749"/>
      <point x="429" y="749" type="curve" smooth="yes"/>
      <point x="504.055" y="749"/>
      <point x="579" y="706.368"/>
      <point x="579" y="620" type="curve" smooth="yes"/>
      <point x="579" y="608.67"/>
      <point x="593.134" y="596"/>
      <point x="618" y="596" type="curve" smooth="yes"/>
      <point x="625.515" y="596" type="line"/>
      <point x="652.961" y="599.028"/>
      <point x="673" y="617.651"/>
      <point x="673" y="632" type="curve" smooth="yes"/>
      <point x="673" y="739.465"/>
      <point x="572.921" y="811"/>
      <point x="445" y="811" type="curve" smooth="yes"/>
      <point x="432.629" y="811"/>
      <point x="420.601" y="810.017"/>
      <point x="407.93" y="809.042" type="curve"/>
      <point x="231.45" y="789.649"/>
      <point x="78" y="646.561"/>
      <point x="78" y="387" type="curve" smooth="yes"/>
      <point x="78" y="113.586"/>
      <point x="234.61" y="-10"/>
      <point x="413" y="-10" type="curve" smooth="yes"/>
      <point x="428.09" y="-10"/>
      <point x="441.353" y="-9.99777"/>
      <point x="455.787" y="-8.07325" type="curve"/>
      <point x="561.227" y="3.64235"/>
      <point x="656.715" y="57.8779"/>
      <point x="703.256" y="132.872" type="curve"/>
      <point x="705.403" y="137.333"/>
      <point x="707" y="142.741"/>
      <point x="707" y="145" type="curve" smooth="yes"/>
      <point x="707" y="154.156"/>
      <point x="699.674" y="164.835"/>
    </contour>
  </outline>
</glyph>
<glyph name="D" format="1">
  <advance width="810"/>
  <unicode hex="0044"/>
  <outline>
    <contour>
      <point x="34" y="675" type="curve" smooth="yes"/>
      <point x="28" y="681"/>
      <point x="26" y="687"/>
      <point x="26" y="694" type="curve" smooth="yes"/>
      <point x="26" y="707"/>
      <point x="35" y="721"/>
      <point x="51" y="730" type="curve" smooth="yes"/>
      <point x="125" y="771"/>
      <point x="206" y="800"/>
      <point x="287" y="813" type="curve" smooth="yes"/>
      <point x="317" y="818"/>
      <point x="346" y="820"/>
      <point x="375" y="820" type="curve" smooth="yes"/>
      <point x="562" y="820"/>
      <point x="711" y="717"/>
      <point x="734" y="494" type="curve" smooth="yes"/>
      <point x="737" y="465"/>
      <point x="739" y="438"/>
      <point x="739" y="412" type="curve" smooth="yes"/>
      <point x="739" y="123"/>
      <point x="550" y="1"/>
      <point x="370" y="-18" type="curve" smooth="yes"/>
      <point x="351" y="-20"/>
      <point x="332" y="-21"/>
      <point x="313" y="-21" type="curve" smooth="yes"/>
      <point x="228" y="-21"/>
      <point x="151" y="-1"/>
      <point x="127" y="42" type="curve" smooth="yes"/>
      <point x="123" y="48"/>
      <point x="121" y="56"/>
      <point x="121" y="64" type="curve" smooth="yes"/>
      <point x="121" y="118"/>
      <point x="125" y="247"/>
      <point x="125" y="369" type="curve" smooth="yes"/>
      <point x="125" y="458"/>
      <point x="123" y="544"/>
      <point x="116" y="596" type="curve"/>
      <point x="116" y="600" type="line" smooth="yes"/>
      <point x="116" y="620"/>
      <point x="138" y="638"/>
      <point x="165" y="643" type="curve" smooth="yes"/>
      <point x="169" y="644"/>
      <point x="173" y="644"/>
      <point x="177" y="644" type="curve" smooth="yes"/>
      <point x="201" y="644"/>
      <point x="221" y="632"/>
      <point x="224" y="614" type="curve" smooth="yes"/>
      <point x="231" y="560"/>
      <point x="233" y="475"/>
      <point x="233" y="388" type="curve" smooth="yes"/>
      <point x="233" y="265"/>
      <point x="229" y="137"/>
      <point x="229" y="80" type="curve"/>
      <point x="241" y="70"/>
      <point x="282" y="59"/>
      <point x="333" y="59" type="curve" smooth="yes"/>
      <point x="386" y="59"/>
      <point x="449" y="70"/>
      <point x="502" y="106" type="curve" smooth="yes"/>
      <point x="568" y="150"/>
      <point x="630" y="236"/>
      <point x="630" y="400" type="curve" smooth="yes"/>
      <point x="630" y="424"/>
      <point x="629" y="449"/>
      <point x="626" y="476" type="curve" smooth="yes"/>
      <point x="605" y="673"/>
      <point x="490" y="742"/>
      <point x="361" y="742" type="curve" smooth="yes"/>
      <point x="339" y="742"/>
      <point x="317" y="740"/>
      <point x="295" y="736" type="curve" smooth="yes"/>
      <point x="235" y="726"/>
      <point x="170" y="704"/>
      <point x="109" y="670" type="curve" smooth="yes"/>
      <point x="98" y="664"/>
      <point x="86" y="661"/>
      <point x="74" y="661" type="curve" smooth="yes"/>
      <point x="58" y="661"/>
      <point x="43" y="666"/>
    </contour>
    <contour>
      <point x="42.1595" y="680.983" type="curve" smooth="yes"/>
      <point x="48.5962" y="674.546"/>
      <point x="59.9086" y="671"/>
      <point x="74" y="671" type="curve" smooth="yes"/>
      <point x="84.3311" y="671"/>
      <point x="94.6689" y="673.574"/>
      <point x="104.211" y="678.779" type="curve" smooth="yes"/>
      <point x="166.047" y="713.245"/>
      <point x="232.304" y="735.689"/>
      <point x="293.283" y="745.852" type="curve"/>
      <point x="315.707" y="749.929"/>
      <point x="338.431" y="752"/>
      <point x="361" y="752" type="curve" smooth="yes"/>
      <point x="494.404" y="752"/>
      <point x="614.448" y="678.71"/>
      <point x="635.944" y="477.06" type="curve" smooth="yes"/>
      <point x="638.983" y="449.709"/>
      <point x="640" y="424.264"/>
      <point x="640" y="400" type="curve" smooth="yes"/>
      <point x="640" y="233.319"/>
      <point x="576.44" y="143.608"/>
      <point x="507.547" y="97.6795" type="curve" smooth="yes"/>
      <point x="452.411" y="60.2283"/>
      <point x="387.261" y="49"/>
      <point x="333" y="49" type="curve" smooth="yes"/>
      <point x="280.829" y="49"/>
      <point x="238.529" y="59.0423"/>
      <point x="222.598" y="72.3178" type="curve" smooth="yes"/>
      <point x="219" y="75.3163" type="line"/>
      <point x="219" y="80" type="line" smooth="yes"/>
      <point x="219" y="137.342"/>
      <point x="223" y="265.168"/>
      <point x="223" y="388" type="curve" smooth="yes"/>
      <point x="223" y="474.786"/>
      <point x="221.068" y="558.214"/>
      <point x="214.102" y="612.566" type="curve"/>
      <point x="212.026" y="623.122"/>
      <point x="198.713" y="634"/>
      <point x="177" y="634" type="curve" smooth="yes"/>
      <point x="172.972" y="634"/>
      <point x="169.893" y="633.916"/>
      <point x="167.425" y="633.299" type="curve" smooth="yes"/>
      <point x="167.125" y="633.224" type="line"/>
      <point x="166.821" y="633.167" type="line" smooth="yes"/>
      <point x="141.753" y="628.525"/>
      <point x="126" y="612.411"/>
      <point x="126" y="600" type="curve" smooth="yes"/>
      <point x="126" y="596.666" type="line"/>
      <point x="132.86" y="545.091"/>
      <point x="135" y="457.806"/>
      <point x="135" y="369" type="curve" smooth="yes"/>
      <point x="135" y="246.835"/>
      <point x="131" y="117.651"/>
      <point x="131" y="64" type="curve" smooth="yes"/>
      <point x="131" y="57.6015"/>
      <point x="132.722" y="51.4442"/>
      <point x="135.321" y="47.547" type="curve" smooth="yes"/>
      <point x="135.54" y="47.2185" type="line"/>
      <point x="135.732" y="46.8737" type="line" smooth="yes"/>
      <point x="156.23" y="10.1475"/>
      <point x="228.353" y="-11"/>
      <point x="313" y="-11" type="curve" smooth="yes"/>
      <point x="331.649" y="-11"/>
      <point x="350.298" y="-10.0186"/>
      <point x="368.953" y="-8.05495" type="curve" smooth="yes"/>
      <point x="545.118" y="10.5402"/>
      <point x="729" y="128.594"/>
      <point x="729" y="412" type="curve" smooth="yes"/>
      <point x="729" y="437.486"/>
      <point x="727.035" y="464.149"/>
      <point x="724.053" y="492.971" type="curve" smooth="yes"/>
      <point x="701.584" y="710.828"/>
      <point x="557.82" y="810"/>
      <point x="375" y="810" type="curve" smooth="yes"/>
      <point x="346.459" y="810"/>
      <point x="318.038" y="808.035"/>
      <point x="288.644" y="803.136" type="curve" smooth="yes"/>
      <point x="208.777" y="790.318"/>
      <point x="128.922" y="761.741"/>
      <point x="55.8464" y="721.253" type="curve" smooth="yes"/>
      <point x="42.2312" y="713.594"/>
      <point x="36" y="702.327"/>
      <point x="36" y="694" type="curve" smooth="yes"/>
      <point x="36" y="689.115"/>
      <point x="37.4269" y="685.715"/>
    </contour>
  </outline>
</glyph>
<glyph name="F" format="1">
  <advance width="710"/>
  <unicode hex="0046"/>
  <outline>
    <contour>
      <point x="654" y="781" type="curve" smooth="yes"/>
      <point x="654" y="760"/>
      <point x="630" y="739"/>
      <point x="600" y="736" type="curve" smooth="yes"/>
      <point x="551" y="731"/>
      <point x="461" y="726"/>
      <point x="329" y="726" type="curve" smooth="yes"/>
      <point x="295" y="726"/>
      <point x="259" y="726"/>
      <point x="219" y="727" type="curve"/>
      <point x="227" y="703"/>
      <point x="229" y="677"/>
      <point x="229" y="646" type="curve" smooth="yes"/>
      <point x="230" y="575"/>
      <point x="231" y="504"/>
      <point x="231" y="435" type="curve"/>
      <point x="267" y="434"/>
      <point x="298" y="433"/>
      <point x="330" y="433" type="curve" smooth="yes"/>
      <point x="387" y="433"/>
      <point x="444" y="435"/>
      <point x="524" y="439" type="curve"/>
      <point x="527" y="439" type="line" smooth="yes"/>
      <point x="554" y="439"/>
      <point x="574" y="425"/>
      <point x="574" y="406" type="curve" smooth="yes"/>
      <point x="574" y="403" type="line" smooth="yes"/>
      <point x="572" y="382"/>
      <point x="546" y="362"/>
      <point x="516" y="361" type="curve" smooth="yes"/>
      <point x="434" y="357"/>
      <point x="374" y="355"/>
      <point x="313" y="355" type="curve" smooth="yes"/>
      <point x="287" y="355"/>
      <point x="260" y="355"/>
      <point x="232" y="356" type="curve"/>
      <point x="232" y="241"/>
      <point x="230" y="131"/>
      <point x="224" y="29" type="curve" smooth="yes"/>
      <point x="223" y="8"/>
      <point x="198" y="-12"/>
      <point x="168" y="-14" type="curve" smooth="yes"/>
      <point x="163" y="-14" type="line" smooth="yes"/>
      <point x="136" y="-14"/>
      <point x="116" y="1"/>
      <point x="116" y="20" type="curve" smooth="yes"/>
      <point x="116" y="21" type="line"/>
      <point x="122" y="125"/>
      <point x="124" y="240"/>
      <point x="124" y="360" type="curve"/>
      <point x="119" y="360"/>
      <point x="113" y="361"/>
      <point x="108" y="361" type="curve" smooth="yes"/>
      <point x="83" y="362"/>
      <point x="66" y="377"/>
      <point x="66" y="395" type="curve" smooth="yes"/>
      <point x="66" y="398"/>
      <point x="66" y="400"/>
      <point x="67" y="403" type="curve" smooth="yes"/>
      <point x="72" y="422"/>
      <point x="97" y="437"/>
      <point x="123" y="439" type="curve"/>
      <point x="122" y="503"/>
      <point x="122" y="568"/>
      <point x="121" y="634" type="curve" smooth="yes"/>
      <point x="120" y="703"/>
      <point x="109" y="719"/>
      <point x="86" y="729" type="curve" smooth="yes"/>
      <point x="83" y="730"/>
      <point x="78" y="732"/>
      <point x="73" y="733" type="curve" smooth="yes"/>
      <point x="63" y="736"/>
      <point x="59" y="742"/>
      <point x="59" y="748" type="curve" smooth="yes"/>
      <point x="59" y="771"/>
      <point x="111" y="809"/>
      <point x="111" y="809" type="curve"/>
      <point x="196" y="805"/>
      <point x="271" y="804"/>
      <point x="335" y="804" type="curve" smooth="yes"/>
      <point x="469" y="804"/>
      <point x="557" y="810"/>
      <point x="600" y="814" type="curve"/>
      <point x="608" y="814" type="line" smooth="yes"/>
      <point x="634" y="814"/>
      <point x="654" y="800"/>
    </contour>
    <contour>
      <point x="644" y="781" type="curve" smooth="yes"/>
      <point x="644" y="791.752"/>
      <point x="631.456" y="804"/>
      <point x="608" y="804" type="curve" smooth="yes"/>
      <point x="600.463" y="804" type="line"/>
      <point x="558.195" y="800.084"/>
      <point x="469.006" y="794"/>
      <point x="335" y="794" type="curve" smooth="yes"/>
      <point x="271.408" y="794"/>
      <point x="199.669" y="794.908"/>
      <point x="114.139" y="798.843" type="curve"/>
      <point x="102.364" y="789.761"/>
      <point x="69" y="759.219"/>
      <point x="69" y="748" type="curve" smooth="yes"/>
      <point x="69" y="747.103"/>
      <point x="68.5239" y="745.069"/>
      <point x="75.3645" y="742.734" type="curve"/>
      <point x="80.593" y="741.537"/>
      <point x="86.8691" y="739.251"/>
      <point x="89.1623" y="738.487" type="curve" smooth="yes"/>
      <point x="89.5818" y="738.347" type="line"/>
      <point x="89.9873" y="738.171" type="line" smooth="yes"/>
      <point x="118.126" y="725.936"/>
      <point x="129.994" y="703.477"/>
      <point x="130.999" y="634.145" type="curve" smooth="yes"/>
      <point x="132" y="568.06"/>
      <point x="132" y="503.047"/>
      <point x="132.999" y="439.156" type="curve" smooth="yes"/>
      <point x="133.146" y="429.751" type="line"/>
      <point x="123.767" y="429.029" type="line" smooth="yes"/>
      <point x="99.9923" y="427.201"/>
      <point x="79.9968" y="413.094"/>
      <point x="76.6707" y="400.455" type="curve" smooth="yes"/>
      <point x="76.5887" y="400.143" type="line"/>
      <point x="76.4868" y="399.838" type="line" smooth="yes"/>
      <point x="75.9455" y="398.214"/>
      <point x="76" y="398.149"/>
      <point x="76" y="395" type="curve" smooth="yes"/>
      <point x="76" y="384.152"/>
      <point x="86.9039" y="371.852"/>
      <point x="108.2" y="371" type="curve"/>
      <point x="113.963" y="371"/>
      <point x="120.354" y="370"/>
      <point x="124" y="370" type="curve" smooth="yes"/>
      <point x="134" y="370" type="line"/>
      <point x="134" y="360" type="line" smooth="yes"/>
      <point x="134" y="239.819"/>
      <point x="132.061" y="126.243"/>
      <point x="126" y="20.711" type="curve"/>
      <point x="126" y="20" type="line" smooth="yes"/>
      <point x="126" y="9.08063"/>
      <point x="138.773" y="-4"/>
      <point x="163" y="-4" type="curve" smooth="yes"/>
      <point x="167.689" y="-4" type="line"/>
      <point x="194.063" y="-1.86288"/>
      <point x="213.354" y="15.6737"/>
      <point x="214.014" y="29.5315" type="curve"/>
      <point x="220.005" y="131.371"/>
      <point x="222" y="241.08"/>
      <point x="222" y="356" type="curve" smooth="yes"/>
      <point x="222" y="366.364" type="line"/>
      <point x="232.357" y="365.994" type="line" smooth="yes"/>
      <point x="260.128" y="365.002"/>
      <point x="287" y="365"/>
      <point x="313" y="365" type="curve" smooth="yes"/>
      <point x="373.825" y="365"/>
      <point x="433.477" y="366.986"/>
      <point x="515.59" y="370.992" type="curve"/>
      <point x="542.134" y="371.877"/>
      <point x="562.312" y="389.708"/>
      <point x="564" y="403.527" type="curve"/>
      <point x="564" y="406" type="line" smooth="yes"/>
      <point x="564" y="416.654"/>
      <point x="551.605" y="429"/>
      <point x="527" y="429" type="curve" smooth="yes"/>
      <point x="524" y="429" type="line"/>
      <point x="525" y="429.025"/>
      <point x="525.498" y="429.062"/>
      <point x="524.499" y="429.012" type="curve" smooth="yes"/>
      <point x="444.437" y="425.009"/>
      <point x="387.243" y="423"/>
      <point x="330" y="423" type="curve" smooth="yes"/>
      <point x="297.787" y="423"/>
      <point x="266.692" y="424.005"/>
      <point x="230.722" y="425.004" type="curve" smooth="yes"/>
      <point x="221" y="425.274" type="line"/>
      <point x="221" y="435" type="line" smooth="yes"/>
      <point x="221" y="503.951"/>
      <point x="220.002" y="574.765"/>
      <point x="219" y="645.93" type="curve"/>
      <point x="219" y="676.7"/>
      <point x="216.988" y="701.415"/>
      <point x="209.513" y="723.838" type="curve" smooth="yes"/>
      <point x="205.008" y="737.353" type="line"/>
      <point x="219.25" y="736.997" type="line" smooth="yes"/>
      <point x="259.1" y="736.001"/>
      <point x="295" y="736"/>
      <point x="329" y="736" type="curve" smooth="yes"/>
      <point x="460.731" y="736"/>
      <point x="550.507" y="741.002"/>
      <point x="598.985" y="745.948" type="curve" smooth="yes"/>
      <point x="626.007" y="748.651"/>
      <point x="644" y="767.563"/>
    </contour>
  </outline>
</glyph>
<glyph name="I" format="1">
  <advance width="480"/>
  <unicode hex="0049"/>
  <outline>
    <contour>
      <point x="55" y="38" type="curve" smooth="yes"/>
      <point x="63" y="55"/>
      <point x="90" y="69"/>
      <point x="116" y="69" type="curve" smooth="yes"/>
      <point x="119" y="69" type="line" smooth="yes"/>
      <point x="145" y="68"/>
      <point x="170" y="66"/>
      <point x="192" y="65" type="curve"/>
      <point x="189" y="75"/>
      <point x="188" y="83"/>
      <point x="188" y="93" type="curve" smooth="yes"/>
      <point x="188" y="273"/>
      <point x="194" y="406"/>
      <point x="194" y="574" type="curve" smooth="yes"/>
      <point x="194" y="606"/>
      <point x="193" y="638"/>
      <point x="193" y="673" type="curve" smooth="yes"/>
      <point x="192" y="728"/>
      <point x="171" y="714"/>
      <point x="89" y="732" type="curve" smooth="yes"/>
      <point x="85" y="733"/>
      <point x="81" y="733"/>
      <point x="77" y="734" type="curve"/>
      <point x="77" y="739" type="line" smooth="yes"/>
      <point x="77" y="754"/>
      <point x="80" y="798"/>
      <point x="117" y="798" type="curve" smooth="yes"/>
      <point x="119" y="798" type="line" smooth="yes"/>
      <point x="172" y="796"/>
      <point x="222" y="795"/>
      <point x="268" y="795" type="curve" smooth="yes"/>
      <point x="309" y="795"/>
      <point x="347" y="796"/>
      <point x="381" y="798" type="curve" smooth="yes"/>
      <point x="386" y="798" type="line" smooth="yes"/>
      <point x="409" y="798"/>
      <point x="426" y="787"/>
      <point x="426" y="772" type="curve" smooth="yes"/>
      <point x="426" y="768" type="line" smooth="yes"/>
      <point x="423" y="750"/>
      <point x="397" y="734"/>
      <point x="369" y="732" type="curve" smooth="yes"/>
      <point x="343" y="730"/>
      <point x="318" y="730"/>
      <point x="288" y="729" type="curve"/>
      <point x="294" y="717"/>
      <point x="297" y="703"/>
      <point x="297" y="687" type="curve" smooth="yes"/>
      <point x="297" y="652"/>
      <point x="298" y="619"/>
      <point x="298" y="587" type="curve" smooth="yes"/>
      <point x="298" y="418"/>
      <point x="292" y="286"/>
      <point x="292" y="107" type="curve" smooth="yes"/>
      <point x="292" y="105" type="line" smooth="yes"/>
      <point x="292" y="78"/>
      <point x="293" y="77"/>
      <point x="329" y="77" type="curve" smooth="yes"/>
      <point x="337" y="77" type="line" smooth="yes"/>
      <point x="352" y="77"/>
      <point x="373" y="76"/>
      <point x="400" y="75" type="curve" smooth="yes"/>
      <point x="418" y="74"/>
      <point x="424" y="68"/>
      <point x="424" y="60" type="curve" smooth="yes"/>
      <point x="424" y="41"/>
      <point x="390" y="11"/>
      <point x="390" y="11" type="curve"/>
      <point x="336" y="1"/>
      <point x="289" y="-3"/>
      <point x="241" y="-3" type="curve" smooth="yes"/>
      <point x="193" y="-3"/>
      <point x="145" y="1"/>
      <point x="91" y="3" type="curve" smooth="yes"/>
      <point x="69" y="4"/>
      <point x="53" y="15"/>
      <point x="53" y="29" type="curve" smooth="yes"/>
      <point x="53" y="32"/>
      <point x="54" y="35"/>
    </contour>
    <contour>
      <point x="64.2894" y="34.246" type="curve" smooth="yes"/>
      <point x="63.7059" y="32.4737"/>
      <point x="63" y="29.4711"/>
      <point x="63" y="29" type="curve" smooth="yes"/>
      <point x="63" y="23.6736"/>
      <point x="71.15" y="13.9126"/>
      <point x="91.4541" y="12.9897" type="curve" smooth="yes"/>
      <point x="145.553" y="10.986"/>
      <point x="193.613" y="7"/>
      <point x="241" y="7" type="curve" smooth="yes"/>
      <point x="287.745" y="7"/>
      <point x="332.368" y="10.6871"/>
      <point x="385.371" y="20.317" type="curve"/>
      <point x="392.461" y="26.9539"/>
      <point x="414" y="51.1475"/>
      <point x="414" y="60" type="curve" smooth="yes"/>
      <point x="414" y="60.345"/>
      <point x="415.998" y="64.0958"/>
      <point x="399.538" y="65.0103" type="curve"/>
      <point x="372.706" y="66.004"/>
      <point x="351.52" y="67"/>
      <point x="337" y="67" type="curve" smooth="yes"/>
      <point x="329" y="67" type="line" smooth="yes"/>
      <point x="310.594" y="67"/>
      <point x="297.417" y="65.454"/>
      <point x="288.431" y="75.2033" type="curve" smooth="yes"/>
      <point x="280.904" y="83.3698"/>
      <point x="282" y="93.5925"/>
      <point x="282" y="105" type="curve" smooth="yes"/>
      <point x="282" y="107" type="line" smooth="yes"/>
      <point x="282" y="286.249"/>
      <point x="288" y="418.264"/>
      <point x="288" y="587" type="curve" smooth="yes"/>
      <point x="288" y="618.791"/>
      <point x="287" y="651.809"/>
      <point x="287" y="687" type="curve" smooth="yes"/>
      <point x="287" y="701.761"/>
      <point x="284.25" y="714.139"/>
      <point x="279.056" y="724.528" type="curve" smooth="yes"/>
      <point x="272.082" y="738.475" type="line"/>
      <point x="287.667" y="738.994" type="line" smooth="yes"/>
      <point x="317.867" y="740.001"/>
      <point x="342.739" y="740.009"/>
      <point x="368.233" y="741.971" type="curve" smooth="yes"/>
      <point x="393.736" y="743.792"/>
      <point x="413.555" y="758.455"/>
      <point x="416" y="768.953" type="curve"/>
      <point x="416" y="772" type="line" smooth="yes"/>
      <point x="416" y="778.104"/>
      <point x="407.243" y="788"/>
      <point x="386" y="788" type="curve" smooth="yes"/>
      <point x="381.296" y="788" type="line"/>
      <point x="347.654" y="786.043"/>
      <point x="309.028" y="785"/>
      <point x="268" y="785" type="curve" smooth="yes"/>
      <point x="221.983" y="785"/>
      <point x="171.482" y="786.012"/>
      <point x="118.811" y="788" type="curve"/>
      <point x="117" y="788" type="line" smooth="yes"/>
      <point x="93.2813" y="788"/>
      <point x="87.8137" y="762.251"/>
      <point x="87.0585" y="742.55" type="curve"/>
      <point x="87.1441" y="742.536"/>
      <point x="90.0108" y="742.055"/>
      <point x="91.2852" y="741.736" type="curve"/>
      <point x="167.877" y="724.924"/>
      <point x="201.847" y="736.495"/>
      <point x="203" y="673.091" type="curve"/>
      <point x="203" y="638.082"/>
      <point x="204" y="606.266"/>
      <point x="204" y="574" type="curve" smooth="yes"/>
      <point x="204" y="405.735"/>
      <point x="198" y="272.754"/>
      <point x="198" y="93" type="curve" smooth="yes"/>
      <point x="198" y="83.6653"/>
      <point x="198.828" y="77.0396"/>
      <point x="201.578" y="67.8735" type="curve" smooth="yes"/>
      <point x="205.629" y="54.3702" type="line"/>
      <point x="191.546" y="55.0103" type="line" smooth="yes"/>
      <point x="169.448" y="56.0148"/>
      <point x="144.08" y="58.028"/>
      <point x="118.808" y="59" type="curve"/>
      <point x="116" y="59" type="line" smooth="yes"/>
      <point x="93.3623" y="59"/>
      <point x="70.9221" y="46.6716"/>
    </contour>
  </outline>
</glyph>
<glyph name="J" format="1">
  <advance width="540"/>
  <unicode hex="004A"/>
  <outline>
    <contour>
      <point x="422" y="229" type="curve" smooth="yes"/>
      <point x="422" y="134"/>
      <point x="413" y="4"/>
      <point x="251" y="-13" type="curve" smooth="yes"/>
      <point x="241" y="-14"/>
      <point x="230" y="-14"/>
      <point x="220" y="-14" type="curve" smooth="yes"/>
      <point x="130" y="-14"/>
      <point x="56" y="31"/>
      <point x="21" y="78" type="curve" smooth="yes"/>
      <point x="17" y="83"/>
      <point x="16" y="88"/>
      <point x="16" y="94" type="curve" smooth="yes"/>
      <point x="16" y="108"/>
      <point x="27" y="123"/>
      <point x="46" y="132" type="curve" smooth="yes"/>
      <point x="56" y="137"/>
      <point x="67" y="139"/>
      <point x="78" y="139" type="curve" smooth="yes"/>
      <point x="95" y="139"/>
      <point x="111" y="133"/>
      <point x="119" y="122" type="curve" smooth="yes"/>
      <point x="142" y="91"/>
      <point x="196" y="64"/>
      <point x="236" y="64" type="curve" smooth="yes"/>
      <point x="242" y="64"/>
      <point x="247" y="65"/>
      <point x="251" y="65" type="curve" smooth="yes"/>
      <point x="291" y="69"/>
      <point x="318" y="102"/>
      <point x="318" y="216" type="curve" smooth="yes"/>
      <point x="318" y="336"/>
      <point x="310" y="565"/>
      <point x="298" y="671" type="curve" smooth="yes"/>
      <point x="291" y="728"/>
      <point x="245" y="710"/>
      <point x="152" y="734" type="curve"/>
      <point x="152" y="739" type="line" smooth="yes"/>
      <point x="152" y="754"/>
      <point x="155" y="798"/>
      <point x="192" y="798" type="curve" smooth="yes"/>
      <point x="194" y="798" type="line" smooth="yes"/>
      <point x="247" y="796"/>
      <point x="297" y="795"/>
      <point x="343" y="795" type="curve" smooth="yes"/>
      <point x="384" y="795"/>
      <point x="422" y="796"/>
      <point x="456" y="798" type="curve" smooth="yes"/>
      <point x="461" y="798" type="line" smooth="yes"/>
      <point x="485" y="798"/>
      <point x="502" y="786"/>
      <point x="502" y="771" type="curve" smooth="yes"/>
      <point x="502" y="768" type="line" smooth="yes"/>
      <point x="499" y="750"/>
      <point x="472" y="734"/>
      <point x="444" y="732" type="curve" smooth="yes"/>
      <point x="426" y="731"/>
      <point x="408" y="731"/>
      <point x="388" y="730" type="curve"/>
      <point x="395" y="719"/>
      <point x="400" y="705"/>
      <point x="402" y="689" type="curve" smooth="yes"/>
      <point x="414" y="579"/>
      <point x="422" y="351"/>
    </contour>
    <contour>
      <point x="412" y="229" type="curve" smooth="yes"/>
      <point x="412" y="350.512"/>
      <point x="403.958" y="578.837"/>
      <point x="392.067" y="687.838" type="curve"/>
      <point x="390.253" y="702.353"/>
      <point x="385.641" y="715.08"/>
      <point x="379.563" y="724.631" type="curve" smooth="yes"/>
      <point x="370.337" y="739.129" type="line"/>
      <point x="387.501" y="739.988" type="line" smooth="yes"/>
      <point x="407.753" y="741"/>
      <point x="425.928" y="741.011"/>
      <point x="443.366" y="741.98" type="curve"/>
      <point x="468.804" y="743.797"/>
      <point x="489.573" y="758.662"/>
      <point x="492" y="768.96" type="curve"/>
      <point x="492" y="771" type="line" smooth="yes"/>
      <point x="492" y="777.339"/>
      <point x="482.947" y="788"/>
      <point x="461" y="788" type="curve" smooth="yes"/>
      <point x="456.296" y="788" type="line"/>
      <point x="422.654" y="786.043"/>
      <point x="384.028" y="785"/>
      <point x="343" y="785" type="curve" smooth="yes"/>
      <point x="296.983" y="785"/>
      <point x="246.482" y="786.012"/>
      <point x="193.811" y="788" type="curve"/>
      <point x="192" y="788" type="line" smooth="yes"/>
      <point x="167.723" y="788"/>
      <point x="162.56" y="760.487"/>
      <point x="162.037" y="741.803" type="curve"/>
      <point x="243.026" y="722.488"/>
      <point x="299.958" y="737.098"/>
      <point x="307.925" y="672.219" type="curve" smooth="yes"/>
      <point x="320.05" y="565.119"/>
      <point x="328" y="336.51"/>
      <point x="328" y="216" type="curve" smooth="yes"/>
      <point x="328" y="101.767"/>
      <point x="300.142" y="59.8644"/>
      <point x="251.995" y="55.0496" type="curve" smooth="yes"/>
      <point x="251.499" y="55" type="line"/>
      <point x="251" y="55" type="line" smooth="yes"/>
      <point x="248.604" y="55"/>
      <point x="243.068" y="54"/>
      <point x="236" y="54" type="curve" smooth="yes"/>
      <point x="192.297" y="54"/>
      <point x="136.27" y="81.9407"/>
      <point x="110.969" y="116.042" type="curve" smooth="yes"/>
      <point x="105.554" y="123.487"/>
      <point x="93.0023" y="129"/>
      <point x="78" y="129" type="curve" smooth="yes"/>
      <point x="68.1433" y="129"/>
      <point x="58.8948" y="127.267"/>
      <point x="50.377" y="123.008" type="curve"/>
      <point x="33.4078" y="114.97"/>
      <point x="26" y="102.689"/>
      <point x="26" y="94" type="curve" smooth="yes"/>
      <point x="26" y="89.0486"/>
      <point x="26.3958" y="87.263"/>
      <point x="28.9169" y="84.1116" type="curve"/>
      <point x="62.1078" y="39.5411"/>
      <point x="133.259" y="-4"/>
      <point x="220" y="-4" type="curve" smooth="yes"/>
      <point x="229.989" y="-4"/>
      <point x="240.712" y="-3.97894"/>
      <point x="250.005" y="-3.04963" type="curve" smooth="yes"/>
      <point x="403.63" y="13.0716"/>
      <point x="412" y="133.633"/>
    </contour>
  </outline>
</glyph>
<glyph name="O" format="1">
  <advance width="830"/>
  <unicode hex="004F"/>
  <outline>
    <contour>
      <point x="593" y="623" type="curve"/>
      <point x="567" y="703"/>
      <point x="493" y="742"/>
      <point x="421" y="742" type="curve" smooth="yes"/>
      <point x="403" y="742"/>
      <point x="386" y="740"/>
      <point x="369" y="735" type="curve" smooth="yes"/>
      <point x="284" y="713"/>
      <point x="174" y="620"/>
      <point x="174" y="397" type="curve" smooth="yes"/>
      <point x="174" y="154"/>
      <point x="320" y="57"/>
      <point x="428" y="57" type="curve" smooth="yes"/>
      <point x="434" y="57"/>
      <point x="441" y="57"/>
      <point x="447" y="58" type="curve" smooth="yes"/>
      <point x="536" y="68"/>
      <point x="659" y="155"/>
      <point x="659" y="378" type="curve" smooth="yes"/>
      <point x="659" y="457"/>
      <point x="620" y="549"/>
      <point x="601" y="559" type="curve" smooth="yes"/>
      <point x="584" y="564"/>
      <point x="572" y="576"/>
      <point x="572" y="591" type="curve" smooth="yes"/>
      <point x="572" y="596"/>
      <point x="573" y="602"/>
      <point x="577" y="608" type="curve" smooth="yes"/>
      <point x="581" y="614"/>
      <point x="586" y="619"/>
    </contour>
    <contour>
      <point x="686" y="616" type="curve"/>
      <point x="745" y="572"/>
      <point x="767" y="472"/>
      <point x="767" y="390" type="curve" smooth="yes"/>
      <point x="767" y="156"/>
      <point x="632" y="0"/>
      <point x="447" y="-20" type="curve" smooth="yes"/>
      <point x="434" y="-21"/>
      <point x="422" y="-22"/>
      <point x="409" y="-22" type="curve" smooth="yes"/>
      <point x="219" y="-22"/>
      <point x="66" y="131"/>
      <point x="66" y="385" type="curve" smooth="yes"/>
      <point x="66" y="620"/>
      <point x="185" y="766"/>
      <point x="346" y="809" type="curve" smooth="yes"/>
      <point x="377" y="817"/>
      <point x="408" y="821"/>
      <point x="438" y="821" type="curve" smooth="yes"/>
      <point x="561" y="821"/>
      <point x="666" y="755"/>
      <point x="699" y="652" type="curve" smooth="yes"/>
      <point x="700" y="649"/>
      <point x="700" y="647"/>
      <point x="700" y="644" type="curve" smooth="yes"/>
      <point x="700" y="635"/>
      <point x="695" y="624"/>
    </contour>
    <contour>
      <point x="602.51" y="626.091" type="curve" smooth="yes"/>
      <point x="605.025" y="618.354" type="line"/>
      <point x="597.961" y="614.318" type="line" smooth="yes"/>
      <point x="592.328" y="611.098"/>
      <point x="588.598" y="607.37"/>
      <point x="585.321" y="602.453" type="curve" smooth="yes"/>
      <point x="582.647" y="598.443"/>
      <point x="582" y="594.673"/>
      <point x="582" y="591" type="curve" smooth="yes"/>
      <point x="582" y="581.971"/>
      <point x="589.352" y="572.849"/>
      <point x="603.822" y="568.594" type="curve" smooth="yes"/>
      <point x="604.777" y="568.313" type="line"/>
      <point x="605.657" y="567.849" type="line" smooth="yes"/>
      <point x="632.082" y="553.941"/>
      <point x="669" y="458.492"/>
      <point x="669" y="378" type="curve" smooth="yes"/>
      <point x="669" y="150.911"/>
      <point x="542.327" y="58.648"/>
      <point x="448.55" y="48.1112" type="curve"/>
      <point x="441.527" y="47.0778"/>
      <point x="433.994" y="47"/>
      <point x="428" y="47" type="curve" smooth="yes"/>
      <point x="313.824" y="47"/>
      <point x="164" y="149.551"/>
      <point x="164" y="397" type="curve" smooth="yes"/>
      <point x="164" y="623.581"/>
      <point x="276.757" y="721.455"/>
      <point x="366.336" y="744.64" type="curve"/>
      <point x="384.036" y="749.846"/>
      <point x="402.354" y="752"/>
      <point x="421" y="752" type="curve" smooth="yes"/>
      <point x="496.384" y="752"/>
      <point x="574.932" y="710.947"/>
    </contour>
    <contour>
      <point x="680.022" y="607.984" type="curve" smooth="yes"/>
      <point x="670.184" y="615.321" type="line"/>
      <point x="679.356" y="623.474" type="line" smooth="yes"/>
      <point x="686.437" y="629.768"/>
      <point x="690" y="638.494"/>
      <point x="690" y="644" type="curve" smooth="yes"/>
      <point x="690" y="647.179"/>
      <point x="690.076" y="647.15"/>
      <point x="689.495" y="648.893" type="curve"/>
      <point x="658.058" y="747.014"/>
      <point x="557.624" y="811"/>
      <point x="438" y="811" type="curve" smooth="yes"/>
      <point x="408.889" y="811"/>
      <point x="378.718" y="807.116"/>
      <point x="348.499" y="799.317" type="curve" smooth="yes"/>
      <point x="192.46" y="757.642"/>
      <point x="76" y="616.409"/>
      <point x="76" y="385" type="curve" smooth="yes"/>
      <point x="76" y="135.22"/>
      <point x="225.287" y="-12"/>
      <point x="409" y="-12" type="curve" smooth="yes"/>
      <point x="421.377" y="-12"/>
      <point x="433.387" y="-11.0176"/>
      <point x="446.079" y="-10.0413" type="curve"/>
      <point x="625.058" y="9.30778"/>
      <point x="757" y="159.991"/>
      <point x="757" y="390" type="curve" smooth="yes"/>
      <point x="757" y="470.96"/>
      <point x="734.443" y="567.398"/>
    </contour>
  </outline>
</glyph>
<glyph name="P" format="1">
  <advance width="760"/>
  <unicode hex="0050"/>
  <outline>
    <contour>
      <point x="179" y="-24" type="curve" smooth="yes"/>
      <point x="172" y="-24" type="line" smooth="yes"/>
      <point x="146" y="-24"/>
      <point x="126" y="-10"/>
      <point x="126" y="9" type="curve" smooth="yes"/>
      <point x="126" y="10" type="line" smooth="yes"/>
      <point x="129" y="91"/>
      <point x="130" y="178"/>
      <point x="130" y="262" type="curve" smooth="yes"/>
      <point x="130" y="339" type="line"/>
      <point x="107" y="346"/>
      <point x="82" y="355"/>
      <point x="58" y="365" type="curve" smooth="yes"/>
      <point x="44" y="371"/>
      <point x="36" y="382"/>
      <point x="36" y="394" type="curve" smooth="yes"/>
      <point x="36" y="402"/>
      <point x="39" y="410"/>
      <point x="46" y="418" type="curve" smooth="yes"/>
      <point x="58" y="431"/>
      <point x="79" y="439"/>
      <point x="99" y="439" type="curve" smooth="yes"/>
      <point x="107" y="439"/>
      <point x="115" y="438"/>
      <point x="122" y="435" type="curve" smooth="yes"/>
      <point x="124" y="434"/>
      <point x="125" y="434"/>
      <point x="127" y="433" type="curve"/>
      <point x="125" y="498"/>
      <point x="121" y="554"/>
      <point x="116" y="596" type="curve"/>
      <point x="116" y="600" type="line" smooth="yes"/>
      <point x="116" y="620"/>
      <point x="138" y="638"/>
      <point x="165" y="643" type="curve" smooth="yes"/>
      <point x="169" y="644"/>
      <point x="173" y="644"/>
      <point x="177" y="644" type="curve" smooth="yes"/>
      <point x="201" y="644"/>
      <point x="221" y="632"/>
      <point x="224" y="614" type="curve" smooth="yes"/>
      <point x="232" y="559"/>
      <point x="236" y="483"/>
      <point x="238" y="397" type="curve"/>
      <point x="288" y="384"/>
      <point x="331" y="379"/>
      <point x="368" y="379" type="curve" smooth="yes"/>
      <point x="459" y="379"/>
      <point x="516" y="411"/>
      <point x="549" y="447" type="curve" smooth="yes"/>
      <point x="578" y="479"/>
      <point x="592" y="521"/>
      <point x="592" y="562" type="curve" smooth="yes"/>
      <point x="592" y="629"/>
      <point x="555" y="696"/>
      <point x="480" y="726" type="curve" smooth="yes"/>
      <point x="453" y="737"/>
      <point x="420" y="744"/>
      <point x="379" y="744" type="curve" smooth="yes"/>
      <point x="310" y="744"/>
      <point x="219" y="724"/>
      <point x="105" y="668" type="curve" smooth="yes"/>
      <point x="95" y="663"/>
      <point x="84" y="661"/>
      <point x="73" y="661" type="curve" smooth="yes"/>
      <point x="56" y="661"/>
      <point x="41" y="667"/>
      <point x="32" y="677" type="curve" smooth="yes"/>
      <point x="28" y="682"/>
      <point x="26" y="688"/>
      <point x="26" y="694" type="curve" smooth="yes"/>
      <point x="26" y="708"/>
      <point x="37" y="723"/>
      <point x="55" y="732" type="curve" smooth="yes"/>
      <point x="184" y="795"/>
      <point x="300" y="823"/>
      <point x="396" y="823" type="curve" smooth="yes"/>
      <point x="452" y="823"/>
      <point x="501" y="813"/>
      <point x="543" y="796" type="curve" smooth="yes"/>
      <point x="650" y="753"/>
      <point x="703" y="665"/>
      <point x="703" y="576" type="curve" smooth="yes"/>
      <point x="703" y="519"/>
      <point x="681" y="460"/>
      <point x="637" y="412" type="curve" smooth="yes"/>
      <point x="575" y="344"/>
      <point x="476" y="302"/>
      <point x="350" y="302" type="curve" smooth="yes"/>
      <point x="315" y="302"/>
      <point x="278" y="305"/>
      <point x="239" y="312" type="curve"/>
      <point x="239" y="216"/>
      <point x="237" y="114"/>
      <point x="234" y="20" type="curve" smooth="yes"/>
      <point x="233" y="-1"/>
      <point x="209" y="-21"/>
    </contour>
    <contour>
      <point x="178.498" y="-14" type="line"/>
      <point x="204.685" y="-11.0154"/>
      <point x="223.349" y="6.56206"/>
      <point x="224.008" y="20.3973" type="curve"/>
      <point x="226.999" y="114.126"/>
      <point x="229" y="216.19"/>
      <point x="229" y="312" type="curve" smooth="yes"/>
      <point x="229" y="323.955" type="line"/>
      <point x="240.767" y="321.843" type="line" smooth="yes"/>
      <point x="279.173" y="314.949"/>
      <point x="315.572" y="312"/>
      <point x="350" y="312" type="curve" smooth="yes"/>
      <point x="473.817" y="312"/>
      <point x="569.862" y="353.207"/>
      <point x="629.61" y="418.738" type="curve" smooth="yes"/>
      <point x="672.004" y="464.985"/>
      <point x="693" y="521.563"/>
      <point x="693" y="576" type="curve" smooth="yes"/>
      <point x="693" y="660.86"/>
      <point x="642.759" y="745.133"/>
      <point x="539.271" y="786.721" type="curve" smooth="yes"/>
      <point x="498.472" y="803.235"/>
      <point x="450.819" y="813"/>
      <point x="396" y="813" type="curve" smooth="yes"/>
      <point x="301.931" y="813"/>
      <point x="187.33" y="785.498"/>
      <point x="59.3884" y="723.014" type="curve" smooth="yes"/>
      <point x="43.7146" y="715.177"/>
      <point x="36" y="702.727"/>
      <point x="36" y="694" type="curve" smooth="yes"/>
      <point x="36" y="690.295"/>
      <point x="36.8743" y="687.193"/>
      <point x="39.6188" y="683.482" type="curve"/>
      <point x="46.1" y="676.598"/>
      <point x="58.1602" y="671"/>
      <point x="73" y="671" type="curve" smooth="yes"/>
      <point x="82.8066" y="671"/>
      <point x="92.2143" y="672.788"/>
      <point x="100.528" y="676.944" type="curve" smooth="yes"/>
      <point x="215.692" y="733.516"/>
      <point x="308.034" y="754"/>
      <point x="379" y="754" type="curve" smooth="yes"/>
      <point x="421.137" y="754"/>
      <point x="455.496" y="746.781"/>
      <point x="483.773" y="735.261" type="curve" smooth="yes"/>
      <point x="562.673" y="703.701"/>
      <point x="602" y="632.666"/>
      <point x="602" y="562" type="curve" smooth="yes"/>
      <point x="602" y="518.776"/>
      <point x="587.275" y="474.343"/>
      <point x="556.41" y="440.285" type="curve" smooth="yes"/>
      <point x="521.372" y="402.062"/>
      <point x="461.442" y="369"/>
      <point x="368" y="369" type="curve" smooth="yes"/>
      <point x="330.096" y="369"/>
      <point x="286.23" y="374.128"/>
      <point x="235.484" y="387.322" type="curve" smooth="yes"/>
      <point x="228.178" y="389.221" type="line"/>
      <point x="228.003" y="396.768" type="line" smooth="yes"/>
      <point x="226.009" y="482.509"/>
      <point x="221.969" y="558.487"/>
      <point x="214.119" y="612.458" type="curve"/>
      <point x="212.323" y="623.233"/>
      <point x="198.485" y="634"/>
      <point x="177" y="634" type="curve" smooth="yes"/>
      <point x="172.972" y="634"/>
      <point x="169.893" y="633.916"/>
      <point x="167.425" y="633.299" type="curve" smooth="yes"/>
      <point x="167.125" y="633.224" type="line"/>
      <point x="166.821" y="633.167" type="line" smooth="yes"/>
      <point x="141.753" y="628.525"/>
      <point x="126" y="612.411"/>
      <point x="126" y="600" type="curve" smooth="yes"/>
      <point x="126" y="596.592" type="line"/>
      <point x="130.854" y="555.554"/>
      <point x="135" y="498.159"/>
      <point x="136.995" y="433.308" type="curve" smooth="yes"/>
      <point x="137.51" y="416.564" type="line"/>
      <point x="122.528" y="424.056" type="line" smooth="yes"/>
      <point x="122.395" y="424.122"/>
      <point x="120.556" y="424.561"/>
      <point x="118.061" y="425.809" type="curve"/>
      <point x="112.858" y="428.039"/>
      <point x="106.198" y="429"/>
      <point x="99" y="429" type="curve" smooth="yes"/>
      <point x="81.4676" y="429"/>
      <point x="62.8376" y="421.498"/>
      <point x="53.4382" y="411.315" type="curve"/>
      <point x="47.8724" y="404.954"/>
      <point x="46" y="399.316"/>
      <point x="46" y="394" type="curve" smooth="yes"/>
      <point x="46" y="386.807"/>
      <point x="50.7054" y="379.006"/>
      <point x="61.8928" y="374.211" type="curve"/>
      <point x="85.4984" y="364.376"/>
      <point x="110.278" y="355.455"/>
      <point x="132.912" y="348.567" type="curve" smooth="yes"/>
      <point x="140" y="346.409" type="line"/>
      <point x="140" y="262" type="line" smooth="yes"/>
      <point x="140" y="178.043"/>
      <point x="138.991" y="90.5644"/>
      <point x="136" y="9.81488" type="curve"/>
      <point x="136" y="9" type="line" smooth="yes"/>
      <point x="136" y="-1.75235"/>
      <point x="148.544" y="-14"/>
      <point x="172" y="-14" type="curve" smooth="yes"/>
    </contour>
  </outline>
</glyph>
<glyph name="Q" format="1">
  <advance width="830"/>
  <unicode hex="0051"/>
  <outline>
    <contour>
      <point x="547" y="93" type="curve"/>
      <point x="616" y="138"/>
      <point x="675" y="228"/>
      <point x="675" y="380" type="curve" smooth="yes"/>
      <point x="675" y="471"/>
      <point x="637" y="514"/>
      <point x="598" y="514" type="curve" smooth="yes"/>
      <point x="566" y="514"/>
      <point x="526" y="489"/>
      <point x="508" y="401" type="curve" smooth="yes"/>
      <point x="503" y="376"/>
      <point x="501" y="348"/>
      <point x="501" y="320" type="curve" smooth="yes"/>
      <point x="501" y="248"/>
      <point x="516" y="167"/>
    </contour>
    <contour>
      <point x="460" y="58" type="curve"/>
      <point x="425" y="141"/>
      <point x="407" y="232"/>
      <point x="407" y="312" type="curve" smooth="yes"/>
      <point x="407" y="344"/>
      <point x="409" y="373"/>
      <point x="415" y="401" type="curve" smooth="yes"/>
      <point x="433" y="488"/>
      <point x="484" y="586"/>
      <point x="612" y="586" type="curve" smooth="yes"/>
      <point x="737" y="586"/>
      <point x="770" y="477"/>
      <point x="770" y="390" type="curve" smooth="yes"/>
      <point x="770" y="222"/>
      <point x="694" y="91"/>
      <point x="580" y="27" type="curve"/>
      <point x="623" y="-47"/>
      <point x="683" y="-109"/>
      <point x="759" y="-138" type="curve" smooth="yes"/>
      <point x="772" y="-143"/>
      <point x="779" y="-153"/>
      <point x="779" y="-164" type="curve" smooth="yes"/>
      <point x="779" y="-171"/>
      <point x="776" y="-179"/>
      <point x="770" y="-186" type="curve" smooth="yes"/>
      <point x="759" y="-198"/>
      <point x="739" y="-206"/>
      <point x="721" y="-206" type="curve" smooth="yes"/>
      <point x="714" y="-206"/>
      <point x="707" y="-205"/>
      <point x="701" y="-202" type="curve" smooth="yes"/>
      <point x="611" y="-164"/>
      <point x="542" y="-92"/>
      <point x="493" y="-7" type="curve"/>
      <point x="479" y="-10"/>
      <point x="464" y="-13"/>
      <point x="449" y="-15" type="curve" smooth="yes"/>
      <point x="435" y="-17"/>
      <point x="421" y="-17"/>
      <point x="408" y="-17" type="curve" smooth="yes"/>
      <point x="219" y="-17"/>
      <point x="66" y="132"/>
      <point x="66" y="385" type="curve" smooth="yes"/>
      <point x="66" y="620"/>
      <point x="185" y="766"/>
      <point x="346" y="809" type="curve" smooth="yes"/>
      <point x="377" y="817"/>
      <point x="408" y="821"/>
      <point x="438" y="821" type="curve" smooth="yes"/>
      <point x="561" y="821"/>
      <point x="666" y="755"/>
      <point x="699" y="652" type="curve" smooth="yes"/>
      <point x="700" y="649"/>
      <point x="700" y="647"/>
      <point x="700" y="644" type="curve" smooth="yes"/>
      <point x="700" y="626"/>
      <point x="683" y="608"/>
      <point x="658" y="601" type="curve" smooth="yes"/>
      <point x="652" y="599"/>
      <point x="645" y="598"/>
      <point x="639" y="598" type="curve" smooth="yes"/>
      <point x="617" y="598"/>
      <point x="598" y="608"/>
      <point x="593" y="624" type="curve" smooth="yes"/>
      <point x="567" y="704"/>
      <point x="493" y="742"/>
      <point x="421" y="742" type="curve" smooth="yes"/>
      <point x="403" y="742"/>
      <point x="386" y="740"/>
      <point x="369" y="735" type="curve" smooth="yes"/>
      <point x="284" y="713"/>
      <point x="174" y="620"/>
      <point x="174" y="397" type="curve" smooth="yes"/>
      <point x="174" y="154"/>
      <point x="322" y="56"/>
      <point x="432" y="56" type="curve" smooth="yes"/>
      <point x="438" y="56"/>
      <point x="443" y="56"/>
      <point x="449" y="57" type="curve" smooth="yes"/>
      <point x="453" y="57"/>
      <point x="456" y="57"/>
    </contour>
    <contour>
      <point x="552.463" y="84.6239" type="curve" smooth="yes"/>
      <point x="542.413" y="78.0695" type="line"/>
      <point x="537.777" y="89.1362" type="line" smooth="yes"/>
      <point x="506.221" y="164.464"/>
      <point x="491" y="246.636"/>
      <point x="491" y="320" type="curve" smooth="yes"/>
      <point x="491" y="348.477"/>
      <point x="493.015" y="377.064"/>
      <point x="498.194" y="402.961" type="curve" smooth="yes"/>
      <point x="516.668" y="493.276"/>
      <point x="559.621" y="524"/>
      <point x="598" y="524" type="curve" smooth="yes"/>
      <point x="645.747" y="524"/>
      <point x="685" y="472.625"/>
      <point x="685" y="380" type="curve" smooth="yes"/>
      <point x="685" y="225.324"/>
      <point x="624.59" y="131.663"/>
    </contour>
    <contour>
      <point x="469.214" y="61.8855" type="curve" smooth="yes"/>
      <point x="473.75" y="51.1297" type="line"/>
      <point x="462.425" y="48.2986" type="line" smooth="yes"/>
      <point x="457.554" y="47.0808"/>
      <point x="454.008" y="47.0092"/>
      <point x="449.806" y="47.0002" type="curve"/>
      <point x="444.77" y="46.2427"/>
      <point x="437.449" y="46"/>
      <point x="432" y="46" type="curve" smooth="yes"/>
      <point x="315.905" y="46"/>
      <point x="164" y="149.46"/>
      <point x="164" y="397" type="curve" smooth="yes"/>
      <point x="164" y="623.581"/>
      <point x="276.757" y="721.455"/>
      <point x="366.336" y="744.64" type="curve"/>
      <point x="384.036" y="749.846"/>
      <point x="402.354" y="752"/>
      <point x="421" y="752" type="curve" smooth="yes"/>
      <point x="496.285" y="752"/>
      <point x="574.895" y="712.061"/>
      <point x="602.528" y="627.037" type="curve"/>
      <point x="605.659" y="617.017"/>
      <point x="619.354" y="608"/>
      <point x="639" y="608" type="curve" smooth="yes"/>
      <point x="643.913" y="608"/>
      <point x="650.08" y="608.901"/>
      <point x="654.838" y="610.487" type="curve" smooth="yes"/>
      <point x="655.069" y="610.564" type="line"/>
      <point x="655.304" y="610.63" type="line" smooth="yes"/>
      <point x="677.819" y="616.934"/>
      <point x="690" y="632.44"/>
      <point x="690" y="644" type="curve" smooth="yes"/>
      <point x="690" y="647.179"/>
      <point x="690.076" y="647.15"/>
      <point x="689.495" y="648.893" type="curve"/>
      <point x="658.058" y="747.014"/>
      <point x="557.624" y="811"/>
      <point x="438" y="811" type="curve" smooth="yes"/>
      <point x="408.889" y="811"/>
      <point x="378.718" y="807.116"/>
      <point x="348.499" y="799.317" type="curve" smooth="yes"/>
      <point x="192.46" y="757.642"/>
      <point x="76" y="616.409"/>
      <point x="76" y="385" type="curve" smooth="yes"/>
      <point x="76" y="136.322"/>
      <point x="225.155" y="-7"/>
      <point x="408" y="-7" type="curve" smooth="yes"/>
      <point x="420.998" y="-7"/>
      <point x="434.504" y="-6.96928"/>
      <point x="447.586" y="-5.10051" type="curve" smooth="yes"/>
      <point x="462.371" y="-3.12917"/>
      <point x="476.942" y="-0.21395"/>
      <point x="490.905" y="2.77802" type="curve" smooth="yes"/>
      <point x="498.026" y="4.30405" type="line"/>
      <point x="501.664" y="-2.00572" type="line" smooth="yes"/>
      <point x="549.886" y="-85.6562"/>
      <point x="617.427" y="-155.859"/>
      <point x="704.89" y="-192.788" type="curve" smooth="yes"/>
      <point x="705.185" y="-192.912" type="line"/>
      <point x="705.472" y="-193.056" type="line" smooth="yes"/>
      <point x="709.477" y="-195.058"/>
      <point x="714.906" y="-196"/>
      <point x="721" y="-196" type="curve" smooth="yes"/>
      <point x="736.278" y="-196"/>
      <point x="754.119" y="-188.526"/>
      <point x="762.516" y="-179.366" type="curve"/>
      <point x="766.949" y="-174.193"/>
      <point x="769" y="-168.131"/>
      <point x="769" y="-164" type="curve" smooth="yes"/>
      <point x="769" y="-157.619"/>
      <point x="765.293" y="-151.134"/>
      <point x="755.41" y="-147.333" type="curve" smooth="yes"/>
      <point x="676.61" y="-117.265"/>
      <point x="615.112" y="-53.3284"/>
      <point x="571.354" y="21.9758" type="curve" smooth="yes"/>
      <point x="566.254" y="30.7513" type="line"/>
      <point x="575.105" y="35.7198" type="line" smooth="yes"/>
      <point x="685.544" y="97.7209"/>
      <point x="760" y="225.014"/>
      <point x="760" y="390" type="curve" smooth="yes"/>
      <point x="760" y="471.174"/>
      <point x="731.414" y="565.159"/>
      <point x="630.436" y="575.119" type="curve" smooth="yes"/>
      <point x="624.564" y="575.698"/>
      <point x="618.423" y="576"/>
      <point x="612" y="576" type="curve" smooth="yes"/>
      <point x="490.785" y="576"/>
      <point x="442.455" y="484.344"/>
      <point x="424.793" y="398.974" type="curve" smooth="yes"/>
      <point x="418.962" y="371.763"/>
      <point x="417" y="343.636"/>
      <point x="417" y="312" type="curve" smooth="yes"/>
      <point x="417" y="233.471"/>
      <point x="434.748" y="143.619"/>
    </contour>
  </outline>
</glyph>
<glyph name="R" format="1">
  <advance width="780"/>
  <unicode hex="0052"/>
  <outline>
    <contour>
      <point x="179" y="-24" type="curve" smooth="yes"/>
      <point x="172" y="-24" type="line" smooth="yes"/>
      <point x="146" y="-24"/>
      <point x="126" y="-10"/>
      <point x="126" y="9" type="curve" smooth="yes"/>
      <point x="126" y="10" type="line" smooth="yes"/>
      <point x="129" y="88"/>
      <point x="130" y="173"/>
      <point x="130" y="255" type="curve" smooth="yes"/>
      <point x="130" y="391"/>
      <point x="126" y="519"/>
      <point x="116" y="596" type="curve"/>
      <point x="116" y="600" type="line" smooth="yes"/>
      <point x="116" y="620"/>
      <point x="138" y="638"/>
      <point x="165" y="643" type="curve" smooth="yes"/>
      <point x="169" y="644"/>
      <point x="173" y="644"/>
      <point x="177" y="644" type="curve" smooth="yes"/>
      <point x="201" y="644"/>
      <point x="221" y="632"/>
      <point x="224" y="614" type="curve" smooth="yes"/>
      <point x="231" y="565"/>
      <point x="235" y="500"/>
      <point x="237" y="426" type="curve"/>
      <point x="245" y="434"/>
      <point x="254" y="440"/>
      <point x="268" y="440" type="curve" smooth="yes"/>
      <point x="274" y="440"/>
      <point x="281" y="439"/>
      <point x="289" y="436" type="curve" smooth="yes"/>
      <point x="343" y="418"/>
      <point x="388" y="411"/>
      <point x="425" y="411" type="curve" smooth="yes"/>
      <point x="463" y="411"/>
      <point x="492" y="418"/>
      <point x="514" y="428" type="curve" smooth="yes"/>
      <point x="570" y="454"/>
      <point x="605" y="513"/>
      <point x="605" y="574" type="curve" smooth="yes"/>
      <point x="605" y="606"/>
      <point x="596" y="639"/>
      <point x="574" y="668" type="curve" smooth="yes"/>
      <point x="542" y="711"/>
      <point x="485" y="745"/>
      <point x="393" y="745" type="curve" smooth="yes"/>
      <point x="320" y="745"/>
      <point x="225" y="724"/>
      <point x="104" y="668" type="curve" smooth="yes"/>
      <point x="94" y="663"/>
      <point x="83" y="661"/>
      <point x="72" y="661" type="curve" smooth="yes"/>
      <point x="55" y="661"/>
      <point x="39" y="667"/>
      <point x="31" y="678" type="curve" smooth="yes"/>
      <point x="27" y="683"/>
      <point x="26" y="688"/>
      <point x="26" y="694" type="curve" smooth="yes"/>
      <point x="26" y="708"/>
      <point x="37" y="723"/>
      <point x="56" y="732" type="curve" smooth="yes"/>
      <point x="193" y="795"/>
      <point x="312" y="822"/>
      <point x="409" y="822" type="curve" smooth="yes"/>
      <point x="534" y="822"/>
      <point x="624" y="778"/>
      <point x="672" y="713" type="curve" smooth="yes"/>
      <point x="700" y="675"/>
      <point x="715" y="629"/>
      <point x="715" y="582" type="curve" smooth="yes"/>
      <point x="715" y="498"/>
      <point x="667" y="412"/>
      <point x="562" y="364" type="curve" smooth="yes"/>
      <point x="518" y="344"/>
      <point x="465" y="332"/>
      <point x="409" y="332" type="curve" smooth="yes"/>
      <point x="402" y="332" type="line"/>
      <point x="496" y="242"/>
      <point x="645" y="104"/>
      <point x="732" y="39" type="curve" smooth="yes"/>
      <point x="740" y="33"/>
      <point x="744" y="25"/>
      <point x="744" y="16" type="curve" smooth="yes"/>
      <point x="744" y="5"/>
      <point x="738" y="-7"/>
      <point x="725" y="-16" type="curve" smooth="yes"/>
      <point x="713" y="-25"/>
      <point x="697" y="-29"/>
      <point x="682" y="-29" type="curve" smooth="yes"/>
      <point x="669" y="-29"/>
      <point x="657" y="-26"/>
      <point x="648" y="-19" type="curve" smooth="yes"/>
      <point x="524" y="73"/>
      <point x="310" y="280"/>
      <point x="238" y="350" type="curve"/>
      <point x="238" y="273" type="line" smooth="yes"/>
      <point x="238" y="189"/>
      <point x="237" y="101"/>
      <point x="234" y="20" type="curve" smooth="yes"/>
      <point x="233" y="-1"/>
      <point x="209" y="-21"/>
    </contour>
    <contour>
      <point x="178.498" y="-14" type="line"/>
      <point x="204.687" y="-11.0153"/>
      <point x="223.348" y="6.54039"/>
      <point x="224.009" y="20.4229" type="curve"/>
      <point x="226.997" y="101.117"/>
      <point x="228" y="189.115"/>
      <point x="228" y="273" type="curve" smooth="yes"/>
      <point x="228" y="373.669" type="line"/>
      <point x="244.971" y="357.17" type="line" smooth="yes"/>
      <point x="316.893" y="287.246"/>
      <point x="530.903" y="80.3304"/>
      <point x="654.05" y="-11.0367" type="curve"/>
      <point x="660.883" y="-16.3513"/>
      <point x="670.41" y="-19"/>
      <point x="682" y="-19" type="curve" smooth="yes"/>
      <point x="695.393" y="-19"/>
      <point x="709.096" y="-15.428"/>
      <point x="719.152" y="-7.88612" type="curve"/>
      <point x="730.213" y="-0.228157"/>
      <point x="734" y="8.69063"/>
      <point x="734" y="16" type="curve" smooth="yes"/>
      <point x="734" y="21.8394"/>
      <point x="731.765" y="26.676"/>
      <point x="726" y="31" type="curve" smooth="yes"/>
      <point x="638.166" y="96.6233"/>
      <point x="489.252" y="234.617"/>
      <point x="395.084" y="324.777" type="curve" smooth="yes"/>
      <point x="377.096" y="342" type="line"/>
      <point x="409" y="342" type="line" smooth="yes"/>
      <point x="463.577" y="342"/>
      <point x="515.231" y="353.726"/>
      <point x="557.862" y="373.104" type="curve" smooth="yes"/>
      <point x="659.583" y="419.605"/>
      <point x="705" y="501.991"/>
      <point x="705" y="582" type="curve" smooth="yes"/>
      <point x="705" y="626.874"/>
      <point x="690.674" y="670.799"/>
      <point x="663.949" y="707.068" type="curve" smooth="yes"/>
      <point x="618.313" y="768.868"/>
      <point x="531.737" y="812"/>
      <point x="409" y="812" type="curve" smooth="yes"/>
      <point x="313.874" y="812"/>
      <point x="196.121" y="785.428"/>
      <point x="60.2295" y="722.938" type="curve"/>
      <point x="43.5366" y="715.031"/>
      <point x="36" y="702.667"/>
      <point x="36" y="694" type="curve" smooth="yes"/>
      <point x="36" y="689.107"/>
      <point x="36.5064" y="687.125"/>
      <point x="38.8087" y="684.247" type="curve" smooth="yes"/>
      <point x="38.9522" y="684.068" type="line"/>
      <point x="39.0874" y="683.882" type="line" smooth="yes"/>
      <point x="44.3951" y="676.584"/>
      <point x="57.0168" y="671"/>
      <point x="72" y="671" type="curve" smooth="yes"/>
      <point x="81.8777" y="671"/>
      <point x="91.0595" y="672.71"/>
      <point x="99.6629" y="677.012" type="curve"/>
      <point x="221.882" y="733.576"/>
      <point x="318.008" y="755"/>
      <point x="393" y="755" type="curve" smooth="yes"/>
      <point x="487.557" y="755"/>
      <point x="547.995" y="719.694"/>
      <point x="582.022" y="673.97" type="curve" smooth="yes"/>
      <point x="605.359" y="643.208"/>
      <point x="615" y="607.834"/>
      <point x="615" y="574" type="curve" smooth="yes"/>
      <point x="615" y="509.307"/>
      <point x="578.021" y="446.699"/>
      <point x="518.211" y="418.93" type="curve" smooth="yes"/>
      <point x="494.626" y="408.209"/>
      <point x="464.265" y="401"/>
      <point x="425" y="401" type="curve" smooth="yes"/>
      <point x="386.631" y="401"/>
      <point x="340.894" y="408.161"/>
      <point x="285.662" y="426.572" type="curve"/>
      <point x="278.398" y="429.296"/>
      <point x="272.978" y="430"/>
      <point x="268" y="430" type="curve" smooth="yes"/>
      <point x="257.243" y="430"/>
      <point x="251.171" y="426.028"/>
      <point x="244.071" y="418.929" type="curve" smooth="yes"/>
      <point x="227.632" y="402.49" type="line"/>
      <point x="227.004" y="425.73" type="line" smooth="yes"/>
      <point x="225.011" y="499.44"/>
      <point x="220.982" y="564.414"/>
      <point x="214.117" y="612.471" type="curve"/>
      <point x="212.325" y="623.224"/>
      <point x="198.485" y="634"/>
      <point x="177" y="634" type="curve" smooth="yes"/>
      <point x="172.972" y="634"/>
      <point x="169.893" y="633.916"/>
      <point x="167.425" y="633.299" type="curve" smooth="yes"/>
      <point x="167.125" y="633.224" type="line"/>
      <point x="166.821" y="633.167" type="line" smooth="yes"/>
      <point x="141.753" y="628.525"/>
      <point x="126" y="612.411"/>
      <point x="126" y="600" type="curve" smooth="yes"/>
      <point x="126" y="596.644" type="line"/>
      <point x="135.86" y="520.156"/>
      <point x="140" y="390.838"/>
      <point x="140" y="255" type="curve" smooth="yes"/>
      <point x="140" y="173.046"/>
      <point x="138.99" y="87.5507"/>
      <point x="136" y="9.80776" type="curve"/>
      <point x="136" y="9" type="line" smooth="yes"/>
      <point x="136" y="-1.75235"/>
      <point x="148.544" y="-14"/>
      <point x="172" y="-14" type="curve" smooth="yes"/>
    </contour>
  </outline>
</glyph>
<glyph name="S" format="1">
  <advance width="700"/>
  <unicode hex="0053"/>
  <outline>
    <contour>
      <point x="108" y="199" type="curve" smooth="yes"/>
      <point x="116" y="201"/>
      <point x="124" y="202"/>
      <point x="131" y="202" type="curve" smooth="yes"/>
      <point x="151" y="202"/>
      <point x="168" y="194"/>
      <point x="174" y="179" type="curve" smooth="yes"/>
      <point x="205" y="102"/>
      <point x="274" y="56"/>
      <point x="375" y="56" type="curve" smooth="yes"/>
      <point x="447" y="56"/>
      <point x="497" y="84"/>
      <point x="527" y="124" type="curve" smooth="yes"/>
      <point x="545" y="148"/>
      <point x="555" y="176"/>
      <point x="555" y="203" type="curve" smooth="yes"/>
      <point x="555" y="254"/>
      <point x="521" y="305"/>
      <point x="440" y="330" type="curve" smooth="yes"/>
      <point x="402" y="343"/>
      <point x="269" y="389"/>
      <point x="226" y="404" type="curve" smooth="yes"/>
      <point x="113" y="442"/>
      <point x="60" y="515"/>
      <point x="60" y="590" type="curve" smooth="yes"/>
      <point x="60" y="601"/>
      <point x="61" y="611"/>
      <point x="63" y="622" type="curve" smooth="yes"/>
      <point x="84" y="725"/>
      <point x="209" y="822"/>
      <point x="390" y="822" type="curve" smooth="yes"/>
      <point x="529" y="822"/>
      <point x="604" y="737"/>
      <point x="604" y="648" type="curve" smooth="yes"/>
      <point x="604" y="640"/>
      <point x="603" y="633"/>
      <point x="602" y="625" type="curve" smooth="yes"/>
      <point x="599" y="604"/>
      <point x="571" y="585"/>
      <point x="542" y="584" type="curve" smooth="yes"/>
      <point x="540" y="584" type="line" smooth="yes"/>
      <point x="514" y="584"/>
      <point x="494" y="598"/>
      <point x="494" y="617" type="curve" smooth="yes"/>
      <point x="494" y="621" type="line" smooth="yes"/>
      <point x="495" y="626"/>
      <point x="495" y="631"/>
      <point x="495" y="636" type="curve" smooth="yes"/>
      <point x="495" y="695"/>
      <point x="443" y="744"/>
      <point x="374" y="744" type="curve" smooth="yes"/>
      <point x="253" y="744"/>
      <point x="184" y="686"/>
      <point x="171" y="622" type="curve" smooth="yes"/>
      <point x="170" y="615"/>
      <point x="169" y="609"/>
      <point x="169" y="602" type="curve" smooth="yes"/>
      <point x="169" y="555"/>
      <point x="203" y="509"/>
      <point x="284" y="482" type="curve" smooth="yes"/>
      <point x="329" y="467"/>
      <point x="460" y="420"/>
      <point x="496" y="408" type="curve" smooth="yes"/>
      <point x="612" y="371"/>
      <point x="664" y="294"/>
      <point x="664" y="216" type="curve" smooth="yes"/>
      <point x="664" y="174"/>
      <point x="648" y="131"/>
      <point x="620" y="94" type="curve" smooth="yes"/>
      <point x="570" y="29"/>
      <point x="476" y="-22"/>
      <point x="359" y="-22" type="curve" smooth="yes"/>
      <point x="206" y="-22"/>
      <point x="109" y="50"/>
      <point x="70" y="147" type="curve" smooth="yes"/>
      <point x="69" y="150"/>
      <point x="68" y="154"/>
      <point x="68" y="157" type="curve" smooth="yes"/>
      <point x="68" y="174"/>
      <point x="84" y="192"/>
    </contour>
    <contour>
      <point x="110.614" y="189.346" type="curve" smooth="yes"/>
      <point x="89.2991" y="183.129"/>
      <point x="78" y="167.74"/>
      <point x="78" y="157" type="curve" smooth="yes"/>
      <point x="78" y="155.93"/>
      <point x="78.3787" y="153.696"/>
      <point x="79.3848" y="150.464" type="curve"/>
      <point x="116.848" y="58.1169"/>
      <point x="209.114" y="-12"/>
      <point x="359" y="-12" type="curve" smooth="yes"/>
      <point x="473.115" y="-12"/>
      <point x="564.165" y="37.8159"/>
      <point x="612.074" y="100.097" type="curve" smooth="yes"/>
      <point x="638.857" y="135.489"/>
      <point x="654" y="176.575"/>
      <point x="654" y="216" type="curve" smooth="yes"/>
      <point x="654" y="289.035"/>
      <point x="605.898" y="362.45"/>
      <point x="492.899" y="398.493" type="curve"/>
      <point x="456.498" y="410.626"/>
      <point x="325.655" y="457.574"/>
      <point x="280.838" y="472.513" type="curve" smooth="yes"/>
      <point x="197.586" y="500.264"/>
      <point x="159" y="549.362"/>
      <point x="159" y="602" type="curve" smooth="yes"/>
      <point x="159" y="609.985"/>
      <point x="160.125" y="616.588"/>
      <point x="161.101" y="623.414" type="curve" smooth="yes"/>
      <point x="161.142" y="623.704" type="line"/>
      <point x="161.2" y="623.991" type="line" smooth="yes"/>
      <point x="175.441" y="694.1"/>
      <point x="250.038" y="754"/>
      <point x="374" y="754" type="curve" smooth="yes"/>
      <point x="447.638" y="754"/>
      <point x="505" y="701.314"/>
      <point x="505" y="636" type="curve" smooth="yes"/>
      <point x="505" y="631.207"/>
      <point x="505.095" y="626.345"/>
      <point x="504" y="620.062" type="curve"/>
      <point x="504" y="617" type="line" smooth="yes"/>
      <point x="504" y="606.248"/>
      <point x="516.544" y="594"/>
      <point x="540" y="594" type="curve" smooth="yes"/>
      <point x="541.828" y="594" type="line"/>
      <point x="567.603" y="594.889"/>
      <point x="590.155" y="612.797"/>
      <point x="592.088" y="626.327" type="curve"/>
      <point x="593.08" y="634.26"/>
      <point x="594" y="640.914"/>
      <point x="594" y="648" type="curve" smooth="yes"/>
      <point x="594" y="730.724"/>
      <point x="524.672" y="812"/>
      <point x="390" y="812" type="curve" smooth="yes"/>
      <point x="212.086" y="812"/>
      <point x="92.4771" y="716.522"/>
      <point x="72.8197" y="620.106" type="curve"/>
      <point x="70.9486" y="609.816"/>
      <point x="70" y="600.323"/>
      <point x="70" y="590" type="curve" smooth="yes"/>
      <point x="70" y="520.287"/>
      <point x="118.856" y="450.581"/>
      <point x="229.241" y="413.461" type="curve"/>
      <point x="272.227" y="398.465"/>
      <point x="405.443" y="352.391"/>
      <point x="443.094" y="339.511" type="curve"/>
      <point x="526.848" y="313.66"/>
      <point x="565" y="259.052"/>
      <point x="565" y="203" type="curve" smooth="yes"/>
      <point x="565" y="173.534"/>
      <point x="554.154" y="143.538"/>
      <point x="535" y="118" type="curve" smooth="yes"/>
      <point x="503.033" y="75.3767"/>
      <point x="449.699" y="46"/>
      <point x="375" y="46" type="curve" smooth="yes"/>
      <point x="270.729" y="46"/>
      <point x="197.334" y="94.2664"/>
      <point x="164.724" y="175.265" type="curve" smooth="yes"/>
      <point x="160.856" y="184.934"/>
      <point x="148.81" y="192"/>
      <point x="131" y="192" type="curve" smooth="yes"/>
      <point x="125.057" y="192"/>
      <point x="117.428" y="191.049"/>
    </contour>
  </outline>
</glyph>
<glyph name="U" format="1">
  <advance width="820"/>
  <unicode hex="0055"/>
  <outline>
    <contour>
      <point x="656" y="799" type="curve" smooth="yes"/>
      <point x="664" y="799" type="line" smooth="yes"/>
      <point x="691" y="799"/>
      <point x="711" y="785"/>
      <point x="711" y="766" type="curve" smooth="yes"/>
      <point x="714" y="595"/>
      <point x="724" y="425"/>
      <point x="724" y="326" type="curve" smooth="yes"/>
      <point x="724" y="287"/>
      <point x="721" y="249"/>
      <point x="714" y="214" type="curve" smooth="yes"/>
      <point x="688" y="87"/>
      <point x="596" y="-24"/>
      <point x="402" y="-24" type="curve" smooth="yes"/>
      <point x="190" y="-24"/>
      <point x="96" y="88"/>
      <point x="96" y="314" type="curve" smooth="yes"/>
      <point x="96" y="413"/>
      <point x="107" y="615"/>
      <point x="107" y="754" type="curve" smooth="yes"/>
      <point x="107" y="775"/>
      <point x="131" y="796"/>
      <point x="161" y="799" type="curve" smooth="yes"/>
      <point x="169" y="799" type="line" smooth="yes"/>
      <point x="195" y="799"/>
      <point x="215" y="785"/>
      <point x="215" y="766" type="curve" smooth="yes"/>
      <point x="215" y="625"/>
      <point x="204" y="421"/>
      <point x="204" y="326" type="curve" smooth="yes"/>
      <point x="204" y="110"/>
      <point x="280" y="54"/>
      <point x="418" y="54" type="curve" smooth="yes"/>
      <point x="532" y="54"/>
      <point x="585" y="102"/>
      <point x="607" y="214" type="curve" smooth="yes"/>
      <point x="613" y="244"/>
      <point x="616" y="278"/>
      <point x="616" y="314" type="curve" smooth="yes"/>
      <point x="616" y="409"/>
      <point x="606" y="581"/>
      <point x="603" y="754" type="curve" smooth="yes"/>
      <point x="603" y="775"/>
      <point x="626" y="796"/>
    </contour>
    <contour>
      <point x="656.503" y="789" type="line"/>
      <point x="630.633" y="786.029"/>
      <point x="613" y="767.884"/>
      <point x="613" y="754.087" type="curve"/>
      <point x="615.993" y="581.495"/>
      <point x="626" y="409.528"/>
      <point x="626" y="314" type="curve" smooth="yes"/>
      <point x="626" y="277.444"/>
      <point x="622.964" y="242.831"/>
      <point x="616.806" y="212.039" type="curve" smooth="yes"/>
      <point x="594.133" y="96.6139"/>
      <point x="536.177" y="44"/>
      <point x="418" y="44" type="curve" smooth="yes"/>
      <point x="274.855" y="44"/>
      <point x="194" y="106.571"/>
      <point x="194" y="326" type="curve" smooth="yes"/>
      <point x="194" y="421.554"/>
      <point x="205" y="625.398"/>
      <point x="205" y="766" type="curve" smooth="yes"/>
      <point x="205" y="776.752"/>
      <point x="192.456" y="789"/>
      <point x="169" y="789" type="curve" smooth="yes"/>
      <point x="161.504" y="789" type="line"/>
      <point x="135.439" y="786.013"/>
      <point x="117" y="767.706"/>
      <point x="117" y="754" type="curve" smooth="yes"/>
      <point x="117" y="614.594"/>
      <point x="106" y="412.453"/>
      <point x="106" y="314" type="curve" smooth="yes"/>
      <point x="106" y="91.6994"/>
      <point x="195.507" y="-14"/>
      <point x="402" y="-14" type="curve" smooth="yes"/>
      <point x="591.262" y="-14"/>
      <point x="678.989" y="92.8418"/>
      <point x="704.203" y="216.006" type="curve" smooth="yes"/>
      <point x="711.02" y="250.09"/>
      <point x="714" y="287.533"/>
      <point x="714" y="326" type="curve" smooth="yes"/>
      <point x="714" y="424.49"/>
      <point x="704.008" y="594.484"/>
      <point x="701" y="765.912" type="curve"/>
      <point x="701" y="776.707"/>
      <point x="688.605" y="789"/>
      <point x="664" y="789" type="curve" smooth="yes"/>
    </contour>
  </outline>
</glyph>
<glyph name="V" format="1">
  <advance width="810"/>
  <unicode hex="0056"/>
  <outline>
    <contour>
      <point x="727" y="791" type="line" smooth="yes"/>
      <point x="752" y="790"/>
      <point x="769" y="775"/>
      <point x="769" y="757" type="curve" smooth="yes"/>
      <point x="769" y="754"/>
      <point x="769" y="752"/>
      <point x="768" y="749" type="curve" smooth="yes"/>
      <point x="735" y="637"/>
      <point x="607" y="294"/>
      <point x="455" y="11" type="curve"/>
      <point x="455" y="11"/>
      <point x="417" y="-21"/>
      <point x="386" y="-21" type="curve" smooth="yes"/>
      <point x="372" y="-21"/>
      <point x="359" y="-14"/>
      <point x="352" y="6" type="curve" smooth="yes"/>
      <point x="351" y="10"/>
      <point x="350" y="14"/>
      <point x="348" y="19" type="curve" smooth="yes"/>
      <point x="290" y="188"/>
      <point x="150" y="573"/>
      <point x="45" y="745" type="curve" smooth="yes"/>
      <point x="42" y="749"/>
      <point x="41" y="754"/>
      <point x="41" y="759" type="curve" smooth="yes"/>
      <point x="41" y="774"/>
      <point x="54" y="791"/>
      <point x="74" y="799" type="curve" smooth="yes"/>
      <point x="83" y="803"/>
      <point x="92" y="804"/>
      <point x="101" y="804" type="curve" smooth="yes"/>
      <point x="120" y="804"/>
      <point x="138" y="797"/>
      <point x="145" y="785" type="curve" smooth="yes"/>
      <point x="237" y="633"/>
      <point x="348" y="335"/>
      <point x="417" y="142" type="curve"/>
      <point x="537" y="388"/>
      <point x="636" y="665"/>
      <point x="662" y="755" type="curve" smooth="yes"/>
      <point x="668" y="775"/>
      <point x="696" y="791"/>
      <point x="724" y="791" type="curve" smooth="yes"/>
    </contour>
    <contour>
      <point x="726.8" y="781" type="curve" smooth="yes"/>
      <point x="724" y="781" type="line" smooth="yes"/>
      <point x="698.851" y="781"/>
      <point x="675.67" y="765.766"/>
      <point x="671.593" y="752.175" type="curve"/>
      <point x="645.371" y="661.409"/>
      <point x="546.343" y="384.344"/>
      <point x="425.988" y="137.616" type="curve" smooth="yes"/>
      <point x="415.577" y="116.275" type="line"/>
      <point x="407.584" y="138.634" type="line" smooth="yes"/>
      <point x="338.651" y="331.446"/>
      <point x="227.542" y="629.314"/>
      <point x="136.403" y="779.891" type="curve"/>
      <point x="132.14" y="787.199"/>
      <point x="118.168" y="794"/>
      <point x="101" y="794" type="curve" smooth="yes"/>
      <point x="92.6206" y="794"/>
      <point x="85.5269" y="793.18"/>
      <point x="77.889" y="789.785" type="curve"/>
      <point x="60.2845" y="782.743"/>
      <point x="51" y="768.451"/>
      <point x="51" y="759" type="curve" smooth="yes"/>
      <point x="51" y="755.234"/>
      <point x="51.8074" y="752.59"/>
      <point x="53" y="751" type="curve" smooth="yes"/>
      <point x="53.2865" y="750.618" type="line"/>
      <point x="53.5353" y="750.21" type="line" smooth="yes"/>
      <point x="159.478" y="576.666"/>
      <point x="299.519" y="191.068"/>
      <point x="357.31" y="22.6775" type="curve"/>
      <point x="359.394" y="17.2199"/>
      <point x="360.363" y="13.7569"/>
      <point x="361.594" y="8.85727" type="curve"/>
      <point x="367.402" y="-6.79637"/>
      <point x="375.773" y="-11"/>
      <point x="386" y="-11" type="curve" smooth="yes"/>
      <point x="408.067" y="-11"/>
      <point x="439.372" y="11.3214"/>
      <point x="447.137" y="17.4949" type="curve"/>
      <point x="597.474" y="297.914"/>
      <point x="725.808" y="641.184"/>
      <point x="758.457" y="751.995" type="curve"/>
      <point x="759.118" y="753.978"/>
      <point x="759" y="753.763"/>
      <point x="759" y="757" type="curve" smooth="yes"/>
      <point x="759" y="767.848"/>
      <point x="748.096" y="780.148"/>
    </contour>
  </outline>
</glyph>
<glyph name="W" format="1">
  <advance width="1100"/>
  <unicode hex="0057"/>
  <outline>
    <contour>
      <point x="1014" y="799" type="line" smooth="yes"/>
      <point x="1038" y="797"/>
      <point x="1055" y="782"/>
      <point x="1055" y="765" type="curve" smooth="yes"/>
      <point x="1055" y="762"/>
      <point x="1054" y="758"/>
      <point x="1053" y="755" type="curve" smooth="yes"/>
      <point x="983" y="561"/>
      <point x="930" y="342"/>
      <point x="846" y="23" type="curve"/>
      <point x="846" y="23"/>
      <point x="802" y="-10"/>
      <point x="770" y="-10" type="curve" smooth="yes"/>
      <point x="757" y="-10"/>
      <point x="747" y="-5"/>
      <point x="742" y="10" type="curve" smooth="yes"/>
      <point x="741" y="13"/>
      <point x="740" y="17"/>
      <point x="739" y="20" type="curve" smooth="yes"/>
      <point x="693" y="149"/>
      <point x="600" y="448"/>
      <point x="541" y="608" type="curve"/>
      <point x="482" y="430"/>
      <point x="391" y="116"/>
      <point x="356" y="16" type="curve"/>
      <point x="356" y="16"/>
      <point x="311" y="-13"/>
      <point x="280" y="-13" type="curve" smooth="yes"/>
      <point x="266" y="-13"/>
      <point x="255" y="-8"/>
      <point x="251" y="8" type="curve" smooth="yes"/>
      <point x="186" y="269"/>
      <point x="99" y="587"/>
      <point x="47" y="746" type="curve" smooth="yes"/>
      <point x="46" y="749"/>
      <point x="46" y="751"/>
      <point x="46" y="754" type="curve" smooth="yes"/>
      <point x="46" y="772"/>
      <point x="63" y="790"/>
      <point x="88" y="797" type="curve" smooth="yes"/>
      <point x="94" y="799"/>
      <point x="101" y="800"/>
      <point x="107" y="800" type="curve" smooth="yes"/>
      <point x="129" y="800"/>
      <point x="148" y="790"/>
      <point x="153" y="774" type="curve" smooth="yes"/>
      <point x="194" y="648"/>
      <point x="266" y="386"/>
      <point x="318" y="169" type="curve"/>
      <point x="380" y="377"/>
      <point x="470" y="694"/>
      <point x="495" y="736" type="curve" smooth="yes"/>
      <point x="511" y="763"/>
      <point x="528" y="772"/>
      <point x="543" y="772" type="curve" smooth="yes"/>
      <point x="569" y="772"/>
      <point x="590" y="746"/>
      <point x="590" y="746" type="curve"/>
      <point x="617" y="704"/>
      <point x="724" y="384"/>
      <point x="794" y="168" type="curve"/>
      <point x="847" y="392"/>
      <point x="895" y="606"/>
      <point x="952" y="765" type="curve" smooth="yes"/>
      <point x="960" y="785"/>
      <point x="982" y="799"/>
      <point x="1009" y="799" type="curve" smooth="yes"/>
    </contour>
    <contour>
      <point x="1013.59" y="789" type="curve"/>
      <point x="1009" y="789" type="line" smooth="yes"/>
      <point x="985.327" y="789"/>
      <point x="967.427" y="776.643"/>
      <point x="961.352" y="761.455" type="curve"/>
      <point x="904.837" y="603.806"/>
      <point x="856.716" y="389.632"/>
      <point x="803.731" y="165.698" type="curve" smooth="yes"/>
      <point x="795.504" y="130.923" type="line"/>
      <point x="784.487" y="164.917" type="line" smooth="yes"/>
      <point x="715.037" y="379.219"/>
      <point x="607.559" y="698.801"/>
      <point x="581.904" y="740.092" type="curve"/>
      <point x="578.895" y="743.565"/>
      <point x="560.969" y="762"/>
      <point x="543" y="762" type="curve" smooth="yes"/>
      <point x="532.554" y="762"/>
      <point x="518.578" y="756.173"/>
      <point x="503.603" y="730.902" type="curve" smooth="yes"/>
      <point x="480.737" y="692.487"/>
      <point x="389.429" y="373.626"/>
      <point x="327.583" y="166.143" type="curve" smooth="yes"/>
      <point x="316.95" y="130.47" type="line"/>
      <point x="308.275" y="166.67" type="line" smooth="yes"/>
      <point x="256.335" y="383.421"/>
      <point x="184.352" y="645.332"/>
      <point x="143.473" y="770.961" type="curve"/>
      <point x="140.34" y="780.984"/>
      <point x="126.646" y="790"/>
      <point x="107" y="790" type="curve" smooth="yes"/>
      <point x="102.087" y="790"/>
      <point x="95.9201" y="789.099"/>
      <point x="91.1623" y="787.513" type="curve" smooth="yes"/>
      <point x="90.931" y="787.436" type="line"/>
      <point x="90.6963" y="787.37" type="line" smooth="yes"/>
      <point x="68.1813" y="781.066"/>
      <point x="56" y="765.56"/>
      <point x="56" y="754" type="curve" smooth="yes"/>
      <point x="56" y="750.851"/>
      <point x="55.9455" y="750.786"/>
      <point x="56.4868" y="749.162" type="curve" smooth="yes"/>
      <point x="108.694" y="589.528"/>
      <point x="195.641" y="271.666"/>
      <point x="260.704" y="10.4166" type="curve" smooth="yes"/>
      <point x="263.428" y="-0.482721"/>
      <point x="268.651" y="-3"/>
      <point x="280" y="-3" type="curve" smooth="yes"/>
      <point x="301.741" y="-3"/>
      <point x="335.87" y="15.4949"/>
      <point x="347.72" y="22.6326" type="curve"/>
      <point x="382.875" y="124.247"/>
      <point x="473.081" y="434.877"/>
      <point x="531.508" y="611.146" type="curve" smooth="yes"/>
      <point x="540.497" y="638.267" type="line"/>
      <point x="550.382" y="611.46" type="line" smooth="yes"/>
      <point x="609.565" y="450.964"/>
      <point x="702.51" y="152.103"/>
      <point x="748.454" y="23.2609" type="curve"/>
      <point x="749.715" y="19.4769"/>
      <point x="750.653" y="15.6631"/>
      <point x="751.487" y="13.1623" type="curve" smooth="yes"/>
      <point x="755.115" y="2.27805"/>
      <point x="760.076" y="0"/>
      <point x="770" y="0" type="curve" smooth="yes"/>
      <point x="792.185" y="0"/>
      <point x="825.992" y="21.1436"/>
      <point x="837.244" y="29.0177" type="curve"/>
      <point x="920.225" y="344.285"/>
      <point x="973.768" y="564.876"/>
      <point x="1043.55" y="758.279" type="curve"/>
      <point x="1044.26" y="760.395"/>
      <point x="1045" y="764.111"/>
      <point x="1045" y="765" type="curve" smooth="yes"/>
      <point x="1045" y="774.613"/>
      <point x="1034.92" y="786.85"/>
    </contour>
  </outline>
</glyph>
